<svg width="175" height="275" viewBox="0 0 175 275" fill="none" xmlns="http://www.w3.org/2000/svg">
<path d="M1.57474 274.511C0.998193 273.704 0.324206 273.122 0.142377 272.415C-0.096298 271.486 0.0372383 270.458 0.0372383 269.472C0.0375996 207.878 -0.0344151 146.283 0.110286 84.6902C0.138012 72.9846 3.13668 61.7946 8.01226 51.1192C13.0415 40.1065 20.1125 30.607 29.0329 22.4768C33.3865 18.5086 38.1774 15.0736 43.2449 12.0913C52.4919 6.64999 62.5161 3.08075 73.0315 1.23185C79.7832 0.0444154 86.7155 -0.296254 93.5918 0.260766C105.244 1.20484 116.423 4.07884 126.815 9.51251C133.523 13.0199 139.753 17.2351 145.456 22.3213C149.96 26.3396 154.003 30.6959 157.574 35.5009C164.232 44.4582 168.977 54.335 171.894 65.1497C173.885 72.5275 174.422 79.9657 174.413 87.5594C174.344 148.026 174.374 208.492 174.374 268.958V273.791C172.686 274.504 172.024 273.613 171.86 272.692C171.615 271.323 171.724 269.885 171.724 268.478C171.72 207.73 171.84 146.981 171.634 86.2328C171.583 71.1817 167.39 57.098 159.544 44.0615C154.388 35.4945 147.77 28.2594 140.274 21.9299C131.45 14.4785 121.126 9.45162 109.973 6.32454C106.907 5.46503 103.713 5.04637 100.565 4.50156C97.2788 3.93302 93.9848 3.39113 90.6776 2.96806C89.1497 2.77259 87.5635 2.71494 86.0364 2.88705C72.9652 4.36041 59.9957 6.26977 48.3219 12.9673C42.7345 16.1729 37.4172 19.6734 32.436 23.8793C26.6673 28.7491 21.9634 34.365 17.6975 40.4428C11.6002 49.1297 7.48293 58.7137 5.25164 69.0934C4.04399 74.7087 3.4337 80.3741 3.43833 86.1443C3.4873 147.033 3.47541 207.922 3.43261 268.811C3.43158 270.647 4.29963 272.842 1.57474 274.511Z" fill="#E5951A"/>
<path d="M16.2161 275C14.787 274.019 13.88 273.731 13.7008 273.199C13.4007 272.304 13.5364 271.254 13.5364 270.27C13.5349 207.535 13.5106 144.8 13.5895 82.0642C13.5968 76.3442 15.1056 70.8374 16.7389 65.3091C18.7174 58.6134 21.7547 52.515 25.4993 46.781C30.8315 38.6162 37.6495 31.8431 45.7948 26.3576C52.8164 21.6289 60.3475 18.1929 68.4744 15.9123C77.3881 13.4113 86.5201 13.1596 95.5865 13.9118C102.93 14.521 110.06 16.5491 116.918 19.5902C122.857 22.224 128.515 25.3465 133.432 29.4242C140.905 35.6229 147.509 42.7511 152.187 51.4229C155.123 56.8635 157.657 62.4973 159.117 68.5071C160.364 73.6365 161.669 78.7887 161.67 84.1408C161.671 146.03 161.683 207.919 161.668 269.809C161.668 271.401 162.268 273.301 160.072 274.226C158.775 273.992 158.277 273.098 158.259 271.841C158.241 270.573 158.247 269.303 158.247 268.034C158.233 206.004 158.225 143.974 158.199 81.9441C158.196 76.1488 156.504 70.6758 154.78 65.222C152.695 58.6229 149.538 52.5468 145.569 46.9063C139.084 37.6904 130.834 30.4763 120.907 25.0884C114.075 21.3798 106.808 18.9154 99.2632 17.463C94.6279 16.5707 89.7551 16.1761 85.0557 16.5048C74.2726 17.2584 63.8339 19.7404 54.1865 24.8518C49.3499 27.4147 45.0412 30.6952 40.8093 34.2144C32.7405 40.923 27.1341 49.3368 22.6182 58.5676C20.1656 63.5813 18.9813 69.0388 17.7108 74.5058C15.7021 83.1497 16.2574 91.8164 16.2485 100.485C16.1859 156.594 16.2161 212.703 16.2161 268.812L16.2161 275Z" fill="#E5951A"/>
<path d="M147.268 274.47C146.649 273.725 145.794 273.133 145.622 272.385C145.344 271.177 145.502 269.865 145.502 268.596C145.5 208.682 145.543 148.766 145.461 88.8513C145.446 77.6096 142.579 67.1288 136.58 57.415C128.149 43.7621 116.006 35.4923 100.705 31.6811C96.2818 30.5793 91.6052 30.011 87.051 30.0481C81.9342 30.0899 76.8328 30.8989 71.7993 32.2751C64.819 34.1834 58.5186 37.2846 52.8303 41.642C47.1132 46.0207 42.2633 51.2128 38.3197 57.3037C33.6741 64.4801 31.5348 72.5016 29.8595 80.7008C29.4989 82.4654 29.7208 84.3546 29.7201 86.1864C29.7135 146.948 29.712 207.708 29.7098 268.469C29.7098 269.597 29.8477 270.75 29.6559 271.845C29.504 272.712 28.9451 273.508 28.5985 274.268C26.8531 274.045 26.3273 273.173 26.2905 271.906C26.2668 271.06 26.2779 270.214 26.2779 269.368C26.2787 208.607 26.3001 147.846 26.2514 87.0853C26.2455 80.2665 27.9835 73.8112 29.9745 67.4445C32.6078 59.0219 37.5351 51.7916 43.4793 45.4042C47.0816 41.5344 51.5259 38.4991 56.0447 35.6348C62.7765 31.3667 70.2721 29.2045 77.8917 27.473C80.9947 26.768 84.3167 26.7471 87.5251 26.8468C94.2223 27.0542 100.888 27.81 107.226 30.1385C116.007 33.3643 123.878 38.0058 130.567 44.7258C137.764 51.9568 142.875 60.3411 145.762 70.0504C147.146 74.7072 148.257 79.4015 148.248 84.4129C148.144 146.302 148.187 208.19 148.165 270.08C148.165 271.426 148.637 272.899 147.268 274.47Z" fill="#E5951A"/>
<path d="M40.4539 274.627C40.1279 273.686 39.8536 273.205 39.8116 272.706C39.7283 271.725 39.7673 270.734 39.7673 269.747C39.7667 208.709 39.7954 147.67 39.7416 86.6302C39.732 75.9615 43.5377 66.811 49.7046 58.3219C55.4475 50.4156 63.3495 45.5879 72.1585 42.1538C75.5964 40.8139 79.4648 40.2993 83.1828 40.0282C88.3468 39.6516 93.6221 39.5288 98.6623 40.9303C104.058 42.4317 109.259 44.5665 113.951 47.7189C115.92 49.0425 117.931 50.3736 119.633 52.0047C121.848 54.1269 123.928 56.4335 125.792 58.8699C130.101 64.5051 132.974 70.8734 134.399 77.8101C135.041 80.9382 135.413 84.1812 135.416 87.372C135.474 148.13 135.464 208.887 135.438 269.643C135.437 271.322 136.15 273.42 133.668 274.224C132.41 273.236 132.007 271.967 132.025 270.502C132.039 269.375 132.026 268.247 132.026 267.119C132.025 207.49 131.985 147.861 132.076 88.2319C132.087 80.6329 130.474 73.5281 127.125 66.8184C124.129 60.8145 119.567 56.0206 114.323 51.9302C108.122 47.0937 100.963 44.6454 93.218 43.3373C80.9182 41.2593 70.3372 45.197 60.5297 51.987C52.3984 57.6179 47.5765 65.7543 44.4735 74.9417C43.6829 77.2822 43.3725 79.8616 43.2921 82.3452C43.1705 86.0882 43.1262 89.8409 43.1594 93.5928C43.183 96.2821 42.0371 99.1772 42.717 101.616C43.5392 104.567 42.2259 107.289 42.9699 110.204C43.54 112.433 42.7531 115.009 42.8896 117.485C43.0591 120.556 42.728 123.662 43.0252 126.75C43.0658 127.166 43.2855 127.625 43.1727 127.987C41.7842 132.462 44.5952 137.134 42.5193 141.567C44.2287 144.287 42.1448 147.183 42.9751 150.11C43.5576 152.163 42.8873 154.652 42.978 156.989C43.107 160.328 42.8423 163.68 43.0503 167.057C43.1904 169.323 42.8778 171.637 42.9743 173.97C43.1122 177.315 43.3784 180.793 42.9677 184.013C42.3675 188.724 44.5347 193.448 42.5422 198.033C44.0273 200.777 41.8778 203.758 43.0938 206.541C43.3017 207.016 43.3585 207.783 43.113 208.19C42.1086 209.857 43.1255 211.456 43.0392 213.026C42.9485 214.663 42.8084 216.166 43.0245 217.87C43.3762 220.647 43.1152 223.586 42.5924 226.359C42.2472 228.186 43.3511 229.665 42.8261 231.658C42.1367 234.274 42.8903 237.271 43.0289 240.104C43.0363 240.239 43.1616 240.388 43.1307 240.503C41.8948 245.132 44.3437 249.868 42.6772 254.538C42.3129 255.558 43.1963 256.959 43.155 258.172C43.0591 261.008 42.4449 263.858 42.6292 266.663C42.7664 268.74 43.2309 270.77 42.3283 272.726C42.029 273.373 41.2798 273.813 40.4539 274.627Z" fill="#E5951A"/>
<path d="M66.9959 274.195C66.6257 273.459 66.1655 272.891 66.066 272.266C65.9111 271.303 65.993 270.3 65.993 269.314C65.9915 208.995 66.0048 148.676 65.976 88.3573C65.9723 79.9929 69.8496 73.9189 76.6913 69.5475C83.0705 65.4719 94.4973 66.2927 100.094 70.8675C106.182 75.845 109.214 82.0061 109.217 89.7282C109.237 149.483 109.235 209.238 109.194 268.993C109.193 270.799 110.079 273.035 107.294 274.403C106.802 273.667 106.046 272.988 105.885 272.191C105.639 270.969 105.794 269.666 105.794 268.398C105.793 208.502 105.777 148.606 105.819 88.7105C105.822 83.3555 103.89 79.004 100.257 75.154C91.6745 66.0574 75.9819 69.6235 71.0656 79.7326C69.6852 82.5716 69.4382 85.3332 69.4382 88.2791C69.4337 131.545 69.4352 174.811 69.4352 218.077C69.4352 234.988 69.436 251.9 69.4337 268.812C69.433 270.762 69.7906 272.853 66.9959 274.195Z" fill="#E5951A"/>
<path d="M120.368 274.153C120.011 273.462 119.442 272.794 119.339 272.061C119.164 270.816 119.279 269.53 119.279 268.262C119.278 208.628 119.295 148.996 119.263 89.3631C119.257 78.274 114.653 69.2364 105.833 62.706C100.373 58.6614 94.0084 56.733 86.9581 56.8783C78.5045 57.0516 71.2654 60.0137 65.4296 65.8016C59.3983 71.7833 55.9451 79.1891 55.9466 87.9377C55.9569 148.134 55.9517 208.331 55.9503 268.527C55.9503 269.655 56.0963 270.811 55.8912 271.901C55.7312 272.753 55.1332 273.523 54.6568 274.474C53.0404 273.622 52.7064 272.415 52.5501 271.185C52.4269 270.213 52.5162 269.214 52.5162 268.228C52.5162 209.159 52.4844 150.09 52.5589 91.0214C52.5678 84.2868 53.5279 77.6258 56.9723 71.6167C62.1238 62.6277 69.7979 56.8252 79.8252 54.4795C86.2922 52.967 92.8322 53.5386 99.1636 55.6955C105.132 57.7277 109.889 61.3742 114.018 66.1541C117.905 70.6552 120.261 75.7477 121.431 81.4515C121.849 83.4875 121.941 85.6193 121.943 87.7083C121.971 133.807 121.965 179.906 121.965 226.005C121.966 240.666 121.979 255.328 121.944 269.989C121.941 271.437 122.549 273.19 120.368 274.153Z" fill="#E5951A"/>
</svg>
