<svg width="45" height="29" viewBox="0 0 45 29" fill="none" xmlns="http://www.w3.org/2000/svg">
<path d="M12.886 0.700012C14.164 0.700012 15.346 0.800012 16.426 1.09601C17.508 1.29401 18.394 1.69001 19.18 2.18401C19.968 2.67868 20.558 3.37135 20.95 4.26201C21.344 5.15201 21.542 6.24201 21.542 7.42801C21.542 8.81401 21.246 10 20.558 10.89C19.968 11.782 18.984 12.572 17.804 13.166C19.476 13.662 20.754 14.552 21.542 15.738C22.33 16.924 22.82 18.41 22.82 20.092C22.82 21.478 22.524 22.664 22.032 23.654C21.542 24.644 20.754 25.534 19.868 26.128C18.9052 26.764 17.8414 27.2319 16.722 27.512C15.542 27.81 14.362 28.008 13.182 28.008H0V0.700012H12.886ZM12.098 11.78C13.18 11.78 14.066 11.484 14.754 10.99C15.442 10.496 15.738 9.60401 15.738 8.51601C15.738 7.92201 15.638 7.32801 15.442 6.93401C15.246 6.54001 14.95 6.24001 14.558 5.94401C14.1572 5.7189 13.7261 5.55254 13.278 5.45001C12.786 5.35001 12.296 5.35001 11.704 5.35001H6V11.782L12.098 11.78ZM12.394 23.456C12.984 23.456 13.574 23.356 14.066 23.258C14.558 23.158 15.05 22.962 15.442 22.664C15.8412 22.3727 16.1762 22.0024 16.426 21.576C16.622 21.082 16.82 20.488 16.82 19.796C16.82 18.41 16.426 17.42 15.64 16.728C14.852 16.134 13.77 15.838 12.492 15.838H6V23.458L12.394 23.456ZM31.378 23.356C32.1647 24.148 33.3447 24.544 34.918 24.544C36 24.544 36.984 24.248 37.77 23.754C38.558 23.1593 39.05 22.5653 39.246 21.972H44.066C43.278 24.346 42.098 26.028 40.526 27.116C38.95 28.106 37.082 28.7 34.82 28.7C33.3729 28.7022 31.9383 28.4335 30.59 27.908C29.3763 27.4553 28.2944 26.7075 27.442 25.732C26.5266 24.8227 25.8511 23.7005 25.476 22.466C24.984 21.18 24.786 19.796 24.786 18.212C24.786 16.728 24.984 15.344 25.476 14.056C25.9479 12.8152 26.6488 11.6741 27.542 10.692C28.426 9.80201 29.508 9.01201 30.688 8.51601C32.0015 7.98862 33.4045 7.7197 34.82 7.72401C36.492 7.72401 37.968 8.02201 39.246 8.71401C40.526 9.40601 41.508 10.198 42.294 11.386C43.082 12.474 43.674 13.76 44.066 15.146C44.262 16.53 44.36 17.916 44.262 19.498H30C30 21.082 30.59 22.566 31.378 23.358M37.574 12.97C36.886 12.278 35.804 11.882 34.524 11.882C33.7735 11.8708 33.0313 12.0402 32.36 12.376C31.77 12.674 31.378 13.07 30.984 13.466C30.6197 13.8469 30.3797 14.3296 30.296 14.85C30.196 15.346 30.098 15.74 30.098 16.136H38.95C38.754 14.652 38.262 13.664 37.574 12.97ZM28.918 2.58001H39.934V5.25201H28.92L28.918 2.58001Z" fill="black"/>
</svg>
