<svg width="48" height="48" viewBox="0 0 48 48" fill="none" xmlns="http://www.w3.org/2000/svg">
<path d="M44 24C44.0033 26.6343 43.4845 29.2431 42.4738 31.6758C41.463 34.1085 39.9802 36.3167 38.111 38.173C36.257 40.0236 34.0565 41.4907 31.6353 42.4905C29.214 43.4903 26.6196 44.0032 24 44C12.954 44 4.00002 35.046 4.00002 24C3.99282 18.8717 5.96271 13.9381 9.50002 10.225C11.3663 8.25548 13.6148 6.68753 16.108 5.61715C18.6013 4.54678 21.2867 3.99651 24 4.00002C26.6196 3.99679 29.214 4.50974 31.6353 5.50956C34.0565 6.50938 36.257 7.97647 38.111 9.82702C39.9802 11.6833 41.463 13.8916 42.4738 16.3242C43.4845 18.7569 44.0033 21.3657 44 24Z" stroke="black" stroke-width="2" stroke-linecap="round" stroke-linejoin="round"/>
<path d="M44.0003 24C41.0823 24 33.0323 22.9 25.8273 26.063C18.0003 29.5 12.3333 34.832 9.86328 38.147" stroke="black" stroke-width="2" stroke-linecap="round" stroke-linejoin="round"/>
<path d="M16.5 5.45404C19.63 8.34304 26.46 15.698 29 23C31.54 30.302 32.48 39.28 33.06 41.835" stroke="black" stroke-width="2" stroke-linecap="round" stroke-linejoin="round"/>
<path d="M4.1543 21.5C7.9323 21.728 17.9333 21.933 24.3333 19.2C30.7333 16.467 36.2403 11.44 38.1293 9.84503M5.5003 31.613C7.26289 35.8787 10.4412 39.407 14.5003 41.604" stroke="black" stroke-width="2" stroke-linecap="round" stroke-linejoin="round"/>
<path d="M4.00002 24C3.99282 18.8717 5.96271 13.9381 9.50002 10.225C11.3663 8.25548 13.6148 6.68753 16.108 5.61715C18.6013 4.54678 21.2867 3.99651 24 4.00002M32 5.66402C34.2781 6.6598 36.3505 8.07159 38.111 9.82702C39.9802 11.6833 41.463 13.8916 42.4738 16.3242C43.4845 18.7569 44.0033 21.3657 44 24C44 26.462 43.555 28.821 42.74 31M24 44C26.6196 44.0032 29.214 43.4903 31.6353 42.4905C34.0565 41.4907 36.257 40.0236 38.111 38.173" stroke="black" stroke-width="2" stroke-linecap="round" stroke-linejoin="round"/>
</svg>
