<svg width="140" height="142" viewBox="0 0 140 142" fill="none" xmlns="http://www.w3.org/2000/svg">
<path d="M129.136 104.365C126.991 108.913 124.514 112.849 121.577 116.616C117.957 121.252 113.701 125.112 109.03 128.52C104.499 131.828 99.683 134.723 94.3161 136.55C91.7931 137.403 89.3403 138.466 86.7945 139.23C83.1199 140.335 79.3337 140.867 75.5212 141.338C71.9703 141.775 68.4447 141.688 64.9199 141.55C58.839 141.311 52.8792 140.177 47.1033 138.295C41.8377 136.58 36.9318 133.986 32.2426 131.098C26.227 127.396 21.0016 122.719 16.4782 117.231C12.3353 112.204 9.07686 106.663 6.24953 100.831C6.07806 100.478 5.97674 100.087 5.87193 99.7063C4.85792 96.0116 3.15489 92.5288 2.49887 88.726C1.8981 85.242 1.08872 81.7686 0.836761 78.2556C0.372502 71.7656 0.782127 65.2815 2.25129 58.9122C2.84346 56.3449 3.5662 53.7974 4.40867 51.3011C5.60438 47.7589 6.89667 44.2409 9.05802 41.1897C9.22496 41.1407 9.31831 41.1003 9.41518 41.0876C9.50829 41.0752 9.62188 41.0596 9.6977 41.0998C48.9306 61.836 88.1614 82.5771 127.39 103.322C127.902 103.593 128.39 103.918 129.136 104.365Z" fill="#6699F2"/>
<path d="M129.962 98.4878C132.761 94.5838 135.951 85.3242 136.504 79.6181C133.785 83.8913 128.054 94.9973 127.449 97.1569L129.962 98.4878ZM125.265 96.0118C125.554 95.698 125.722 95.5782 125.809 95.4144C129.482 88.5136 133.196 81.6336 136.758 74.6762C137.398 73.4248 137.632 71.8552 137.663 70.4268C137.718 67.684 137.591 64.9288 137.355 62.1949C137.151 59.7958 136.691 57.4171 136.272 54.5521L116.712 91.4818L125.265 96.0118ZM114.322 90.1954C114.607 89.8341 114.825 89.6315 114.957 89.3824C121.465 77.1177 127.954 64.8433 134.48 52.5879C134.989 51.6395 135.103 50.7943 134.748 49.7736C134.041 47.718 133.508 45.5989 132.759 43.5549C132.201 42.024 131.425 40.5729 130.585 38.7348L105.737 85.6484L114.322 90.1954ZM103.41 84.4197L129.078 35.9585C128.118 34.4123 127.231 32.886 126.248 31.4259C125.221 29.8999 124.101 28.4372 122.863 26.7289L94.7394 79.827L103.41 84.4197ZM103.802 10.8147C101.029 15.0191 74.0164 66.3942 73.3906 68.6694C74.7425 69.3854 76.1067 70.1655 77.5209 70.8412C78.9928 71.545 80.3011 72.6503 81.9334 72.8899L111.901 16.3101C109.313 14.3642 106.919 12.261 103.802 10.8147ZM92.9943 78.5368L121.197 25.2888C119.116 22.2285 116.635 19.6885 113.472 17.5774C103.9 35.6491 94.339 53.6995 84.7817 71.7518C84.4574 72.3642 84.1677 72.9949 83.8743 73.623C83.8386 73.6981 83.874 73.8102 83.8897 73.9031C83.9051 74 83.9358 74.0944 83.974 74.2432C86.5709 75.6187 89.1854 77.0128 91.8137 78.3809C92.0528 78.5051 92.3786 78.4621 92.9943 78.5368ZM101.437 9.51502C90.4423 3.95141 79.0466 1.641 67.0945 2.4863C51.672 3.57668 38.2447 9.58975 26.624 19.8071C22.3142 23.5964 14.4955 33.8728 13.7579 36.9134L70.8961 67.1767L101.437 9.51502ZM10.8314 37.5254C12.4698 34.895 13.5568 32.3202 15.3136 29.9909C17.4381 27.1738 19.5432 24.3601 21.8945 21.729C25.2569 17.9653 29.1504 14.8019 33.3509 12.0771C36.5561 9.99873 39.9589 8.19354 43.3935 6.51383C47.3507 4.5788 51.5159 3.23386 55.8348 2.20758C59.6938 1.29069 63.5571 0.657395 67.4737 0.528709C71.3859 0.400617 75.3174 0.576378 79.2263 0.824511C82.4395 1.02852 85.6416 1.45918 88.7114 2.5614C90.8177 3.31768 92.93 4.08372 95.0891 4.66202C98.9534 5.69692 102.301 7.80152 105.736 9.69248C112.296 13.3026 117.957 17.9988 122.882 23.7061C126.765 28.2064 129.953 33.0917 132.572 38.3746C135.201 43.6825 137.049 49.263 138.236 55.1069C139.339 60.5472 139.827 66.0097 139.568 71.5259C139.253 78.2055 138.252 84.7792 135.667 91.0288C135.107 92.3843 134.732 93.8219 134.108 95.1441C133.177 97.1008 132.096 98.9865 131.18 100.717C130.818 100.836 130.725 100.88 130.63 100.893C130.537 100.904 130.428 100.911 130.35 100.87C91.1402 80.1385 51.9341 59.4048 12.7305 38.6664C12.214 38.3934 11.7262 38.0651 10.8314 37.5254Z" fill="#6699F2"/>
</svg>
