<svg width="314" height="325" viewBox="0 0 314 325" fill="none" xmlns="http://www.w3.org/2000/svg">
<path d="M124.206 109.55H64.3276C65.6212 105.222 68.875 102.698 71.0313 99.1401H131.321C132.829 97.1614 134.203 95.3612 135.84 93.2145C136.646 94.2267 137.387 94.842 137.718 95.6291C138.979 98.6297 141.306 99.1682 144.288 99.1526C162.15 99.0605 180.012 99.107 197.876 99.107H203.738C205.989 102.37 208.124 105.459 210.162 108.403C209.696 109.007 209.599 109.17 209.463 109.29C209.327 109.414 209.163 109.529 208.988 109.587C208.813 109.649 208.609 109.655 208.415 109.655C188.24 109.658 168.059 109.658 147.241 109.658C150.354 114.214 153.168 118.33 156 122.474H219.546C221.836 125.658 224.059 128.736 226.727 132.447C224.835 132.681 223.447 133 222.06 133.002C204.582 133.036 187.104 133.025 169.634 133.025H163.11C166.184 137.504 168.848 141.389 171.689 145.529C173.093 145.614 174.602 145.785 176.111 145.787C194.363 145.806 212.617 145.87 230.862 145.738C234.316 145.712 236.762 146.418 238.286 149.83C239.246 151.991 240.954 153.824 242.759 156.435H179.124C182.392 161.387 185.193 165.633 188.114 170.058H252.415C253.434 173.851 257.199 175.966 257.859 179.762C257.471 180.118 257.335 180.263 257.18 180.375C257.034 180.483 256.86 180.633 256.695 180.633C236.713 180.644 216.732 180.643 196.071 180.643C198.061 185.077 200.759 188.428 203.233 191.869C203.874 192.773 205.456 193.275 206.678 193.44C208.58 193.697 210.55 193.508 212.491 193.508C229.581 193.508 246.66 193.575 263.75 193.448C267.01 193.425 269.272 194.232 270.727 197.312C271.678 199.329 273.115 201.117 274.648 203.493C268.835 204.663 263.653 203.939 258.519 204.074C253.473 204.207 248.427 204.104 243.371 204.104H212.084C214.112 209.647 218.061 213.158 220.633 217.528C223.253 221.975 226.194 226.235 229.095 230.509C231.958 234.73 234.957 238.863 238.237 243.514H33.5782C38.1519 236.504 42.2674 229.992 46.5917 223.623C50.8888 217.295 55.3955 211.11 60.3311 204.127H0C2.28731 200.261 4.19426 197.034 6.23606 193.582H67.3659C70.2083 189.355 72.8723 185.395 75.802 181.039C74.1843 180.931 72.7751 180.754 71.3661 180.752C55.0569 180.733 38.7478 180.759 22.4385 180.712C20.5947 180.707 18.484 181.431 16.7391 178.951C18.5577 176.194 20.5007 173.25 22.4464 170.302H83.1288C86.2391 165.67 89.1806 161.292 92.5702 156.244H32.2671C34.7484 152.397 36.7633 149.278 38.8933 145.975H99.6078C102.309 141.946 104.935 138.028 107.884 133.627C102.635 132.491 97.8639 133.179 93.1533 133.054C88.3031 132.925 83.4461 133.025 78.5929 133.025H49.1616C49.7264 129.822 51.1723 127.634 52.6396 125.502C54.1535 123.303 56.1728 122.378 59.0366 122.401C76.3152 122.545 93.596 122.398 110.876 122.536C114.345 122.565 116.665 121.767 118.274 118.412C119.663 115.516 121.847 113.004 124.206 109.55Z" fill="#6E90C5"/>
<path d="M80.556 84.8106C82.6619 81.8158 84.4942 79.1336 86.4128 76.5143C87.3813 75.1906 88.7193 74.4959 90.4429 74.7249C91.0144 74.8006 91.6056 74.7365 92.1878 74.7365C123.234 74.7374 154.281 74.7365 185.329 74.7413C185.901 74.7423 186.483 74.8005 187.463 74.8558C189.463 77.7865 191.588 80.9036 194.053 84.5165C192.879 84.8524 192.073 85.2773 191.277 85.2783C154.99 85.3045 118.705 85.2929 82.4194 85.2724C82.0536 85.2724 81.6876 85.0988 80.556 84.8106Z" fill="#6E90C5"/>
<path d="M96.3287 61.6744C98.8955 57.8121 100.881 54.823 103.002 51.6303C104.482 51.5565 105.995 51.4168 107.509 51.4159C127.064 51.4003 146.622 51.5003 166.176 51.3256C170.079 51.2906 172.771 52.1204 174.516 55.8858C175.359 57.7063 177.046 59.1425 177.365 61.6744H96.3287Z" fill="#6E90C5"/>
<path d="M113.074 38.6197C113.432 36.9981 113.382 35.9414 113.862 35.2534C117.21 30.4503 121.896 28.0539 127.919 28.0643H155.381C157.534 31.0095 159.663 33.9229 162.122 37.2873C160.968 37.7386 159.844 38.5566 158.714 38.5634C143.788 38.6488 128.861 38.6197 113.074 38.6197Z" fill="#6E90C5"/>
<path d="M129.036 15.2991C130.763 9.12125 134.562 5.12585 137.281 0C140.506 5.06081 144.063 9.28902 146.201 15.2242C140.545 15.3863 135.398 15.2748 129.036 15.2991Z" fill="#6E90C5"/>
<path fill-rule="evenodd" clip-rule="evenodd" d="M265.844 45.0322L264.169 44.9752L264.122 46.4626C264.043 49.1386 264.079 52.0016 264.12 55.1226C264.148 57.2978 264.177 59.5987 264.169 62.0497L263.892 66.8886C263.899 71.397 263.931 77.6725 263.987 85.7145L264.169 108.608C262.938 109.015 262.014 110.078 261.828 111.37C260.813 111.525 260.034 112.386 260.034 113.424C260.034 114.158 260.425 114.803 261.013 115.174L260.297 116.904C259.979 117.673 259.454 118.331 258.779 118.806C255.82 120.887 254.079 124.257 254.12 127.822C254.121 127.917 254.123 128.011 254.127 128.105C254.14 128.448 254.433 128.71 254.782 128.702C255.131 128.689 255.404 128.401 255.391 128.059C255.388 127.976 255.385 127.892 255.384 127.808C255.348 124.647 257.451 121.657 260.075 119.811C260.944 119.2 261.619 118.355 262.027 117.369L262.241 115.502H263.14C263.14 115.502 263.452 117.183 263.452 118.497C263.452 119.811 263.14 122.413 263.14 122.413H262.104C260.918 122.413 259.952 123.359 259.952 124.521C259.952 125.683 260.918 126.629 262.104 126.629H262.253C263.439 126.629 263.846 126.022 263.846 124.521C263.846 123.735 263.933 123.174 265.215 123.174C266.497 123.174 266.167 124.521 266.167 124.521C266.167 125.683 267.132 126.629 268.319 126.629H268.467C269.654 126.629 270.62 125.683 270.62 124.521C270.62 123.359 268.618 122.376 267.432 122.376C267.432 122.376 267.116 120.011 267.116 118.806C267.116 117.79 267.432 115.713 267.432 115.713H266.167C266.167 115.713 266.43 117.652 266.43 118.834C266.43 120.017 266.167 122.376 266.167 122.376C266.167 122.376 265.47 122.501 265.137 122.509C264.805 122.515 264.404 122.413 264.404 122.413C264.404 122.413 264.127 119.995 264.127 118.834C264.127 117.674 264.404 115.502 264.404 115.502H266.167H267.432H268.33L269.103 117.369C269.491 118.307 270.652 119.13 271.537 119.758L271.65 119.837C274.215 121.659 275.188 124.597 275.188 127.695C275.188 130.313 274.139 132.767 272.236 134.604C270.333 136.442 267.813 137.991 265.137 137.952C263.016 137.922 260.847 136.753 259.152 135.486C257.51 134.26 255.384 130.904 255.03 130.13C254.676 129.355 254.51 130.577 254.613 130.904C255.294 133.064 256.688 135.014 258.537 136.396C260.449 137.825 262.725 138.598 265.119 138.632C268.136 138.675 270.977 137.558 273.124 135.486C275.27 133.414 276.452 130.647 276.452 127.695C276.452 124.201 274.725 120.888 271.833 118.834C271.129 118.334 270.59 117.667 270.274 116.904L269.559 115.174C270.147 114.804 270.537 114.158 270.537 113.424C270.537 112.387 269.758 111.525 268.743 111.37C268.534 109.913 267.385 108.748 265.918 108.484H265.837L264.867 87.1957C264.809 79.0923 265.567 62.8955 265.567 62.8955C265.581 56.6669 265.657 51.206 265.797 46.5139L265.844 45.0322ZM268.319 125.391C267.83 125.391 267.432 125 267.432 124.521V123.174C267.432 123.174 269.355 123.559 269.355 124.521C269.355 125.404 269.02 125.399 268.587 125.392H268.586C268.547 125.391 268.507 125.391 268.467 125.391H268.319ZM260.733 124.521C260.814 125.732 263.326 126.26 263.14 124.521V123.174C263.14 123.174 260.651 123.31 260.733 124.521ZM263.117 111.345C263.35 110.383 264.234 109.666 265.286 109.666C266.338 109.666 267.222 110.384 267.454 111.345H263.117ZM268.416 112.584H268.146H262.426H262.156C261.683 112.584 261.298 112.96 261.298 113.424C261.298 113.887 261.683 114.263 262.156 114.263H268.416C268.889 114.263 269.273 113.887 269.273 113.424C269.273 112.96 268.889 112.584 268.416 112.584ZM279.249 117.976H280.354C280.666 117.976 280.919 117.726 280.919 117.417C280.919 117.109 280.666 116.859 280.354 116.859H279.249C278.938 116.859 278.686 117.109 278.686 117.417C278.686 117.726 278.938 117.976 279.249 117.976ZM278.371 121.928L279.435 122.376C279.735 122.502 279.88 122.859 279.76 123.174C279.64 123.488 279.299 123.64 278.999 123.515L277.936 123.067C277.636 122.941 277.491 122.584 277.611 122.269C277.702 122.03 277.922 121.884 278.154 121.884C278.227 121.884 278.3 121.898 278.371 121.928ZM277.423 112.824L278.419 112.024C278.7 111.799 278.77 111.352 278.576 111.026C278.455 110.825 278.262 110.718 278.066 110.718C277.945 110.718 277.822 110.759 277.715 110.845L276.719 111.644C276.438 111.869 276.367 112.316 276.562 112.642C276.757 112.968 277.142 113.049 277.423 112.824ZM250.764 117.976H249.659C249.347 117.976 249.095 117.726 249.095 117.417C249.095 117.109 249.347 116.859 249.659 116.859H250.764C251.075 116.859 251.328 117.109 251.328 117.417C251.328 117.726 251.075 117.976 250.764 117.976ZM251.642 121.928L250.578 122.376C250.279 122.502 250.133 122.859 250.253 123.174C250.374 123.488 250.714 123.64 251.014 123.515L252.077 123.067C252.377 122.941 252.522 122.584 252.402 122.269C252.311 122.03 252.091 121.884 251.86 121.884C251.787 121.884 251.713 121.898 251.642 121.928ZM252.59 112.824L251.594 112.024C251.313 111.799 251.243 111.352 251.438 111.026C251.558 110.825 251.751 110.718 251.947 110.718C252.068 110.718 252.191 110.759 252.298 110.845L253.294 111.644C253.575 111.869 253.646 112.316 253.451 112.642C253.257 112.967 252.872 113.049 252.59 112.824Z" fill="#FFB61D"/>
<path d="M183.365 200.932C189.523 202.553 192.683 206.41 195.352 210.003C198.026 213.595 192.147 211.886 188.904 210.589C185.66 209.293 177.849 204.498 177.849 204.498L151.954 196.665V184.688L159.698 184.236C159.698 184.236 177.201 199.311 183.365 200.932Z" fill="white"/>
<path d="M156.532 113.214C162.071 134.176 164.93 154.232 165.382 173.473C165.382 173.473 170.569 174.121 169.921 178.659C169.273 183.198 155.656 195.516 155.656 195.516L150.938 179.878L149.174 122.253L156.532 113.214Z" fill="white"/>
<path fill-rule="evenodd" clip-rule="evenodd" d="M158.422 123.941L155.242 121.831C155.039 121.697 154.771 121.802 154.697 122.044L153.589 125.727C153.496 126.034 153.772 126.321 154.058 126.217L158.347 124.643C158.64 124.536 158.684 124.115 158.422 123.941ZM158.037 124.55L154.128 125.68L155.292 122.33L158.037 124.55Z" fill="#FFB61D"/>
<path fill-rule="evenodd" clip-rule="evenodd" d="M157.026 150.461L153.846 148.351C153.643 148.217 153.375 148.322 153.302 148.564L152.193 152.247C152.1 152.554 152.376 152.841 152.663 152.737L156.952 151.163C157.244 151.056 157.289 150.635 157.026 150.461ZM156.641 151.07L152.733 152.2L153.897 148.851L156.641 151.07Z" fill="#FFB61D"/>
<path fill-rule="evenodd" clip-rule="evenodd" d="M155.355 165.36L155.592 161.551C155.607 161.308 155.382 161.128 155.136 161.186L151.391 162.067C151.08 162.141 150.969 162.523 151.202 162.719L154.71 165.647C154.949 165.846 155.336 165.674 155.355 165.36ZM154.635 165.331L151.702 162.512L155.185 161.844L154.635 165.331Z" fill="#FFB61D"/>
<path fill-rule="evenodd" clip-rule="evenodd" d="M161.382 162.551L157.573 162.314C157.33 162.299 157.15 162.524 157.208 162.771L158.089 166.515C158.163 166.827 158.545 166.937 158.741 166.704L161.669 163.196C161.868 162.957 161.697 162.571 161.382 162.551ZM161.353 163.271L158.534 166.204L157.866 162.721L161.353 163.271Z" fill="#FFB61D"/>
<path fill-rule="evenodd" clip-rule="evenodd" d="M158.441 181.967L155.024 183.666C154.806 183.775 154.763 184.059 154.936 184.244L157.572 187.046C157.791 187.279 158.178 187.184 158.23 186.884L159.012 182.382C159.065 182.076 158.723 181.827 158.441 181.967ZM158.776 182.605L157.801 186.554L155.481 183.872L158.776 182.605Z" fill="#FFB61D"/>
<path fill-rule="evenodd" clip-rule="evenodd" d="M160.116 171.359L156.699 173.058C156.481 173.166 156.438 173.451 156.611 173.635L159.246 176.438C159.466 176.671 159.853 176.576 159.905 176.276L160.686 171.774C160.74 171.468 160.398 171.219 160.116 171.359ZM160.451 171.997L159.475 175.946L157.156 173.264L160.451 171.997Z" fill="#FFB61D"/>
<path d="M137.964 125.819L134.207 137.162C125.619 163.14 121.389 176.326 121.263 177.562C121.183 178.33 121.649 178.904 122.368 179.099C122.799 179.216 123.327 179.21 123.982 179.113C125.002 178.962 126.366 178.579 128.012 178.01C129.285 177.571 130.66 177.043 132.053 176.473L132.639 176.231C132.829 176.152 133.015 176.074 133.194 175.998L134.125 175.597L134.39 175.48L134.545 175.233C134.82 174.797 135.211 174.024 135.596 172.964C135.935 172.034 136.205 171.037 136.383 169.984L136.445 169.586C136.5 169.199 137.031 168.304 138.126 166.775L138.889 165.731C139.515 164.888 140.719 163.276 140.841 163.113L141.549 162.154C142.225 161.231 142.816 160.407 143.393 159.577C146.288 155.408 148.334 151.76 149.541 148.249C150.565 145.271 150.924 142.512 150.518 139.975C149.898 136.103 150.135 132.403 151.042 128.93C151.794 126.046 149.413 123.384 145.98 122.405C142.432 121.394 139.052 122.539 137.964 125.819Z" fill="white"/>
<path d="M144.252 109.045C146.345 111.266 148.1 112.959 149.52 114.125C151.91 116.09 155.337 118.196 159.799 120.443C146.149 123.604 137.813 124.229 134.793 122.318C134.793 122.318 136.051 116.398 137.858 113.863C139.204 111.974 144.252 109.045 144.252 109.045Z" fill="white"/>
<path d="M165.968 80.5071C163.132 91.2793 155.382 102.525 147.131 100.354C138.879 98.1812 134.312 83.4578 137.148 72.6857C139.984 61.9135 148.973 54.9418 157.225 57.1136C165.477 59.2855 168.804 69.7355 165.968 80.5071Z" fill="white"/>
<path d="M167.855 83.9428C164.645 96.2704 155.875 109.141 146.537 106.655C137.198 104.169 132.03 87.3195 135.239 74.9919C138.449 62.6637 148.622 54.6853 157.961 57.1709C167.299 59.6566 171.065 71.6157 167.855 83.9428Z" fill="white"/>
<path fill-rule="evenodd" clip-rule="evenodd" d="M152.951 58.5911C159.315 58.9523 163.959 61.0432 166.563 64.727L166.856 65.153C168.144 67.011 169.227 68.1807 169.7 71.6976L169.745 72.0716C170.016 74.3853 170.095 76.8263 169.956 77.6364C169.881 77.9786 169.734 78.0975 169.549 78.0618C169.128 77.9792 168.039 76.0441 166.282 72.2553L164.806 73.9816C164.004 74.909 162.302 75.7833 161.292 76.4399C160.284 77.097 152.951 58.5911 152.951 58.5911Z" fill="#E7EAEE"/>
<path fill-rule="evenodd" clip-rule="evenodd" d="M159.377 93.584C162.921 95.0618 165.613 96.9813 166.327 96.1829C167.04 95.3845 164.606 92.9536 162.715 89.6523C160.735 86.3689 158.855 82.2328 158.503 80.5506L157.603 76.2974C154.97 79.6205 152.505 90.7684 159.377 93.584Z" fill="white"/>
<path d="M200.575 296.594L200.383 308.419H193.657L191.642 294.851L200.575 296.594Z" fill="white"/>
<path d="M126.906 233.707C126.906 233.707 170.551 232.743 184.271 230.765C199.502 228.568 207.831 223.376 211.144 223.989C212.696 224.276 221.857 225.901 240.973 227.933C249.058 228.793 270.045 228.926 270.045 228.926L278.19 211.589C278.19 211.589 220.871 200.081 202.749 205.062C197.049 206.629 184.704 208.889 170.028 208.063C157.337 207.35 122.821 200.646 122.821 200.646C122.821 200.646 108.884 205.648 111.407 217.951C113.929 230.253 126.906 233.707 126.906 233.707Z" fill="white"/>
<path fill-rule="evenodd" clip-rule="evenodd" d="M273.52 219.007L276.203 211.238C276.203 211.238 218.98 200.564 200.858 205.545C195.158 207.112 190.007 209.695 175.33 208.87C169.712 208.553 160.105 207.238 146.511 204.925C139.635 203.754 138.53 204.188 143.935 207.722C156.468 215.918 184.347 213.986 209.641 210.293C256.653 203.429 273.52 219.007 273.52 219.007Z" fill="#E7EAEE"/>
<path d="M192.98 299.278C190.133 302.424 186.359 307.605 188.301 312.792L222.018 323.166C222.018 323.166 223.314 319.274 221.371 316.036C219.422 312.792 201.027 299.994 201.027 299.994L192.98 299.278Z" fill="white"/>
<path fill-rule="evenodd" clip-rule="evenodd" d="M208.543 306.306C208.767 306.246 208.997 306.377 209.057 306.601C209.117 306.824 208.985 307.054 208.762 307.114C207.664 307.412 206.94 308.106 206.686 308.985C206.357 310.12 206.321 311.282 206.695 313.142C206.74 313.369 206.593 313.589 206.366 313.635C206.14 313.68 205.919 313.533 205.873 313.307C205.474 311.318 205.514 310.02 205.882 308.751C206.218 307.588 207.166 306.679 208.543 306.306Z" fill="#E7EAEE"/>
<path fill-rule="evenodd" clip-rule="evenodd" d="M189.977 313.351L223.147 323.111C223.147 323.111 227.361 322.226 223.005 321.606C218.529 320.97 192.326 308.972 189.444 311.157C189.034 311.468 189.724 312.673 189.977 313.351Z" fill="#E7EAEE"/>
<path d="M107.325 231.235C107.325 231.235 122.293 235.959 134.346 237.73C146.399 239.501 170.44 240.509 170.44 240.509C170.44 240.509 177.946 244.589 178.43 246.479C178.619 247.215 179.756 256.94 182.901 269.364C184.38 275.208 192.285 301.636 192.285 301.636L202.748 297.005C202.748 297.005 202.328 248.43 195.649 232.319C188.97 216.208 120.318 200.56 120.318 200.56C120.318 200.56 105.748 197.925 101.781 209.84C97.8143 221.756 107.325 231.235 107.325 231.235Z" fill="white"/>
<path fill-rule="evenodd" clip-rule="evenodd" d="M193.96 299.959L204.423 295.327C204.143 262.944 201.776 241.382 197.324 230.642C197.324 230.642 201.874 287.82 193.96 299.959Z" fill="#E7EAEE"/>
<path d="M285.196 219.644C287.8 222.995 292.247 227.611 297.693 226.599L313.764 195.195C313.764 195.195 309.628 193.366 306.102 194.717C302.569 196.073 287.035 212.284 287.035 212.284L285.196 219.644Z" fill="white"/>
<path fill-rule="evenodd" clip-rule="evenodd" d="M215.393 311.882C215.56 311.722 215.825 311.728 215.985 311.895C216.145 312.062 216.139 312.327 215.972 312.487C214.999 313.419 214.819 314.981 215.377 315.924C215.495 316.123 215.429 316.38 215.23 316.498C215.031 316.615 214.774 316.55 214.656 316.351C213.904 315.08 214.133 313.089 215.393 311.882Z" fill="#E7EAEE"/>
<path fill-rule="evenodd" clip-rule="evenodd" d="M211.972 309.121C212.141 308.962 212.406 308.971 212.565 309.139C212.723 309.308 212.714 309.572 212.546 309.731L212.32 309.949C210.559 311.682 210.054 313.196 211.604 314.822C211.764 314.989 211.757 315.254 211.59 315.414C211.423 315.574 211.158 315.567 210.998 315.4C209.852 314.199 209.617 312.902 210.125 311.603C210.475 310.708 211.084 309.955 211.972 309.121Z" fill="#E7EAEE"/>
<path fill-rule="evenodd" clip-rule="evenodd" d="M195.856 308.571C196.817 310.409 201.921 309.654 201.033 304.573C200.612 302.169 193.194 303.482 195.856 308.571Z" fill="#E7EAEE"/>
<path fill-rule="evenodd" clip-rule="evenodd" d="M294.507 227.184C301.251 219.478 305.127 202.146 310.68 196.182C312.64 194.077 315.183 193.605 312.446 198.588C307.439 207.707 297.814 227.184 297.814 227.184C297.305 227.439 296.675 227.184 296.106 227.184H294.507Z" fill="#E7EAEE"/>
<path d="M183.365 200.931C189.523 202.552 192.683 206.409 195.352 210.002C198.026 213.594 192.147 211.885 188.903 210.588C185.659 209.292 179.454 204.371 179.454 204.371L183.365 200.931Z" fill="white"/>
<path d="M127.271 186.343C127.271 186.343 161.937 201.235 166.822 201.255C171.702 201.275 183.678 207.09 184.325 211.628C185.112 217.149 164.226 209.035 164.226 209.035C164.226 209.035 117.545 209.035 109.768 201.255C101.985 193.475 107.171 177.266 107.171 177.266L127.271 186.343Z" fill="white"/>
<path d="M118.84 116.971C118.84 116.971 127.271 122.158 128.566 139.015C129.861 155.872 124.675 175.97 124.675 175.97C124.675 175.97 127.918 178.564 128.566 181.157C129.214 183.751 127.243 187.174 127.243 187.174C127.243 187.174 107.82 196.718 106.523 197.366C105.227 198.014 100.04 196.069 100.04 190.882C100.04 185.696 101.985 181.157 101.985 181.157C102.916 146.941 97.4467 113.729 118.84 116.971Z" fill="white"/>
<path fill-rule="evenodd" clip-rule="evenodd" d="M153.182 81.1009C155.176 78.4305 159.391 77.5606 160.516 81.7765C160.516 81.7765 161.38 84.3202 159.638 85.8918C154.302 90.7068 151.187 83.7708 153.182 81.1009Z" fill="white"/>
<path fill-rule="evenodd" clip-rule="evenodd" d="M164.317 83.9982C166.212 81.4612 170.216 80.6355 171.284 84.6403C171.284 84.6403 172.105 87.0567 170.451 88.5502C165.381 93.1239 162.423 86.5352 164.317 83.9982Z" fill="white"/>
<path d="M148.805 116.47C148.805 116.47 148.805 147.635 149.263 165.051C149.721 182.466 145.729 199.626 138.102 213.045C130.476 226.465 131.514 245.662 125.892 247.088C81.4247 258.375 93.3967 120.255 109.85 111.428C126.302 102.602 131.737 100.733 131.737 100.733" fill="white"/>
<path fill-rule="evenodd" clip-rule="evenodd" d="M126 125.215L122.168 130.937C121.85 131.411 122.09 132.058 122.64 132.21L127.754 133.624C128.348 133.788 128.91 133.275 128.801 132.668L127.52 125.533C127.387 124.792 126.419 124.589 126 125.215ZM126.833 126.095L127.977 132.816L123.531 130.937L126.833 126.095Z" fill="#FFB61D"/>
<path fill-rule="evenodd" clip-rule="evenodd" d="M113.67 119.626L109.154 126.875C108.865 127.338 109.089 127.949 109.609 128.116L117.494 130.643C118.15 130.854 118.766 130.225 118.541 129.573L115.172 119.797C114.943 119.13 114.042 119.028 113.67 119.626ZM114.741 120.51L117.048 129.573L110.211 126.875L114.741 120.51Z" fill="#FFB61D"/>
<path fill-rule="evenodd" clip-rule="evenodd" d="M110.887 174.47L113.959 186.014C114.148 186.723 115.093 186.864 115.48 186.24L120.047 178.876C120.301 178.468 120.159 177.931 119.738 177.7L112.099 173.52C111.453 173.166 110.698 173.758 110.887 174.47ZM111.697 174.813L118.778 178.435L114.768 185.799L111.697 174.813Z" fill="#FFB61D"/>
<path fill-rule="evenodd" clip-rule="evenodd" d="M104.737 216.86L106.411 224.773C106.565 225.499 107.517 225.682 107.928 225.064L112.453 218.255C112.787 217.753 112.497 217.073 111.903 216.967L105.702 215.862C105.118 215.758 104.613 216.278 104.737 216.86ZM106.198 216.735L111.571 218.64L106.935 223.934L106.198 216.735Z" fill="#FFB61D"/>
<path fill-rule="evenodd" clip-rule="evenodd" d="M119.253 215.185L120.928 223.098C121.082 223.824 122.034 224.007 122.444 223.389L126.97 216.58C127.303 216.078 127.013 215.398 126.419 215.292L120.219 214.187C119.634 214.083 119.13 214.604 119.253 215.185ZM120.028 215.873L126.283 215.701L121.136 222.314L120.028 215.873Z" fill="#FFB61D"/>
<path fill-rule="evenodd" clip-rule="evenodd" d="M111.437 198.994L113.112 206.907C113.265 207.633 114.217 207.816 114.628 207.197L119.153 200.389C119.487 199.887 119.197 199.207 118.603 199.101L112.403 197.996C111.818 197.891 111.313 198.412 111.437 198.994ZM112.256 198.82L117.898 200.484L113.372 206.175L112.256 198.82Z" fill="#FFB61D"/>
<path fill-rule="evenodd" clip-rule="evenodd" d="M296.828 224.6C296.407 225.422 295.717 225.765 294.796 225.817C291.518 225.999 288.919 224.553 286.6 222.445C285.721 221.646 284.942 220.738 284.061 219.941C283.441 219.381 282.777 219.016 281.81 219.363C281.07 219.628 280.2 219.528 279.391 219.611C277.565 219.797 275.743 220.04 273.914 220.173C272.747 220.258 272.718 221.253 272.445 221.94C271.826 223.493 271.363 225.109 270.87 226.711C270.679 227.333 270.375 227.578 269.677 227.569C266.189 227.527 262.701 227.53 259.213 227.559C257.625 227.572 256.035 227.762 254.45 227.726C251.466 227.659 248.478 227.563 245.504 227.334C242.627 227.113 239.764 226.698 236.893 226.392C234.876 226.177 232.847 226.063 230.838 225.791C228.503 225.473 226.187 225.011 223.857 224.653C222.69 224.474 221.505 224.421 220.338 224.25C218.336 223.955 216.334 223.648 214.345 223.278C212.5 222.934 210.764 223.291 209.027 223.864C205.644 224.981 202.254 226.071 198.861 227.157C198.258 227.349 198.08 227.508 198.352 228.24C199.352 230.929 200.287 233.648 201.101 236.398C201.675 238.339 202.072 240.338 202.44 242.331C202.892 244.774 203.269 247.232 203.606 249.693C203.863 251.573 204.026 253.467 204.195 255.359C204.409 257.762 204.612 260.167 204.774 262.575C204.935 264.972 205.07 267.372 205.161 269.774C205.316 273.852 205.432 277.93 205.554 282.009C205.629 284.479 205.675 286.949 205.756 289.419C205.78 290.136 206.01 290.871 205.901 291.559C205.819 292.078 205.45 292.804 205.026 292.967C203.936 293.388 203.622 294.198 203.631 295.315C203.643 296.742 203.822 298.169 203.785 299.592C203.761 300.499 204.108 301.132 204.768 301.613C207.764 303.799 210.79 305.944 213.785 308.132C215.207 309.17 216.609 310.239 217.971 311.353C219.43 312.546 220.86 313.779 222.252 315.05C223.638 316.318 224.375 317.868 224.609 319.801C224.79 321.3 224.598 322.692 224.348 324.118C224.218 324.861 223.794 325.164 223.021 324.913C219.778 323.854 216.54 322.775 213.28 321.767C207.897 320.1 202.498 318.482 197.104 316.845C195.182 316.261 193.26 315.679 191.335 315.103C190.156 314.75 189.907 313.693 189.688 312.735C189.066 310.014 189.87 307.537 191.305 305.255C192.184 303.858 193.208 302.552 194.168 301.207C194.953 300.109 194.75 298.984 194.362 297.795C193.097 293.926 191.855 290.048 190.659 286.158C189.479 282.316 188.31 278.47 187.242 274.597C186.112 270.503 185.087 266.381 184.054 262.261C183.495 260.032 182.968 257.793 182.515 255.54C182.177 253.856 181.985 252.142 181.719 250.443C181.402 248.413 181.211 246.348 180.688 244.372C180.463 243.522 179.637 242.743 178.918 242.127C177.351 240.785 175.55 239.785 173.594 239.101C173.111 238.932 172.587 238.816 172.077 238.797C169.651 238.705 167.222 238.681 164.795 238.583C162.425 238.488 160.056 238.356 157.689 238.197C155.248 238.033 152.809 237.836 150.373 237.617C147.765 237.382 145.147 237.196 142.558 236.823C139.814 236.427 137.094 235.85 134.37 235.317C133.485 235.144 132.838 235.682 132.7 236.931C132.4 239.661 131.472 242.199 130.37 244.684C129.575 246.476 128.075 247.372 126.225 247.677C124.905 247.895 123.552 248.104 122.224 248.053C118.443 247.911 115.071 246.663 112.073 244.266C108.269 241.224 106.043 237.161 104.148 232.829C103.299 230.887 102.206 229.035 101.539 227.037C100.816 224.866 100.45 222.576 99.9455 220.334C99.553 218.588 99.1532 216.844 98.8233 215.087C98.562 213.697 98.3978 212.289 98.1996 210.887C97.9361 209.026 97.6765 207.164 97.4258 205.301C97.3432 204.685 97.2611 204.065 97.2354 203.445C97.1545 201.503 97.1143 199.559 97.0322 197.618C96.9166 194.894 96.7011 192.173 96.6648 189.449C96.6034 184.791 96.6095 180.13 96.6654 175.471C96.6899 173.425 96.863 171.378 97.0473 169.338C97.2561 167.019 97.5726 164.711 97.8038 162.394C97.9685 160.74 98.0204 159.075 98.2097 157.424C98.4883 155.002 98.7931 152.581 99.1806 150.175C99.6412 147.314 100.168 144.461 100.725 141.616C101.778 136.233 103.005 130.882 105.011 125.767C106.29 122.508 107.625 119.183 110.235 116.723C111.364 115.659 112.934 115.045 114.338 114.289C118.191 112.215 122.064 110.178 125.918 108.106C126.099 108.009 126.253 107.728 126.283 107.513C126.385 106.77 126.34 105.997 126.522 105.279C126.641 104.811 126.969 104.298 127.357 104.016C128.657 103.067 130.019 102.202 131.375 101.333C131.618 101.177 131.962 101.041 132.228 101.084C133.658 101.314 134.375 100.435 134.865 99.3525C135.529 97.8869 136.134 96.3872 136.649 94.8636C137.502 92.3394 138.362 89.8091 139.006 87.2286C139.229 86.3381 138.887 85.2762 138.686 84.3175C138.277 82.3657 137.937 80.3781 137.279 78.5077C136.857 77.3118 136.006 76.227 135.191 75.2181C133.086 72.6085 131.981 69.6863 132.335 66.3381C132.488 64.8842 133.112 63.5292 134.199 62.4728C135.479 61.2295 136.791 60.0196 138.075 58.7807C139.011 57.8773 138.944 57.1867 137.725 56.3034C136.019 55.0679 134.384 53.7324 132.753 52.3985C131.359 51.259 130.76 49.631 130.391 47.9622C129.889 45.692 129.828 43.4013 130.754 41.1853C132.235 37.6411 134.369 34.7167 138.276 33.614C141.719 32.642 145.154 32.7078 148.244 34.6597C151.052 36.4329 152.835 39.0743 153.619 42.3349C154.54 46.161 153.492 49.6042 151.559 52.8793C151.397 53.1534 151.38 53.5135 151.296 53.834C151.584 53.8881 151.87 53.978 152.159 53.9914C155.878 54.1606 159.574 54.5738 162.905 56.3464C167.277 58.6729 170.027 62.3606 171.24 67.1605C171.421 67.879 171.42 68.6512 171.444 69.4004C171.525 71.9558 171.531 74.5146 171.682 77.065C171.714 77.5976 172.121 78.2514 172.557 78.592C174.647 80.2295 175.358 84.2383 173.414 86.6111C173.22 86.849 173.054 87.1097 172.863 87.3503C172.116 88.2905 171.033 88.7467 169.955 88.5546C169.036 88.391 168.958 88.7003 168.655 89.3787C168.008 90.8253 167.232 92.225 166.396 93.5739C165.275 95.3823 164.131 97.1879 162.835 98.8706C162.053 99.8868 160.996 100.705 160.004 101.544C158.802 102.562 157.531 103.498 156.307 104.491C155.696 104.986 155.027 105.242 154.247 105.129C153.438 105.012 152.982 105.467 152.746 106.123C152.288 107.388 151.875 108.672 151.513 109.968C151.437 110.241 151.599 110.639 151.764 110.911C153.207 113.286 154.641 115.669 156.149 118.004C157.373 119.899 158.765 121.687 159.949 123.605C160.681 124.791 161.167 126.13 161.76 127.401C162.795 129.62 163.852 131.829 164.841 134.067C165.044 134.528 165.1 135.118 165.029 135.621C164.925 136.353 164.203 136.587 163.421 136.114C162.512 135.565 161.656 134.923 160.804 134.285C160.277 133.889 159.803 133.423 159.302 132.993C159.244 132.942 159.166 132.916 159.098 132.878C159.087 132.965 159.056 133.056 159.068 133.14C159.209 134.125 159.321 135.115 159.509 136.091C159.704 137.099 160 138.086 160.205 139.092C160.611 141.091 161.004 143.093 161.368 145.099C161.777 147.356 162.17 149.616 162.526 151.882C162.709 153.046 162.771 154.229 162.929 155.399C163.167 157.167 163.465 158.927 163.688 160.697C163.81 161.663 163.836 162.643 163.89 163.618C163.963 164.946 164.012 166.276 164.088 167.604C164.276 170.882 164.466 174.159 164.673 177.435C164.724 178.247 165.201 178.872 165.932 179.104C168.013 179.765 169.467 182.194 169.117 184.222C169.036 184.693 168.931 185.18 168.724 185.605C168.226 186.625 168.875 187.204 169.521 187.735C170.569 188.596 171.661 189.405 172.756 190.207C175.354 192.112 177.971 193.992 180.569 195.896C182.924 197.621 185.521 198.821 188.308 199.671C190.546 200.354 192.449 201.648 194.239 203.139C195.117 203.872 195.878 204.956 197.27 204.688C199.239 204.31 201.204 203.9 203.168 203.494C203.761 203.372 204.342 203.193 204.938 203.091C207.01 202.734 208.234 201.268 209.454 199.75C210.362 198.621 211.374 197.577 212.319 196.477C214.178 194.312 216.016 192.131 217.873 189.966C218.796 188.889 219.747 187.836 220.679 186.768C223.307 183.757 225.919 180.733 228.563 177.736C229.95 176.166 231.393 174.646 232.804 173.097C233.183 172.68 233.589 172.273 233.89 171.801C234.346 171.084 234.812 170.864 235.704 171.154C237.654 171.785 237.619 171.665 236.256 173.16C233.814 175.84 231.453 178.593 229.048 181.306C227.872 182.633 226.657 183.925 225.491 185.26C223.445 187.602 221.43 189.971 219.388 192.317C217.939 193.982 216.471 195.631 215.004 197.281C213.869 198.558 212.718 199.82 211.587 201.1C211.488 201.211 211.41 201.521 211.445 201.543C211.722 201.717 212.033 201.973 212.324 201.961C214.694 201.869 217.061 201.687 219.431 201.607C221.206 201.546 222.985 201.546 224.759 201.607C227.033 201.685 229.31 201.784 231.573 202.001C234.096 202.242 236.604 202.631 239.119 202.949C241.697 203.276 244.284 203.546 246.853 203.933C249.421 204.321 251.968 204.843 254.53 205.269C256.652 205.621 258.789 205.884 260.908 206.252C263.611 206.723 266.3 207.27 268.998 207.765C270.893 208.114 272.795 208.417 274.689 208.765C276.516 209.101 278.333 209.491 280.162 209.815C281.314 210.019 282.477 210.226 283.641 210.274C284.129 210.294 284.751 210.029 285.114 209.684C287.883 207.049 290.568 204.324 293.351 201.702C296.465 198.767 299.721 195.998 303.232 193.535C304.839 192.408 306.638 192.605 308.388 192.757C309.408 192.845 310.395 193.337 311.394 193.654C312.214 193.915 312.287 194.421 311.922 195.137C310.266 198.388 308.639 201.654 306.981 204.905C305.549 207.715 304.09 210.511 302.595 213.362C300.641 217.141 298.738 220.872 296.828 224.6ZM143.523 200.624C144.394 198.106 145.158 195.546 145.845 192.97C146.291 191.298 146.544 189.57 146.831 187.859C147.125 186.1 147.372 184.332 147.61 182.565C147.886 180.512 148.316 178.458 148.35 176.399C148.417 172.264 148.246 168.126 148.2 163.989C148.172 161.461 148.158 158.932 148.208 156.405C148.246 154.416 147.089 152.934 146.246 151.304C145.685 150.218 145.093 149.123 144.734 147.964C144.077 145.838 143.542 143.671 143.032 141.504C142.684 140.021 142.427 138.514 142.198 137.008C141.933 135.265 141.36 133.628 140.616 132.046C140.553 131.914 140.03 131.817 139.974 131.892C139.674 132.293 139.451 132.753 139.209 133.196C138.778 133.985 138.123 134.737 137.973 135.578C137.674 137.257 136.9 138.699 136.109 140.14C135.616 141.037 134.787 141.06 134.211 140.237C133.591 139.352 132.922 138.459 132.527 137.469C131.598 135.141 130.766 132.771 129.992 130.386C128.976 127.252 128.017 124.098 127.104 120.932C126.627 119.279 126.153 117.6 125.952 115.901C125.756 114.235 125.912 112.527 125.907 110.838C125.906 110.687 125.86 110.536 125.835 110.385C125.767 110.439 125.704 110.503 125.629 110.544C123.858 111.519 122.098 112.514 120.311 113.456C118.539 114.39 116.757 115.312 114.943 116.162C112.955 117.094 110.961 118.056 109.809 120.008C108.564 122.12 107.108 124.133 106.358 126.514C105.584 128.968 104.709 131.395 104.036 133.876C103.347 136.414 102.878 139.011 102.257 141.568C101.861 143.202 101.208 144.787 100.948 146.437C100.551 148.954 100.306 151.505 100.163 154.051C100.042 156.237 100.05 158.427 99.7557 160.604C99.5268 162.294 99.371 163.994 99.165 165.687C98.8506 168.266 98.2867 170.838 98.246 173.42C98.1566 179.135 98.3922 184.855 98.3654 190.573C98.3515 193.57 98.7987 196.499 99.1516 199.453C99.5435 202.732 99.7752 206.03 100.149 209.311C100.403 211.541 100.658 213.784 101.134 215.973C101.908 219.537 102.74 223.098 103.774 226.593C105.064 230.954 106.958 235.063 109.625 238.789C111.292 241.118 113.327 243.025 115.838 244.396C119.243 246.255 122.895 246.094 126.554 245.527C127.153 245.433 127.93 244.972 128.187 244.461C128.907 243.028 129.536 241.517 129.946 239.97C130.529 237.771 130.786 235.487 131.358 233.284C132.301 229.653 133.486 226.083 134.374 222.44C135.105 219.438 136.5 216.73 137.711 213.94C138.602 211.887 139.656 209.904 140.734 207.793C141.671 205.406 142.686 203.046 143.523 200.624ZM175.664 237.695C177.426 238.772 179.153 239.914 180.829 241.12C181.876 241.873 182.628 242.967 182.858 244.232C183.389 247.161 183.742 250.122 184.255 253.054C184.616 255.113 185.134 257.143 185.562 259.19C185.911 260.856 186.234 262.528 186.564 264.197C186.89 265.839 187.207 267.481 187.535 269.121C187.787 270.371 188.046 271.619 188.31 272.867C188.738 274.884 189.078 276.925 189.631 278.908C190.175 280.86 190.994 282.735 191.591 284.675C192.585 287.903 193.819 291.029 195.247 294.088C195.586 294.814 196.156 294.668 196.494 294.536C198.632 293.699 200.741 292.785 202.836 291.844C203.497 291.547 203.849 290.972 203.818 290.186C203.735 288.051 203.678 285.915 203.619 283.78C203.55 281.225 203.49 278.669 203.425 276.114C203.36 273.612 203.346 271.108 203.216 268.61C203.089 266.169 202.849 263.734 202.648 261.297C202.396 258.262 202.162 255.225 201.864 252.194C201.659 250.101 201.47 247.996 201.074 245.935C200.389 242.366 199.547 238.827 198.774 235.274C197.873 231.134 196.133 227.527 192.693 224.817C190.072 222.754 187.324 220.911 184.352 219.439C181.064 217.811 177.739 216.225 174.327 214.886C170.425 213.356 166.636 211.423 162.34 211.071C160.277 210.901 158.23 210.54 156.169 210.32C154.517 210.145 152.85 210.095 151.198 209.914C148.583 209.627 145.978 209.247 143.361 208.99C142.994 208.955 142.441 209.299 142.216 209.631C141.699 210.394 141.31 211.248 140.905 212.083C139.644 214.691 138.167 217.224 137.207 219.94C135.939 223.528 135.079 227.26 134.05 230.933C133.468 233.014 133.455 233.106 135.27 233.486C137.368 233.927 139.501 234.219 141.627 234.512C143.018 234.703 144.428 234.755 145.824 234.916C148.469 235.22 151.107 235.583 153.754 235.869C155.439 236.051 157.132 236.161 158.824 236.261C161.353 236.411 163.882 236.552 166.413 236.644C167.928 236.699 169.448 236.654 171.159 236.654C172.748 236.625 174.301 236.862 175.664 237.695ZM251.612 225.611C253.243 225.687 254.873 225.767 256.505 225.802C260.287 225.882 264.071 225.946 267.854 225.992C268.609 226.001 269.29 225.688 269.493 224.911C270.589 220.726 272.745 216.846 273.022 212.419C273.092 211.296 272.605 210.503 271.459 210.302C270.263 210.093 269.083 209.8 267.89 209.572C266.39 209.286 264.884 209.036 263.382 208.76C262.034 208.512 260.687 208.254 259.341 207.994C258.356 207.804 257.375 207.594 256.389 207.407C254.501 207.051 252.612 206.701 250.722 206.355C249.43 206.118 248.14 205.876 246.843 205.668C245.838 205.506 244.823 205.405 243.815 205.258C241.685 204.947 239.558 204.625 237.429 204.306C236.213 204.124 235.001 203.924 233.782 203.76C232.158 203.541 230.529 203.17 228.903 203.179C224.823 203.202 220.743 203.381 216.666 203.541C214.715 203.617 212.761 203.725 210.823 203.944C209.739 204.066 208.695 204.41 207.908 205.324C206.626 206.813 205.25 208.22 203.955 209.698C203.138 210.632 202.372 211.613 201.625 212.604C200.636 213.916 199.43 214.712 197.706 214.579C194.882 214.361 192.054 214.2 189.23 213.983C188.182 213.903 187.14 213.747 186.098 213.601C184.33 213.354 182.569 213.067 180.799 212.835C179.108 212.614 177.41 212.43 175.713 212.255C175.233 212.206 174.744 212.234 174.261 212.26C174.165 212.266 174.078 212.43 173.987 212.521C174.085 212.567 174.185 212.608 174.282 212.658C175.131 213.102 175.959 213.596 176.833 213.982C179.398 215.115 182.043 216.083 184.543 217.34C188.174 219.167 191.562 221.396 194.642 224.077C195.597 224.908 196.514 225.525 198.081 225.317C200.564 224.986 202.884 224.374 205.112 223.29C208.111 221.83 211.162 220.634 214.61 221.349C216.605 221.762 218.611 222.125 220.603 222.552C221.865 222.823 223.096 223.269 224.368 223.457C225.945 223.691 227.551 223.733 229.143 223.872C232.04 224.124 234.935 224.391 237.831 224.643C239.797 224.814 241.765 224.968 243.829 225.226C246.423 225.355 249.017 225.49 251.612 225.611ZM150.706 169.652C150.734 170.425 150.704 171.201 150.717 171.976C150.777 175.596 150.834 179.217 150.915 182.837C150.938 183.888 150.892 184.971 151.133 185.979C151.62 188.018 152.259 190.023 152.882 192.028C153.148 192.887 153.519 193.705 154.49 194.045C155.334 194.34 156.152 194.712 156.998 195.003C158.253 195.434 158.639 195.271 159.457 194.122C159.728 193.742 160.04 193.391 160.345 193.036C162.306 190.749 164.327 188.509 166.216 186.163C167.611 184.432 167.369 181.646 165.034 180.752C164.783 180.656 164.534 180.541 164.273 180.487C162.893 180.201 162.957 180.205 162.911 178.901C162.748 174.243 163.294 169.572 162.562 164.92C162.27 163.062 162.39 161.141 162.122 159.278C161.704 156.379 161.125 153.503 160.594 150.62C160.092 147.895 159.589 145.169 159.039 142.452C158.629 140.424 158.136 138.415 157.693 136.393C157.356 134.852 157.091 133.293 156.684 131.771C156.574 131.359 156.064 131.055 155.737 130.701C155.355 131.07 154.685 131.407 154.639 131.814C154.404 133.879 154.086 135.984 154.267 138.033C154.476 140.387 154.829 142.721 154.38 145.057C153.868 147.721 153.016 150.278 151.573 152.608C150.773 153.899 150.176 155.239 150.312 156.837C150.446 158.418 150.49 160.01 150.513 161.597C150.545 163.856 150.521 166.116 150.521 168.569C150.585 168.93 150.693 169.289 150.706 169.652ZM140.545 89.6416C140.382 89.894 140.156 90.1257 140.066 90.4021C139.146 93.2182 138.305 96.0623 137.321 98.8556C136.729 100.539 135.799 102.041 134.261 103.098C133.144 103.866 132.102 104.744 131.009 105.548C130.47 105.945 130.584 106.288 130.92 106.77C131.926 108.211 132.989 109.629 133.829 111.166C134.988 113.287 135.98 115.501 137.012 117.69C138.017 119.823 139.066 121.941 139.936 124.129C140.676 125.988 141.073 127.984 141.834 129.832C142.522 131.503 143.26 133.15 143.509 134.94C143.594 135.548 143.791 135.553 144.252 135.551C147.023 135.542 149.699 135.176 152.035 133.526C152.235 133.385 152.404 133.095 152.442 132.851C152.534 132.263 152.518 131.658 152.587 131.065C152.636 130.647 152.909 130.194 152.811 129.829C152.447 128.473 151.962 127.149 151.539 125.809C150.73 123.247 149.669 120.713 149.597 118.011C149.523 115.261 149.77 112.499 149.959 109.748C150.035 108.626 150.255 107.5 150.54 106.409C150.872 105.13 150.793 104.78 149.638 104.156C147.738 103.128 146.1 101.748 144.929 99.9666C143.017 97.0594 141.549 93.9312 141.025 90.315C140.865 90.0905 140.705 89.8661 140.545 89.6416ZM168.111 88.7841C168.163 88.6791 168.634 88.3531 167.935 88.2353C167.228 88.1163 166.43 87.7735 165.945 87.2677C164.994 86.2756 164.207 85.1198 163.407 83.9926C163.181 83.6732 163.101 83.4795 162.782 83.8625C162.581 84.1054 162.318 84.298 162.117 84.5409C160.369 86.6524 157.855 87.5491 155.501 86.9623C152.679 86.2588 150.958 83.25 150.92 80.6399C150.904 79.5992 150.575 78.7271 149.744 78.1286C148.361 77.1325 146.938 76.1901 145.516 75.2488C144.72 74.7217 143.962 74.8937 143.757 75.725C143.248 77.7824 142.615 79.8449 142.437 81.9397C142.218 84.5308 142.322 87.1476 142.941 89.7338C143.983 94.0903 145.337 98.2302 148.892 101.3C151.184 103.28 154.016 103.725 156.745 102.528C159.45 101.34 161.112 99.1442 162.729 96.8585C164.088 94.9373 165.442 93.0128 166.896 90.9933C167.306 90.2597 167.732 89.5339 168.111 88.7841ZM285.252 218.18C287.131 220.571 289.317 222.568 292.309 223.533C294.156 224.13 294.833 224.025 295.855 222.076C297.941 218.1 300.003 214.111 302.058 210.119C302.879 208.525 303.638 206.898 304.461 205.305C306.067 202.192 307.695 199.09 309.323 195.988C309.62 195.423 309.338 194.91 308.9 194.851C307.381 194.649 305.777 194.215 304.366 195.154C302.505 196.391 300.633 197.636 298.921 199.065C296.325 201.232 293.824 203.518 291.361 205.837C290.244 206.89 289.301 208.13 288.308 209.309C287.524 210.241 286.517 211.025 286.218 212.298C285.943 213.476 285.67 214.654 285.397 216.025C285.074 216.727 284.714 217.495 285.252 218.18ZM221.25 322.138C221.693 322.173 222.546 321.972 222.551 321.853C222.608 320.186 222.923 318.419 221.427 317.117C219.482 315.425 217.598 313.655 215.57 312.07C212.297 309.511 208.93 307.075 205.6 304.59C204.41 303.701 203.227 302.759 201.713 302.527C200.357 302.32 198.975 302.293 197.615 302.111C196.468 301.958 195.687 302.455 194.991 303.281C193.301 305.284 192.072 307.51 191.608 310.111C191.243 312.149 191.899 313.272 193.545 313.756C196.677 314.679 199.788 315.677 202.914 316.62C205.155 317.295 207.416 317.905 209.652 318.595C212.913 319.601 216.159 320.654 219.606 321.687C220.153 321.847 220.694 322.095 221.25 322.138ZM155.462 196.554C153.299 195.697 151.148 194.808 148.98 193.965C148.339 193.716 147.794 193.643 147.582 194.629C147.353 195.701 146.864 196.715 146.511 197.761C145.726 200.084 144.939 202.405 144.196 204.741C144.059 205.173 143.85 205.779 144.703 205.861C145.813 205.969 146.918 206.154 148.031 206.235C150.203 206.393 152.377 206.548 154.553 206.62C157.787 206.726 161.021 206.765 164.256 206.822C165.289 206.84 166.323 206.821 167.356 206.827C167.607 206.828 167.874 206.81 168.107 206.883C170.908 207.759 173.698 208.665 176.501 209.532C179.321 210.403 182.145 211.26 185.157 211.092C186.203 211.033 186.395 210.837 186.01 209.875C185.8 209.35 185.509 208.815 185.122 208.41C183.236 206.433 180.932 205.052 178.468 203.917C176.505 203.014 174.585 202.005 172.377 201.777C171.343 201.671 170.302 201.522 169.298 201.263C167.703 200.849 166.121 200.372 164.561 199.84C162.612 199.176 160.69 198.431 158.563 197.721C157.529 197.333 156.489 196.96 155.462 196.554ZM131.133 111.046C130.226 109.641 129.272 108.267 128.335 106.881C128.205 106.688 128.062 106.503 127.926 106.315C127.835 106.632 127.708 106.944 127.661 107.268C127.506 108.337 127.419 109.418 127.235 110.481C126.871 112.588 126.673 114.658 128.039 116.53C128.125 116.648 128.193 116.79 128.232 116.932C128.734 118.757 129.227 120.584 129.728 122.409C129.855 122.872 129.987 123.333 130.139 123.787C130.791 125.742 131.583 127.662 132.075 129.656C132.58 131.704 132.968 133.763 134.017 135.634C134.319 136.171 134.417 136.82 134.639 137.406C134.706 137.581 134.925 137.862 134.994 137.841C135.216 137.771 135.508 137.625 135.583 137.434C136.449 135.208 136.867 132.777 138.511 130.907C139.908 129.32 139.618 127.698 138.761 126.003C138.427 125.34 138.22 124.615 137.921 123.933C137.275 122.458 136.656 120.969 135.933 119.532C135.301 118.277 134.536 117.089 133.84 115.866C133.351 115.005 132.881 114.134 132.305 113.171C131.917 112.461 131.571 111.724 131.133 111.046ZM183.476 199.943C180.646 198.114 177.777 196.338 175.035 194.385C172.738 192.749 170.611 190.879 168.379 189.15C167.777 188.684 167.085 188.529 166.47 189.233C165.473 190.372 164.457 191.494 163.461 192.635C162.72 193.485 162.007 194.36 161.265 195.208C160.684 195.872 160.745 196.227 161.595 196.481C164.326 197.297 167.076 198.049 169.798 198.891C173.514 200.042 177.227 201.211 180.909 202.463C182.087 202.864 183.126 203.673 184.303 204.079C185.498 204.492 186.775 204.707 188.035 204.883C189.489 205.086 190.963 205.167 192.43 205.258C192.665 205.272 192.913 205.063 193.154 204.958C193.011 204.759 192.902 204.518 192.719 204.367C190.392 202.464 187.614 201.48 184.724 200.432C184.306 200.273 183.844 200.18 183.476 199.943ZM146.627 148.923C146.987 150.288 147.842 150.952 149.158 151.075C150.295 151.182 150.629 150.558 150.906 149.728C151.303 148.539 151.696 147.348 152.068 146.15C152.896 143.491 152.777 140.811 152.282 138.107C152.121 137.226 152.159 136.307 152.118 135.405C152.112 135.274 152.179 135.139 152.212 135.007C152.079 135.046 151.942 135.072 151.814 135.125C151.016 135.455 150.248 135.912 149.419 136.099C147.865 136.448 146.28 136.679 144.699 136.881C144.088 136.958 143.726 137.023 143.92 137.77C144.103 138.475 144.176 139.209 144.322 139.925C144.636 141.469 144.965 143.009 145.289 144.744C145.741 146.136 146.255 147.511 146.627 148.923ZM163.188 134.352C163.338 134.48 163.506 134.588 163.666 134.705C163.665 134.488 163.724 134.249 163.653 134.059C163.233 132.944 162.842 131.811 162.33 130.738C161.236 128.446 160.232 126.089 158.898 123.941C157.587 121.83 155.821 120.005 154.427 117.937C153.429 116.457 152.723 114.779 151.871 113.199C151.74 112.955 151.523 112.758 151.346 112.54C151.265 112.797 151.108 113.055 151.114 113.309C151.155 114.961 151.177 116.616 151.315 118.26C151.409 119.382 151.599 120.512 151.9 121.595C152.235 122.797 152.842 123.926 153.154 125.133C153.52 126.545 154.191 127.438 155.558 128.192C157.826 129.443 160.166 130.743 161.761 133.122C162.236 133.533 162.709 133.946 163.188 134.352ZM153.094 79.6199C152.35 80.703 153.73 84.499 154.48 84.7815C159.732 86.7579 161.229 83.3757 161.298 82.4472C161.435 80.6036 161.662 78.7349 159.919 77.2409C155.323 76.3263 154.297 77.8684 153.094 79.6199ZM173.203 81.1541C172.497 79.396 171.429 78.2492 169.569 78.6501C168.62 78.855 167.784 79.6076 166.911 80.1357C165.035 81.2697 164.79 81.8905 165.446 83.9016C166.102 85.9143 167.632 87.0672 169.579 87.4586C171.191 87.7824 172.342 86.7831 173.194 85.279C173.408 83.9055 173.762 82.546 173.203 81.1541ZM166.248 78.8806C167.006 78.3424 167.826 77.5451 168.643 77.5156C170.056 77.4648 169.827 76.6016 169.674 75.9221C169.248 74.0233 168.692 72.1518 168.148 70.2814C167.777 69.0007 167.462 68.927 166.56 69.8292C165.015 71.3741 163.449 72.8893 161.508 73.9563C160.901 74.2902 160.817 75.0584 161.251 75.6642C161.413 75.8892 161.632 76.0829 161.753 76.3263C162.35 77.5267 162.892 78.7556 163.529 79.9336C163.67 80.1938 163.563 81.115 164.474 80.4367C165.061 79.913 165.61 79.3346 166.248 78.8806ZM280.286 217.832C281.604 217.587 283.017 217.249 283.221 215.495C283.255 215.2 283.389 214.919 283.456 214.627C283.872 212.814 283.401 212.233 281.586 212.038C279.877 211.855 278.18 211.549 276.482 211.275C275.574 211.128 275.406 211.298 275.306 212.223C275.167 213.504 274.967 214.781 274.728 216.048C274.518 217.157 274.828 218.036 275.804 218.253C277.3 218.123 278.817 218.105 280.286 217.832ZM201.152 300.352C201.336 300.343 201.65 299.978 201.657 299.769C201.703 298.383 201.669 296.996 201.685 295.609C201.694 294.829 201.096 294.804 200.668 294.94C199.735 295.237 198.847 295.681 197.947 296.077C197.296 296.363 196.565 296.595 196.644 297.533C196.7 298.195 196.7 298.873 196.852 299.514C197.105 300.578 198.024 300.072 198.774 300.283C199.567 300.316 200.362 300.387 201.152 300.352ZM149.537 187.675C149.482 187.517 149.253 187.421 149.103 187.296C148.994 187.452 148.805 187.6 148.79 187.764C148.699 188.76 148.621 189.759 148.591 190.758C148.56 191.735 149.252 192.368 150.245 192.278C150.413 192.263 150.712 191.966 150.69 191.847C150.544 191.054 150.327 190.273 150.037 189.392C149.875 188.818 149.736 188.236 149.537 187.675ZM204.136 205.974C204.243 205.761 204.469 205.167 203.812 205.291C202.809 205.479 201.824 205.763 200.838 206.032C200.657 206.081 200.51 206.25 200.348 206.364C200.536 206.453 200.722 206.612 200.914 206.619C201.717 206.648 202.523 206.631 203.425 206.534C203.671 206.352 204.012 206.218 204.136 205.974ZM129.301 104.358C129.147 104.448 128.992 104.538 128.838 104.628C128.959 104.763 129.059 104.951 129.21 105.014C129.301 105.052 129.5 104.922 129.604 104.821C130.201 104.243 130.786 103.654 131.369 103.062C131.485 102.943 131.57 102.793 131.669 102.658C131.473 102.696 131.227 102.672 131.09 102.783C130.508 103.255 129.959 103.765 129.301 104.358Z" fill="#00160A"/>
<path fill-rule="evenodd" clip-rule="evenodd" d="M150.067 93.0755C149.159 92.5842 148.261 92.1816 148.072 91.0879C147.706 88.9629 148.471 86.4589 151.241 86.6046C153.738 86.7358 155.323 88.8099 154.439 91.1521C153.788 92.8795 152.207 93.736 150.067 93.0755Z" fill="#FFB61D"/>
<path fill-rule="evenodd" clip-rule="evenodd" d="M162.382 85.1471C162.432 84.821 162.481 84.5932 162.531 84.3649C162.61 84.5636 162.711 84.7568 162.763 84.9623C163.153 86.487 164.388 90.2825 162.917 92.0289C162.795 92.1746 162.174 92.1975 161.788 92.1729C161.029 92.1249 160.143 91.0049 160.285 90.2825C160.306 90.1742 162.138 91.953 162.531 90.9899C163.187 89.3847 162.382 85.6987 162.382 85.1471Z" fill="#00160A"/>
<path fill-rule="evenodd" clip-rule="evenodd" d="M152.044 96.2694C151.967 96.2308 151.862 96.2409 151.77 96.2448C151.545 96.2543 151.236 95.8501 151.367 95.6787C151.566 95.4213 151.79 95.1617 152.059 94.9919C152.218 94.8909 152.482 95.2181 152.462 95.3632C152.448 95.471 152.55 95.6407 152.65 95.7138C154.167 96.8282 155.852 97.5507 157.695 97.898C157.816 97.9209 157.923 98.0297 158.036 98.0984C157.923 98.1771 157.81 98.3296 157.697 98.3229C155.686 98.2051 153.361 96.9377 152.044 96.2694Z" fill="#00160A"/>
<path fill-rule="evenodd" clip-rule="evenodd" d="M103.055 183.555L101.145 191.712C100.997 192.343 101.591 192.895 102.21 192.702L108.84 190.638C109.397 190.465 109.611 189.787 109.253 189.326L104.532 183.233C104.101 182.676 103.216 182.869 103.055 183.555ZM103.871 184.863L108.032 189.838L101.961 191.903L103.871 184.863Z" fill="#FFB61D"/>
<path fill-rule="evenodd" clip-rule="evenodd" d="M108.979 136.493C108.282 136.43 107.82 137.201 108.205 137.787L113.062 145.171C113.39 145.669 114.118 145.675 114.454 145.184L118.924 138.636C119.285 138.108 118.945 137.387 118.308 137.33L108.979 136.493ZM109.637 137.33L117.988 138.953L113.062 144.108L109.637 137.33Z" fill="#FFB61D"/>
<path fill-rule="evenodd" clip-rule="evenodd" d="M139.764 192.958H132.913C132.345 192.958 131.942 193.511 132.116 194.051L134.417 201.204C134.635 201.88 135.541 201.996 135.921 201.398L140.471 194.244C140.826 193.687 140.425 192.958 139.764 192.958ZM139.206 194.353L135.773 200.948L133.472 193.795L139.206 194.353Z" fill="#FFB61D"/>
<path fill-rule="evenodd" clip-rule="evenodd" d="M117.315 231.719L117.002 237.92C116.969 238.57 117.658 239.008 118.232 238.702L126.198 234.458C126.873 234.099 126.753 233.097 126.012 232.907L118.359 230.949C117.846 230.818 117.342 231.19 117.315 231.719ZM117.921 232.311L125.241 233.327L118.232 237.47L117.921 232.311Z" fill="#FFB61D"/>
<path fill-rule="evenodd" clip-rule="evenodd" d="M106.754 155.554L100.612 159.812C100.093 160.172 100.144 160.956 100.707 161.245L107.894 164.935C108.495 165.243 109.195 164.75 109.107 164.08L108.061 156.133C107.98 155.512 107.269 155.198 106.754 155.554ZM107 157.033L108.277 164.189L101.089 160.5L107 157.033Z" fill="#FFB61D"/>
<path fill-rule="evenodd" clip-rule="evenodd" d="M134.933 173.789L131.101 179.511C130.771 180.003 131.044 180.673 131.624 180.796L136.104 181.744C136.658 181.86 137.166 181.407 137.111 180.843L136.463 174.174C136.386 173.391 135.371 173.136 134.933 173.789ZM135.977 174.935V181.062L132.124 179.511L135.977 174.935Z" fill="#FFB61D"/>
<path fill-rule="evenodd" clip-rule="evenodd" d="M135.659 146.832C136.774 146.105 137.752 146.277 136.956 147.879C136.956 147.879 131.144 162.616 129.407 162.79C127.76 162.956 126.965 160.826 124.665 154.737L124.568 154.477C124.559 154.454 124.552 154.431 124.545 154.408L124.533 154.36L124.518 154.333L124.486 154.259L124.21 153.514C123.886 152.628 123.068 151.164 122.636 150.656C122.175 150.115 123.203 149.779 123.963 149.779C125.38 149.779 127.114 150.175 129.841 149.388C133.035 148.466 134.131 147.83 135.659 146.832ZM133.187 154.404L133.111 154.453C132.299 154.953 131.403 155.337 130.424 155.604C129.253 155.924 127.553 155.964 126.453 155.724L126.27 155.681L126.338 155.85C126.958 157.397 127.51 159.185 127.99 160.095L128.158 160.404C128.46 160.946 128.724 161.339 128.938 161.576L129.005 161.646L129.088 161.545C129.447 161.087 130.723 159.363 131.609 157.64L131.702 157.459C132.082 156.715 132.495 155.869 132.944 154.922L133.187 154.404ZM135.579 148.535L135.445 148.612C134.184 149.314 132.098 150.479 130.305 150.997C128.159 151.616 126.34 151.837 124.843 151.64L124.751 151.626L124.804 151.774C124.947 152.174 125.553 154.068 125.768 154.36C126.636 155.162 127.701 155.238 129.005 154.922L129.192 154.874C133.862 153.972 135.579 148.535 135.579 148.535Z" fill="#FFB61D"/>
<path fill-rule="evenodd" clip-rule="evenodd" d="M299.559 200.058C299.745 199.921 300.007 199.96 300.144 200.146C301.111 201.457 302.748 201.522 304.924 200.314C305.126 200.201 305.381 200.275 305.493 200.477C305.605 200.679 305.532 200.933 305.33 201.046C302.827 202.436 300.731 202.353 299.47 200.643C299.333 200.457 299.373 200.195 299.559 200.058Z" fill="#E7EAEE"/>
<path fill-rule="evenodd" clip-rule="evenodd" d="M296.394 203.41C296.565 203.255 296.83 203.267 296.986 203.439C298.452 205.052 300.4 205.144 301.985 204.298C302.189 204.189 302.443 204.266 302.551 204.469C302.66 204.673 302.583 204.927 302.379 205.036C300.486 206.047 298.123 205.935 296.366 204.002C296.21 203.831 296.223 203.566 296.394 203.41Z" fill="#E7EAEE"/>
<path fill-rule="evenodd" clip-rule="evenodd" d="M292.965 206.735C293.133 206.577 293.398 206.585 293.557 206.753C294.97 208.254 297.843 208.988 299.808 207.946C300.013 207.838 300.266 207.916 300.375 208.12C300.483 208.325 300.405 208.578 300.2 208.687C297.873 209.92 294.601 209.084 292.947 207.327C292.788 207.158 292.797 206.893 292.965 206.735Z" fill="#E7EAEE"/>
<path fill-rule="evenodd" clip-rule="evenodd" d="M295.626 219.867C298.566 218.445 295.527 213.175 292.682 215.308C290.858 216.676 292.858 221.207 295.626 219.867Z" fill="#E7EAEE"/>
</svg>
