<svg width="236" height="172" viewBox="0 0 236 172" fill="none" xmlns="http://www.w3.org/2000/svg">
<path fill-rule="evenodd" clip-rule="evenodd" d="M234.94 64.8424C232.027 86.5607 228.739 98.0328 209.547 120.777C190.356 143.521 102.535 158.483 70.068 158.483C37.6008 158.483 -2.4115 133.448 0.113782 104.44C2.63906 75.432 15.8139 51.7229 47.3482 48.8042C79.5748 45.8214 107.883 59.6338 139.522 52.2262C166.875 45.8214 175.245 21.4097 194.032 13.7081C232.027 -1.8683 236.921 50.0673 234.94 64.8424Z" fill="#155E75"/>
<path d="M215.392 75.4501C214.319 77.2698 200.73 86.4762 192.487 87.8388C190.892 88.1024 189.15 88.1931 187.765 87.3601C186.946 86.8679 186.336 86.1007 185.757 85.3415C184.432 83.6061 183.169 81.8238 181.969 79.9993C181.338 79.0406 180.713 78.0401 180.499 76.9128C179.932 73.9277 182.338 71.2467 184.716 69.3555C190.182 65.0078 196.583 61.8403 203.354 60.1319C204.553 59.8295 205.824 59.5733 207.012 59.9168C208.94 60.4744 210.092 62.4249 210.827 64.2918C211.563 66.1587 212.137 68.2009 213.606 69.5665C213.942 69.8783 216.465 73.6307 215.392 75.4501Z" fill="white"/>
<path fill-rule="evenodd" clip-rule="evenodd" d="M142.375 154.767C129.186 157.023 135.472 147.437 137.291 135.44C140.279 115.726 143.965 85.7679 143.965 85.7679C143.965 85.7679 146.368 131.417 146.368 142.532C146.368 153.648 143.964 154.495 142.375 154.767Z" fill="white"/>
<path d="M128.284 143.906C128.621 147.081 128.976 150.323 130.325 153.216C129.589 146.664 128.853 140.113 128.117 133.561C128.026 132.752 128.053 131.722 128.797 131.392C129.427 138.79 130.366 146.162 131.611 153.481C131.758 154.35 130.453 154.847 129.72 154.358C128.987 153.868 128.753 152.915 128.586 152.049C127.371 145.742 126.703 139.33 126.592 132.907C125.045 133.212 123.961 134.711 123.648 136.256C123.335 137.801 123.637 139.396 123.938 140.944C124.908 145.924 125.878 150.904 126.848 155.884C127.301 158.213 127.755 160.62 127.254 162.94C125.33 154.151 123.782 145.28 122.618 136.359C107.847 145.391 88.816 147.07 72.6924 140.765C69.171 139.388 65.6738 137.563 63.3478 134.581C61.5156 132.233 60.538 129.317 60.0256 126.383C58.2066 115.962 61.9343 105.333 66.994 96.0425C68.9138 92.5173 71.1003 88.8459 70.9452 84.835C70.892 83.4542 70.5943 81.9254 71.4006 80.8028C71.5149 81.0108 66.1215 42.4321 68.2851 33.8985C73.4938 13.3548 90.4136 10.5727 101.247 10.8262C108.516 10.9961 154.59 20.1526 161.246 32.604C169.996 48.9693 168.138 62.7284 166.584 71.8007C166.122 74.5022 143.972 85.5692 143.966 85.6251C142.699 97.397 134.202 123.048 127.075 132.502C127.478 136.304 127.881 140.105 128.284 143.906Z" fill="white"/>
<path fill-rule="evenodd" clip-rule="evenodd" d="M21.9333 96.0068C17.7794 94.3486 12.8292 94.8404 9.08424 97.2835C8.72168 97.5198 8.20044 97.2562 8.02093 96.8628C7.84145 96.4694 7.9086 96.0116 8.0004 95.5892C9.19649 90.0849 13.9613 85.8734 19.2602 83.9377C24.5591 82.0023 30.3551 81.9969 35.9878 82.3276C36.5468 82.3607 37.131 82.4042 37.608 82.6971C38.0846 82.9904 38.4052 83.6167 38.1676 84.1227C35.9521 88.8413 34.2827 93.815 33.2043 98.9137C33.0294 99.7403 32.1728 100.289 31.329 100.358C30.4852 100.427 29.6586 100.116 28.8927 99.7551C26.5066 98.6319 24.3829 96.9848 21.9333 96.0068Z" fill="white"/>
<path fill-rule="evenodd" clip-rule="evenodd" d="M149.612 12.9149C149.818 9.75755 149.58 6.5712 148.907 3.47958L148.893 3.4135C148.779 2.89065 148.661 2.35296 148.766 1.82977C148.999 0.672809 150.284 -0.0236575 151.464 0.000614287C152.645 0.0248861 153.737 0.588194 154.782 1.13836C159.79 3.77657 164.888 6.48119 168.831 10.5423C168.955 13.8302 168.18 17.0745 167.415 20.2774L167.343 20.5784C164.15 33.9653 161.535 47.4904 159.508 61.1029C159.314 62.4075 158.946 63.9467 157.708 64.4035C156.821 64.7315 155.788 64.3125 155.158 63.6069C154.527 62.9014 154.226 61.9649 154.016 61.0422C153.497 58.7657 153.434 56.3864 153.833 54.086C154.077 52.6792 154.489 51.3109 154.901 49.9422L154.901 49.9416C155.271 48.7131 155.641 47.484 155.89 46.2266C156.139 44.9695 156.264 43.6912 156.385 42.4153C157.032 35.6303 157.58 28.8362 158.03 22.0354C158.094 21.0743 158.151 20.0828 157.837 19.1726C157.277 17.5539 155.645 16.5304 153.998 16.0615C153.714 15.9806 153.426 15.9118 153.137 15.843C152.466 15.6829 151.795 15.5228 151.183 15.2109C150.307 14.765 149.548 13.8952 149.612 12.9149ZM152.672 12.6553C155.001 13.1468 157.277 13.8888 159.448 14.8647C159.885 15.0613 160.344 15.2912 160.581 15.7082C160.774 16.0487 160.785 16.4589 160.79 16.8503C160.859 21.4468 160.873 26.0557 160.386 30.6269C160.095 33.3642 159.625 36.0776 159.154 38.7907C159.006 39.6493 158.857 40.5082 158.714 41.3675C158.006 45.6208 157.436 49.8967 157.005 54.1868C156.692 57.2996 156.463 60.517 157.432 63.4916C157.928 63.401 158.12 62.8026 158.214 62.3064L167.162 15.1425C167.379 13.9997 167.595 12.8182 167.34 11.6834C166.893 9.69687 165.129 8.31539 163.429 7.19451C160.156 5.03701 156.673 3.19944 153.044 1.7165C152.742 5.3539 152.618 9.0058 152.672 12.6553ZM157.274 43.6305C158.912 35.2197 159.652 26.6339 159.477 18.0666C159.464 17.4194 159.43 16.7239 159.034 16.2118C158.744 15.8366 158.301 15.6168 157.868 15.423C156.242 14.6948 154.533 14.1531 152.785 13.8116C152.279 13.7128 151.536 13.82 151.558 14.3351L157.841 16.9312C158.21 17.0836 158.602 17.2559 158.81 17.596C159.015 17.9294 158.995 18.3484 158.968 18.7385L157.274 43.6305ZM151.427 0.884513C150.909 0.541 150.16 0.894964 149.872 1.44546C149.584 1.99596 149.627 2.65467 149.693 3.27259C149.789 4.17941 149.915 5.08657 150.041 5.99407C150.392 8.51126 150.743 11.0295 150.445 13.5416C150.92 13.7048 151.45 13.3697 151.681 12.9233C151.911 12.477 151.917 11.9528 151.918 11.4502L151.934 2.39139C151.935 1.83785 151.888 1.19027 151.427 0.884513ZM156.079 63.2873C155.794 61.0486 155.719 58.7832 155.856 56.5307C155.93 55.3262 156.063 54.1257 156.197 52.9256C156.374 51.3385 156.55 49.7521 156.587 48.1566C155.282 52.0407 154.79 56.1956 155.15 60.277C155.243 61.3385 155.417 62.452 156.079 63.2873ZM156.797 45.8622C157.007 45.7681 157.095 45.4732 156.972 45.2793C156.758 45.3845 156.668 45.6822 156.786 45.8882L156.797 45.8622ZM154.846 26.4097C144.461 20.0053 132.718 16.168 120.975 12.8569C117.222 11.7984 113.436 10.784 109.56 10.3498C98.0751 9.06344 86.432 13.0258 76.8824 19.5344C73.0525 22.1449 69.3575 25.3556 67.7026 29.685C66.4749 32.8973 66.4836 36.4336 66.602 39.8704C67.0102 51.7239 68.5312 63.5075 70.0502 75.2702C71.2382 75.0558 71.3555 73.4131 71.1833 72.2187C69.6039 61.2492 68.718 50.1796 68.5333 39.0985C68.4817 35.9913 68.4979 32.8057 69.5732 29.89C71.5197 24.6116 76.5403 21.1599 81.4664 18.4432C87.6716 15.0218 94.4164 12.1453 101.5 11.9929C110.082 11.8078 118.215 15.6141 125.711 19.7946C129.89 22.125 134.128 24.7279 136.786 28.7061C139.2 32.3189 140.077 36.7215 140.711 41.02C142.721 54.6624 142.795 68.5071 142.864 82.2969C142.867 82.8548 142.833 83.494 142.396 83.8408C142.097 84.0778 141.689 84.1075 141.308 84.1274L127.309 84.8562C133.833 86.7316 141.069 85.9919 147.078 82.8353L162.633 74.6634C164.085 73.9009 165.584 73.0996 166.584 71.8004C167.961 70.0123 168.159 67.6067 168.224 65.3508C168.464 57.0185 167.63 48.6562 165.751 40.5352C166.403 49.3203 166.493 58.1468 166.022 66.9433C165.941 68.4454 165.821 70.0214 165.004 71.2846C164.131 72.634 162.615 73.3982 161.169 74.1004L144.382 82.2598C145.077 69.2161 144.538 56.1073 142.775 43.165C142.182 38.8119 141.425 34.3978 139.433 30.4823C134.726 21.2287 124.305 16.6511 114.675 12.7726C129.073 16.9848 143.636 21.2668 156.589 28.8342C156.757 27.7888 155.747 26.9656 154.846 26.4097ZM208.496 66.2252C209.242 68.1488 210.291 70.1994 212.22 70.9326C212.677 70.968 212.95 70.3619 212.8 69.9291C212.675 69.5673 212.38 69.3041 212.091 69.0452C212.058 69.0158 212.026 68.9868 211.993 68.9575C211.969 68.9359 211.945 68.914 211.922 68.8921C210.695 67.7517 210.092 66.14 209.499 64.5525C209.381 64.2383 209.264 63.9255 209.143 63.617C208.407 61.7501 207.255 59.8 205.327 59.242C204.14 58.8985 202.868 59.1547 201.67 59.4571C194.897 61.1659 188.497 64.333 183.031 68.6807C180.653 70.5719 178.247 73.2533 178.814 76.238C179.028 77.3653 179.654 78.3662 180.284 79.3249C181.484 81.149 182.747 82.9313 184.072 84.6671C184.651 85.4263 185.261 86.1935 186.08 86.6854C187.465 87.5184 189.207 87.4277 190.802 87.1641C199.045 85.8015 206.1 80.6788 212.813 75.7054C213.163 75.4465 213.526 75.1708 213.707 74.7757C213.888 74.3802 213.811 73.8301 213.427 73.6261C212.987 73.3922 212.468 73.7151 212.075 74.0226C205.828 78.9137 199.155 83.6929 191.409 85.4111C189.941 85.7368 188.322 85.9286 187.001 85.2095C186.013 84.6718 185.345 83.7047 184.715 82.7722L180.807 76.9905C180.478 76.5037 180.137 75.9802 180.125 75.3926C180.113 74.805 180.587 74.1692 181.17 74.2451C186.648 74.9574 192.151 75.4694 197.666 75.7799C198.105 75.8045 198.564 75.8244 198.964 75.6417C199.479 75.4064 199.793 74.8852 200.068 74.39C202.403 70.1812 204.186 65.667 205.358 60.9991C206.917 62.1166 207.644 64.0091 208.338 65.815C208.39 65.9522 208.443 66.0894 208.496 66.2252ZM203.675 60.6296C202.631 64.5336 201.088 68.3035 199.093 71.8179C198.759 72.4071 198.388 73.0139 197.804 73.3561C197.06 73.7916 196.134 73.7097 195.278 73.614L181.634 72.0916C183.898 69.1004 187.261 67.159 190.62 65.491C193.801 63.912 197.066 62.5036 200.397 61.2735C201.451 60.8841 202.557 60.5069 203.675 60.6296ZM128.284 143.906C128.621 147.081 128.976 150.322 130.325 153.216L128.117 133.561C128.026 132.752 128.053 131.722 128.797 131.392C129.427 138.79 130.366 146.162 131.611 153.481C131.758 154.35 130.453 154.847 129.72 154.357C128.987 153.868 128.752 152.915 128.586 152.049C127.371 145.742 126.703 139.329 126.592 132.907C125.045 133.212 123.961 134.711 123.648 136.256C123.335 137.801 123.637 139.396 123.938 140.943L126.848 155.884C127.301 158.213 127.755 160.62 127.255 162.94C125.33 154.151 123.782 145.28 122.618 136.359C107.848 145.39 88.8161 147.07 72.6925 140.765C69.1711 139.388 65.6736 137.562 63.3479 134.581C61.5157 132.233 60.5381 129.317 60.0256 126.383C58.2066 115.962 61.9344 105.332 66.994 96.0422C67.1258 95.8001 67.259 95.5574 67.3925 95.314C69.2031 92.0113 71.0895 88.5705 70.9453 84.835C70.9358 84.5882 70.9183 84.3364 70.9011 84.0832C70.8209 82.9205 70.7383 81.7245 71.4007 80.8028C72.289 82.4186 72.6271 84.3307 72.3473 86.1534C87.6382 85.4954 102.952 85.3626 118.252 85.756C118.43 86.4595 117.411 86.7862 116.686 86.7754C102.407 86.5623 88.122 86.8057 73.8592 87.5045C73.4078 87.5268 72.9335 87.5561 72.5506 87.7968C72.1477 88.0497 71.9131 88.4936 71.6967 88.917C67.6487 96.8374 63.5875 104.873 61.631 113.55C60.6247 118.012 60.2394 122.896 62.3015 126.979C63.0839 128.528 64.1903 129.896 65.4258 131.114C72.0581 137.656 81.9896 139.662 91.3043 139.505C97.2492 139.405 103.181 138.551 108.912 136.968C114.988 135.291 121.048 132.647 125.195 127.9C127.63 125.113 129.286 121.737 130.736 118.331C133.504 111.828 135.627 105.05 137.063 98.1302C137.963 98.3197 137.976 99.5919 137.768 100.488C135.199 111.57 132.213 123.384 123.752 130.988C116.11 137.856 105.341 139.987 95.0819 140.561C89.1559 140.893 83.1365 140.789 77.3965 139.278C71.6569 137.768 66.1762 134.746 62.5324 130.061C63.5953 134.113 67.1953 137.005 70.9432 138.877C80.7838 143.791 92.4046 143.531 103.271 141.823C110.509 140.685 117.939 138.818 123.572 134.132C128.387 130.127 131.455 124.406 133.765 118.585C136.321 112.141 138.095 105.386 139.034 98.5175C139.619 98.1481 140.052 99.1813 139.978 99.869C138.712 111.641 134.202 123.048 127.075 132.502L128.284 143.906ZM121.441 164.037C120.813 162.976 120.409 161.784 120.262 160.561L119.36 163.618L117.083 154.935C116.906 154.261 116.476 153.419 115.796 153.563C115.133 153.704 115.059 154.613 115.158 155.283C115.654 158.651 116.6 161.953 117.962 165.073L115.541 162.948C115.424 163.96 115.69 165.011 116.275 165.845C115.013 164.916 113.322 164.599 111.81 165.009C112.891 166.51 114.357 167.73 116.029 168.52L113.984 165.664C115.637 166.619 117.369 167.437 119.158 168.107L117.424 165.933L119.566 166.527C117.927 162.798 116.257 158.928 116.297 154.855C116.917 158.168 117.826 161.427 119.008 164.584C119.208 165.119 119.431 165.672 119.858 166.051C120.284 166.431 120.978 166.574 121.425 166.218C121.773 165.942 121.874 165.466 121.953 165.029L122.918 159.679L123.978 166.313C124.781 164.284 127.393 163.776 129.576 163.762C132.457 163.744 135.361 164.062 138.257 164.378H138.257H138.257C143.478 164.949 148.674 165.517 153.675 164.113C153.528 164.886 153.272 165.639 152.915 166.34C156.951 165.753 161.035 165.495 165.113 165.57C166.835 165.602 168.563 165.693 170.291 165.784C174.857 166.023 179.424 166.263 183.899 165.415L154.203 165.154C154.76 165.121 155.188 164.473 154.998 163.948C154.807 163.422 154.064 163.198 153.615 163.529C153.323 162.601 152.01 162.188 151.239 162.782C151.686 161.404 152.57 160.172 153.732 159.306C152.42 159.236 151.089 159.637 150.035 160.42L153.229 145.638C152.959 145.405 152.508 145.561 152.309 145.857C152.112 146.149 152.089 146.52 152.068 146.873L152.068 146.884C151.769 151.932 149.989 156.883 147.005 160.966L145.834 157.576L144.155 161.625C143.394 161.035 142.314 160.887 141.422 161.248C141.65 162.114 142.342 162.842 143.196 163.113L143.593 162.049L146.216 163.806C145.214 162.755 144.997 161.036 145.706 159.769L147.293 162.432L150.37 156.346C150.388 158.79 149.34 161.099 148.314 163.317C149.43 162.443 150.389 161.37 151.132 160.163C151.849 161.434 151.066 163.137 149.818 163.894C148.57 164.65 147.027 164.691 145.569 164.629C143.345 164.535 141.104 164.256 138.866 163.977C133.839 163.35 128.825 162.725 124.05 164.205L123.362 157.856C122.31 159.757 121.652 161.874 121.441 164.037ZM151.401 164.206C151.293 164.077 151.294 163.87 151.402 163.742L151.489 163.775C151.635 163.426 152.248 163.454 152.361 163.815C152.078 164.019 151.746 164.155 151.401 164.206ZM167.625 96.7501C164.166 95.0022 160.05 95.4738 156.211 96C155.127 96.1487 154.021 96.3048 153.038 96.7878C152.055 97.2709 151.2 98.1457 151.03 99.2275C141.654 98.0567 132.669 93.9298 125.672 87.5797C124.153 86.2016 122.603 84.239 123.286 82.3053C123.501 81.6975 123.919 81.1848 124.353 80.7084C127.616 77.1317 132.113 74.9806 136.492 72.9158C131.529 73.351 126.768 75.7647 123.483 79.5103C122.731 80.3686 122.036 81.3277 121.777 82.4395C121.137 85.1849 123.27 87.7604 125.403 89.6024C132.213 95.4792 140.778 99.2956 149.701 100.429C150.236 100.497 150.264 101.249 150.215 101.786C149.998 104.176 151.3 106.508 153.105 108.088C154.911 109.669 157.172 110.618 159.415 111.468C166.364 114.099 173.575 116.038 180.906 117.245C181.391 117.324 182.056 117.287 182.158 116.806C180.466 115.687 178.43 115.261 176.439 114.844C176.331 114.821 176.224 114.799 176.116 114.776C171.068 113.713 166.088 112.329 161.215 110.635C159.216 109.94 157.212 109.181 155.469 107.98C153.726 106.779 152.246 105.083 151.688 103.042C151.413 102.034 151.787 100.528 152.824 100.655C157.048 101.172 161.388 101.682 165.513 100.634C166.446 100.397 167.419 100.04 167.988 99.2626C168.557 98.4855 168.484 97.1846 167.625 96.7501ZM156.97 99.5417C155.52 99.2919 154.038 99.2251 152.572 99.3431C153.285 97.9896 155.025 97.6333 156.541 97.4267C159.835 96.9783 163.266 96.5407 166.422 97.5851C166.631 97.6542 166.854 97.7422 166.967 97.9306C167.115 98.1788 167.007 98.5165 166.796 98.7141C166.585 98.912 166.297 99.0016 166.019 99.0795C163.086 99.899 159.971 100.058 156.97 99.5417ZM108.989 167.832C111.415 167.764 113.856 168.3 116.031 169.379C115.45 170.214 114.282 170.331 113.265 170.37L86.6835 171.379C86.4398 171.349 86.3939 170.973 86.5665 170.798C86.7391 170.623 87.0088 170.601 87.2539 170.589L113.202 169.323C111.703 169.186 110.24 168.668 108.989 167.832ZM57.8341 79.9226C57.4555 81.7343 58.988 83.6669 60.8337 83.8038C57.8156 88.3524 52.379 90.5968 47.1555 92.1816C43.8953 93.1703 40.2788 93.9824 37.1707 92.5871C36.785 92.8228 37.1963 93.4033 37.6035 93.5995C40.6281 95.0568 44.2139 94.2447 47.4313 93.2846C52.1491 91.8765 57.0126 90.0568 60.2229 86.3237C60.3543 86.1709 60.4851 86.0139 60.6169 85.8554V85.8551H60.6173C61.4435 84.862 62.3052 83.8264 63.5474 83.5964C67.5472 82.8568 70.8785 80.3518 74.17 77.8764L74.1704 77.8761L74.1707 77.8757C74.9171 77.3144 75.6614 76.7545 76.4111 76.2175C80.9689 72.9509 86.0238 70.3794 91.3474 68.6197C91.8177 68.464 92.3894 68.1758 92.3476 67.6822C85.747 68.288 79.9774 72.2241 74.6575 76.178L74.4802 76.3102C70.8647 78.998 67.0864 81.8067 62.6376 82.4729C64.0908 81.3267 63.7841 78.6784 62.1444 77.8198C60.505 76.9611 58.213 78.111 57.8341 79.9226ZM59.0659 81.0297C58.7692 80.1509 59.2274 79.1055 60.0412 78.6605C60.2721 78.5341 60.5303 78.4498 60.7939 78.4495C61.6626 78.4488 62.2974 79.3782 62.3032 80.2473C62.3089 81.1163 61.8683 81.9176 61.4402 82.6741C60.4386 82.5207 59.3902 81.9895 59.0659 81.0297ZM157.836 61.6655C157.59 61.3914 157.665 61.0226 157.744 60.6404C157.799 60.3703 157.856 60.0936 157.802 59.8394C157.754 59.6186 157.626 59.4308 157.497 59.2424C157.382 59.0755 157.268 58.9083 157.209 58.7175C157.222 58.4653 157.56 58.3359 157.789 58.4407C158.019 58.5452 158.148 58.792 158.228 59.0313C158.521 59.9051 158.37 60.9151 157.836 61.6655ZM135.584 42.4928C136.2 41.0348 137.419 39.7417 138.973 39.4457C139.477 39.3499 139.461 38.5203 139.02 38.2597C138.579 37.9988 138.013 38.1532 137.551 38.373C135.397 39.3985 134.037 41.6551 133.504 43.9801C132.972 46.3055 133.148 48.727 133.327 51.1056L134.279 63.7495C134.312 64.1793 134.351 64.6307 134.59 64.9894C135.078 65.7196 136.124 65.7425 137 65.6869L141.435 65.4051C140.45 64.6324 139.126 64.3074 137.895 64.5346C137.176 64.6678 136.453 64.1932 136.072 63.5688C135.691 62.9445 135.579 62.1975 135.485 61.4723C134.867 56.7272 134.64 51.9312 134.807 47.1486C134.863 45.5672 134.97 43.9508 135.584 42.4928ZM146.91 154.723C146.658 154.905 146.406 154.489 146.369 154.18C144.655 139.771 144.397 125.233 144.14 110.725L143.967 100.945C143.962 100.666 143.966 100.361 144.145 100.147C144.453 99.7797 145.101 99.9482 145.371 100.345C145.64 100.742 145.64 101.256 145.631 101.736C145.367 116.013 145.541 130.317 146.908 144.531C146.924 144.704 146.941 144.877 146.958 145.05C147.271 148.279 147.59 151.557 146.91 154.723ZM132.659 63.8975C132.284 63.6912 131.82 63.8078 131.41 63.9295C112.406 69.5498 93.4459 75.3454 74.765 81.9601C74.4155 82.0838 74.0157 82.2622 73.9354 82.6246C73.8505 83.0079 74.2115 83.3743 74.5978 83.4454C74.9842 83.5165 75.3749 83.3787 75.7437 83.2428C94.465 76.356 113.468 70.2352 132.689 64.9007C133.102 64.7861 133.035 64.1035 132.659 63.8975Z" fill="#00160A"/>
<path fill-rule="evenodd" clip-rule="evenodd" d="M200.366 149.874C199.923 150.068 199.444 150.249 198.968 150.167C198.492 150.086 198.046 149.638 198.142 149.165C199.016 144.834 197.919 140.144 195.212 136.651C194.264 135.427 193.134 134.351 192.21 133.108C191.628 132.325 191.11 131.341 191.405 130.411C191.825 129.088 193.518 128.766 194.903 128.671C198.123 128.452 201.344 128.232 204.564 128.013C206.047 127.912 207.756 127.897 208.747 129.006C211.504 132.094 216.878 132.302 219.865 129.435C220.327 128.992 220.909 129.875 220.891 130.515C220.833 132.529 220.003 134.51 218.609 135.964C218.28 136.307 217.859 136.643 217.387 136.594C216.914 136.545 216.565 135.866 216.942 135.577C217.751 134.956 218.574 134.319 219.141 133.471C219.708 132.624 219.983 131.513 219.597 130.57C217.516 133.201 215.416 135.817 213.297 138.417C209.622 142.924 205.691 147.535 200.366 149.874ZM206.174 136.61C205.645 136.756 205.081 136.644 204.553 136.494C200.752 135.421 197.251 132.451 193.363 133.146C197.896 136.797 200.303 142.919 199.47 148.679C202.457 148.04 204.816 145.81 206.931 143.607C210.063 140.345 213.036 136.932 215.837 133.383C213.824 133.366 211.818 132.785 210.107 131.724C207.994 132.247 208.272 136.029 206.174 136.61ZM208.935 130.613C207.675 129.129 205.413 129.175 203.474 129.345C200.945 129.567 198.416 129.79 195.887 130.012C194.86 130.102 193.681 130.282 193.146 131.163C197.523 132.079 201.79 133.519 205.828 135.44C206.348 133.809 207.388 132.348 208.761 131.325C208.915 131.209 209.092 131.062 209.071 130.87C209.061 130.773 208.998 130.689 208.935 130.613Z" fill="#FFB61D"/>
<path fill-rule="evenodd" clip-rule="evenodd" d="M21.4439 95.218C17.6348 93.6946 13.0955 94.1466 9.6614 96.3908C9.32895 96.6079 8.85096 96.3658 8.68638 96.0045C8.52181 95.6427 8.58336 95.2224 8.66754 94.8343C9.76432 89.7777 14.1336 85.9087 18.9927 84.1305C23.8517 82.3526 29.1667 82.3475 34.3318 82.6516C34.8443 82.6816 35.3799 82.7217 35.8171 82.9911C36.2544 83.2601 36.5487 83.8355 36.3306 84.3004C34.2988 88.6353 32.7683 93.2044 31.7793 97.8882C31.6188 98.6477 30.8333 99.1517 30.0597 99.2151C29.286 99.2785 28.5279 98.9922 27.8257 98.6612C25.6375 97.6297 23.6901 96.1164 21.4439 95.218ZM21.8793 90.1017C21.5398 90.3774 21.0092 90.2318 20.6898 89.9331C20.3704 89.6341 20.1884 89.2208 19.9373 88.8625C18.5905 86.9413 15.4999 87.1007 13.6679 88.5665C11.8359 90.0322 10.9494 92.3485 10.1422 94.5515C15.5167 92.217 22.1364 93.0548 26.7601 96.6547C27.3911 97.1462 28.0175 97.6998 28.7948 97.8892C29.5722 98.0783 30.5515 97.7382 30.7484 96.9629C31.8005 92.8205 33.0967 88.7398 34.6282 84.7497C31.6893 88.4023 25.5178 87.1456 21.8793 90.1017ZM20.7098 87.8943C21.0116 88.2732 21.5596 88.374 22.0366 88.2884C22.5136 88.2027 22.947 87.9651 23.3915 87.7719C24.9218 87.1068 26.6168 86.9585 28.2572 86.6544C29.8979 86.35 31.5901 85.8352 32.7451 84.6311C30.1392 84.6233 27.5334 84.6156 24.9275 84.6075C22.3088 84.5997 19.4868 84.6554 17.383 86.2148C18.6637 86.2613 19.9117 86.8914 20.7098 87.8943Z" fill="#FFB61D"/>
<path fill-rule="evenodd" clip-rule="evenodd" d="M143.821 94.8691C143.815 92.5771 143.809 90.2848 143.803 87.9928C143.801 87.3347 143.8 86.6764 143.798 86.018C143.797 85.5642 143.873 84.9962 144.304 84.855C144.63 84.7484 144.99 84.9827 145.142 85.2905C145.295 85.598 145.293 85.9563 145.288 86.2995C145.24 89.4983 145.192 92.6968 145.145 95.8953C145.138 96.3554 145.061 96.9214 144.63 97.0829C143.912 96.676 143.824 95.6947 143.821 94.8691Z" fill="#00160A"/>
<path fill-rule="evenodd" clip-rule="evenodd" d="M139.245 92.7474C138.913 92.8931 138.742 92.3463 138.793 91.9876C138.977 90.7042 139.161 89.4178 139.473 88.1594C139.667 87.3759 139.947 86.5517 140.594 86.0693C141.242 85.5866 142.353 85.6712 142.669 86.4135C142.823 86.7732 142.759 87.1841 142.688 87.5688C142.253 89.9498 141.666 92.3035 140.933 94.6103C140.902 94.7081 140.868 94.8102 140.794 94.8813C140.613 95.0543 140.288 94.938 140.162 94.7215C140.038 94.5051 140.054 94.2385 140.074 93.9893C140.372 93.9674 140.511 93.6168 140.582 93.3269C140.874 92.1423 141.167 90.9581 141.459 89.7735C141.686 88.8518 141.894 87.8021 141.365 87.0139C140.821 87.3486 140.617 88.0256 140.455 88.6431C140.129 89.8854 139.804 91.1276 139.479 92.3699C139.44 92.5182 139.385 92.6857 139.245 92.7474Z" fill="#00160A"/>
</svg>
