<svg width="389" height="322" viewBox="0 0 389 322" fill="none" xmlns="http://www.w3.org/2000/svg">
<path d="M245.589 280.729C257.606 274.971 273.774 270.972 288.07 262.42C293.612 259.105 300.02 257.463 305.618 253.87C316.712 246.751 328.644 240.916 339.57 233.566C353.348 224.297 366.551 214.081 376.892 200.859C379.81 197.13 381.838 192.517 383.467 188.014C385.216 183.178 383.497 179.576 378.79 177.096C375.369 175.293 371.747 173.611 368.014 172.71C355.391 169.665 342.562 170.81 329.867 171.984C321.307 172.775 312.844 174.744 304.38 176.4C297.082 177.828 289.78 179.327 282.595 181.226C275.848 183.007 269.336 185.701 262.567 187.374C251.322 190.155 240.195 193.374 229.506 197.729C212.913 204.486 195.696 209.754 179.97 218.662C173.92 222.089 167.208 224.213 161.036 227.666C150.568 233.523 139.517 238.313 129.526 245.094C120.404 251.285 110.687 256.673 101.977 263.383C91.8739 271.165 82.0943 279.602 75.1525 290.529C72.9076 294.063 71.3906 298.504 71.0204 302.664C70.6541 306.784 74.1 309.348 77.7482 311.342C87.1287 316.469 97.535 316.943 107.515 316.303C120.136 315.497 132.812 314.757 145.382 311.868C158.194 308.923 171.289 306.876 183.973 303.384C195.369 300.249 206.445 295.9 217.566 291.823C226.01 288.727 234.303 285.218 245.589 280.729ZM144.033 39.7531C135.421 43.9126 123.847 47.4178 113.106 53.2408C103.422 58.4911 93.211 62.8484 83.6085 68.3779C76.3332 72.5687 68.6274 76.0453 61.5339 80.5092C49.7736 87.909 38.2094 95.6075 27.6044 104.705C19.8662 111.343 13.1348 118.728 7.73479 127.346C3.36389 134.322 3.99617 141.296 10.0053 144.553C14.396 146.933 19.3585 148.705 24.2715 149.581C38.6743 152.145 53.1314 150.374 67.4387 148.535C76.6719 147.349 85.742 144.81 94.8443 142.706C107.453 139.795 120.256 137.453 132.551 133.533C147.508 128.765 161.78 122.007 176.912 117.523C183.753 115.495 189.982 111.437 196.55 108.434C206.211 104.016 216.345 100.827 225.725 95.5387C233.23 91.3072 241.101 87.6831 248.478 83.1025C257.229 77.6704 266.884 73.5005 275.01 67.2935C287.196 57.9873 300.004 49.2826 309.76 37.0008C313.19 32.6845 315.575 28.0717 317.382 23.0937C319.242 17.9779 318.049 14.9967 313.594 11.7668C306.845 6.87445 298.867 5.66724 290.976 5.56195C280.204 5.41814 269.416 5.34115 258.638 7.10031C245.146 9.30145 231.699 11.6498 218.442 14.9363C209.361 17.1862 200.347 19.7621 191.417 22.554C181.977 25.5079 172.636 28.7906 163.32 32.1238C157.604 34.1689 152.019 36.5769 144.033 39.7531ZM267.696 180.038C276.973 177.631 286.22 175.1 295.541 172.874C299.723 171.874 304.053 171.495 308.311 170.811C318.248 169.215 328.036 166.718 338.206 166.602C346.146 166.511 354.056 165.907 362.016 166.743C367.63 167.335 372.843 168.784 378.082 170.886C386.255 174.166 390.703 182.051 387.679 191.585C385.692 197.844 382.458 203.495 377.405 207.999C375.098 210.053 373.567 213.013 371.183 214.939C360.549 223.53 350.103 232.436 338.864 240.174C329.606 246.549 319.199 251.223 309.545 257.056C301.075 262.175 292.081 266.187 283.335 270.713C261.051 282.248 237.205 289.855 214.127 299.365C206.198 302.631 197.542 304.13 189.223 306.453C184.361 307.812 179.545 309.353 174.643 310.548C167.422 312.31 160.149 313.858 152.891 315.458C149.153 316.282 145.398 317.03 141.649 317.806C129.133 320.4 116.417 321.292 103.701 321.33C95.0987 321.356 86.2662 321.267 78.3031 317.101C75.5592 315.665 72.8532 313.906 70.6281 311.774C66.4671 307.787 64.8951 302.801 67.0347 297.21C69.3736 291.09 72.1029 285.265 76.7383 280.316C87.948 268.346 99.923 257.458 114.341 249.369C121.222 245.508 127.571 240.709 134.327 236.606C140.055 233.128 146.017 230.032 151.886 226.787C152.914 226.22 153.996 225.755 154.699 224.196C150.167 225.456 145.642 226.747 141.098 227.97C137.395 228.967 133.706 230.076 129.946 230.803C113.465 233.989 97.0365 237.506 80.1653 238.156C70.7559 238.517 61.4076 238.664 52.116 236.695C46.5125 235.507 41.2182 233.219 37.3719 229.308C33.6116 225.486 31.8322 220.099 34.0415 214.51C37.0709 206.848 41.1383 200.044 46.9616 193.845C59.1295 180.896 73.8477 171.382 88.1168 161.277C94.939 156.446 102.758 153.024 110.128 148.968C114.947 146.315 119.769 143.67 125.048 140.769C116.743 142.75 108.888 144.499 101.1 146.509C86.4432 150.29 71.6066 152.809 56.5724 154.721C46.3934 156.015 36.3678 155.436 26.3413 154.915C18.9428 154.531 11.6105 152.521 5.61283 147.28C1.18744 143.41 -1.12504 135.756 1.61989 130.132C6.09904 120.951 10.9425 112.349 19.427 105.97C25.1437 101.673 29.5277 95.7207 35.757 91.8205C45.9066 85.4685 55.8562 78.7973 65.8705 72.2327C73.5393 67.2045 81.6629 63.1075 90.0357 59.3539C97.2447 56.1223 104.017 51.9244 111.014 48.2109C112.511 47.4164 114.127 46.8412 115.707 46.212C134.907 38.5683 154.023 30.7015 173.356 23.4115C180.96 20.5437 189.054 18.9813 196.917 16.7985C198.085 16.4738 199.225 16.037 200.355 15.5942C217.04 9.06036 234.597 6.30735 252.126 3.22347C263.567 1.21202 275.035 0.684218 286.557 0.483284C295.294 0.329664 303.671 2.09436 311.975 5.11614C322.128 8.81095 325.021 18.5102 321.039 27.6424C318.85 32.6636 315.705 37.4251 312.23 41.6804C308.597 46.1309 304.28 50.1082 299.854 53.8015C292.496 59.941 285.113 66.133 277.188 71.4843C267.469 78.0471 257.236 83.8624 247.117 89.813C242.164 92.7264 236.963 95.2193 230.486 98.6344C237.139 96.9527 242.282 95.6752 247.415 94.354C263.449 90.2253 279.452 86.3092 296.092 84.8467C307.662 83.8299 319.112 82.9315 330.651 84.208C338.195 85.0425 345.352 86.9569 351.191 92.3702C354.942 95.8466 356.331 99.9268 355.339 104.81C354.325 109.804 352.444 114.225 349.335 118.563C339.325 132.526 326.392 143.016 312.216 152.261C302.587 158.54 293.02 164.909 283.406 171.209C282.603 171.734 281.63 171.993 280.764 172.431C276.286 174.685 271.819 176.958 267.347 179.225C267.463 179.496 267.581 179.766 267.696 180.038Z" fill="#3D4784"/>
</svg>
