<svg width="275" height="212" viewBox="0 0 275 212" fill="none" xmlns="http://www.w3.org/2000/svg">
<path d="M274.921 1.03754V7.43458C274.921 31.6844 275.162 55.9381 274.801 80.1821C274.66 89.7131 273.255 99.2015 270.469 108.459C267.418 118.597 264.181 128.585 259.041 137.928C254.108 146.892 248.838 155.559 241.819 163.078C238.664 166.459 235.886 170.229 232.508 173.362C225.029 180.299 217.204 186.886 208.19 191.78C201.269 195.537 194.367 199.545 187.015 202.231C178.09 205.492 169.106 208.618 159.449 209.878C146.477 211.571 133.519 211.233 120.648 210.557C107.426 209.862 94.7426 205.724 82.5974 200.275C74.8738 196.808 67.414 192.893 60.4672 188.015C47.4395 178.864 35.9043 168.243 26.4583 155.311C20.1667 146.7 14.7533 137.607 10.6839 127.831C7.46136 120.089 4.31646 112.078 2.91313 103.883C1.53199 95.8204 -0.0986663 87.6933 0.00467281 79.3153C0.30095 55.2632 0.0968781 31.2055 0.109193 7.1486C0.110143 5.26452 0.264498 3.37937 0.409378 0.0911742C2.09158 1.97526 3.27439 2.73946 3.55848 3.75376C3.96283 5.19852 3.73 6.82853 3.73047 8.37905C3.73982 31.8532 3.5306 55.3293 3.87204 78.7995C3.97946 86.2175 5.41452 93.6366 6.49168 101.019C7.97082 111.15 11.7004 120.685 15.8722 129.876C19.8268 138.587 24.7642 146.942 30.7552 154.511C34.8143 159.639 38.7203 165.043 43.5493 169.369C50.3913 175.497 57.1869 181.819 65.3429 186.34C68.5302 188.108 71.4896 190.286 74.6634 192.08C84.945 197.89 96.109 201.445 107.463 204.36C111.514 205.4 115.877 205.208 119.944 206.204C127.419 208.033 134.962 207.297 142.452 207.184C155.932 206.984 169.048 204.705 181.773 199.863C192.62 195.735 203.005 190.875 212.55 184.284C222.745 177.245 231.845 169.09 239.79 159.465C245.335 152.746 250.366 145.739 254.594 138.218C260.047 128.515 263.808 118.044 266.726 107.295C269.411 97.4019 270.367 87.3259 270.313 77.0822C270.193 54.3847 270.277 31.6874 270.28 8.98901C270.28 6.67921 269.894 4.22593 271.552 2.32339C272.108 1.68343 273.322 1.61453 274.921 1.03754Z" fill="#E5951A"/>
<path d="M251.07 0.250115C252.495 2.05377 253.553 2.87809 253.872 3.92632C254.252 5.17429 254.014 6.61431 254.015 7.97183C254.018 30.0874 253.941 52.2029 254.045 74.3175C254.103 86.7236 252.078 98.7294 248.14 110.471C242.408 127.557 233.412 142.615 220.487 155.22C216.067 159.53 211.505 163.717 206.76 167.664C203.978 169.977 200.808 171.881 197.64 173.664C186.373 180.002 174.646 185.294 161.945 188.055C157.85 188.944 153.65 189.501 149.469 189.79C145.026 190.097 140.54 189.722 136.09 189.962C123.204 190.656 110.901 188.067 98.7968 183.921C85.3434 179.314 73.3852 172.225 62.4753 163.157C51.7477 154.241 43.1214 143.718 36.1271 131.64C30.7851 122.416 26.5305 112.796 24.1664 102.485C22.5491 95.4324 21.0259 88.2742 21.0372 80.922C21.0747 56.0904 21.0334 31.2597 21.0491 6.42806C21.05 4.76988 21.2763 3.11264 21.505 0C23.1362 2.04311 24.2451 2.86637 24.5149 3.90785C24.8929 5.36623 24.6632 6.98569 24.6636 8.53717C24.6704 31.2345 24.7119 53.9328 24.6522 76.6292C24.6324 84.1676 26.3095 91.4567 27.4468 98.833C28.7185 107.08 31.8324 114.795 35.4133 122.133C39.4327 130.369 43.8554 138.553 50.4376 145.255C53.5387 148.412 56.1104 152.113 59.3384 155.12C70.7099 165.715 83.5184 174.071 98.2586 179.307C104.033 181.36 109.771 183.47 115.903 184.238C121.019 184.88 126.105 185.846 131.238 186.244C139.536 186.889 147.806 185.969 156.049 185.072C158.701 184.783 161.351 184.241 163.929 183.546C179.686 179.293 194.149 172.307 207.147 162.443C210.176 160.146 212.837 157.297 215.372 154.441C217.532 152.008 220.221 150.256 222.406 147.754C233.496 135.055 240.791 120.463 245.788 104.518C248.046 97.3107 248.816 89.9634 249.399 82.4716C251.404 56.7459 249.895 30.994 250.422 5.26153C250.447 3.99414 250.739 2.73155 251.07 0.250115Z" fill="#E5951A"/>
<path d="M43.7245 0.719539C44.5081 2.30889 45.345 3.3667 45.5292 4.52843C45.7997 6.23213 45.6058 8.00951 45.6058 9.75492C45.6096 32.4523 45.3983 55.1526 45.7164 77.8451C45.856 87.8106 47.7565 97.5482 51.7138 106.903C54.8866 114.403 58.6083 121.497 63.477 127.988C70.4908 137.335 78.9367 145.16 88.8129 151.43C97.8261 157.156 107.616 161.003 118.037 163.129C128.026 165.165 138.001 166.147 148.309 164.499C154.201 163.556 160.01 162.747 165.659 160.774C176.433 157.01 186.2 151.685 195.243 144.563C211.199 132.003 220.576 115.402 226.547 96.5319C227.743 92.753 227.953 88.6232 228.326 84.628C230.749 58.7346 228.888 32.7744 229.49 6.85084C229.532 5.00458 228.841 2.86534 231.443 1.46325C231.972 2.33209 232.778 3.15535 232.979 4.10657C233.253 5.40887 233.079 6.80716 233.079 8.16475C233.079 30.4742 233.008 52.7838 233.116 75.0923C233.151 82.0585 232.766 88.9354 230.705 95.6098C228.05 104.209 225.357 112.693 220.748 120.652C216.838 127.404 211.839 133.176 207.149 139.222C204.479 142.664 200.678 145.252 197.293 148.114C191.984 152.605 186.06 156.251 179.891 159.343C170.79 163.907 161.132 167.228 151.053 168.687C145.537 169.485 139.812 168.699 134.2 168.985C120.754 169.669 108.235 165.733 96.4016 160.294C84.0828 154.631 73.3134 146.292 64.4476 135.867C54.2156 123.834 47.2261 110.044 43.5094 94.6983C42.5241 90.6286 42.43 86.3358 42.0179 82.1351C39.6277 57.7883 41.5438 33.3746 40.9445 8.99961C40.8786 6.31842 40.6032 3.55004 43.7245 0.719539Z" fill="#E5951A"/>
<path d="M211.823 1.44683C211.936 3.23202 212.134 4.92215 212.135 6.61236C212.145 30.6537 212.073 54.695 212.152 78.7363C212.175 85.7763 210.548 92.4438 207.991 98.8621C205.653 104.73 202.935 110.448 199.203 115.64C192.703 124.679 184.924 132.259 175.218 137.834C166.668 142.744 157.516 146.584 147.86 147.601C136.236 148.827 124.472 148.608 113.164 144.057C106.541 141.392 100.055 138.767 94.2199 134.519C87.7948 129.842 81.9698 124.616 77.2766 118.221C71.7804 110.732 67.5052 102.571 65.0344 93.5821C64.0783 90.102 63.3839 86.5016 63.0281 82.9109C60.4855 57.2278 62.5229 31.4691 61.8712 5.75217C61.8257 3.95343 61.878 2.22641 64.0074 1.37889C65.7849 1.63681 66.5054 2.82856 66.5345 4.57013C66.5578 5.92771 66.5452 7.28524 66.5461 8.64181C66.552 32.1014 66.4442 55.5629 66.6295 79.0215C66.6915 86.9273 68.8579 94.4443 71.9599 101.785C76.4349 112.372 83.4205 120.982 91.9518 128.382C97.4635 133.165 103.862 136.632 110.545 139.681C122.223 145.011 134.603 145.405 146.825 144.124C157.678 142.988 168.132 139.359 177.009 132.392C180.176 129.905 183.465 127.57 186.585 125.026C192.368 120.311 196.6 114.137 199.884 107.704C203.584 100.458 206.56 92.8259 207.633 84.3983C208.693 76.0765 208.407 67.8352 208.488 59.5628C208.657 42.5032 208.538 25.4406 208.544 8.37903C208.544 6.8285 208.458 5.26153 208.654 3.73326C208.846 2.24286 209.811 1.39931 211.823 1.44683Z" fill="#E5951A"/>
<path d="M189.941 1.22761C191.889 2.96048 192.289 4.9037 192.286 7.10975C192.251 28.8248 192.606 50.5477 192.137 72.2531C191.852 85.3962 187.478 97.2816 178.715 107.57C170.259 117.497 159.924 123.498 147.192 125.961C128.461 129.584 112.713 123.83 99.107 111.184C91.7413 104.338 87.0462 95.7765 84.5851 86.0759C83.6503 82.393 82.924 78.5415 82.8979 74.7616C82.7417 52.0769 82.8106 29.3921 82.8271 6.70729C82.829 4.67193 82.2655 2.32046 85.1998 1.36042C87.5435 3.01665 87.4989 5.49027 87.497 7.98237C87.4834 23.1056 87.4903 38.2297 87.4903 53.3529C87.4903 60.5267 87.5019 67.7003 87.4921 74.8741C87.4689 91.1657 95.0179 103.428 107.618 113.11C114.502 118.399 122.373 120.741 130.769 122.432C143.365 124.968 154.457 121.057 164.733 114.893C173.218 109.804 179.117 102.032 183.335 92.79C186.569 85.7025 187.662 78.5783 187.63 70.9886C187.542 49.8553 187.582 28.721 187.629 7.58772C187.633 5.39818 186.773 2.81109 189.941 1.22761Z" fill="#E5951A"/>
<path d="M169.316 1.04144C170.045 2.10127 170.948 2.91103 171.187 3.88456C171.504 5.16751 171.316 6.57942 171.316 7.936C171.32 29.0722 171.422 50.2093 171.278 71.3445C171.2 82.8266 166.569 92.7153 157.35 99.2394C146.944 106.602 135.286 108.827 123.106 102.458C115.661 98.5655 109.667 93.2536 106.408 85.5019C104.885 81.8801 103.913 77.7444 103.872 73.8298C103.636 51.338 103.747 28.8433 103.759 6.34961C103.76 4.65556 103.336 2.7723 105.685 1.50297C106.22 2.32427 107.086 3.11753 107.256 4.0388C107.535 5.54079 107.373 7.12718 107.373 8.6777C107.376 28.6502 107.4 48.6238 107.355 68.5964C107.345 73.0608 108.289 77.3226 109.543 81.5543C113.398 94.5791 128.01 103.474 141.875 101.082C154.521 98.9 162.739 90.9825 166.302 78.5638C166.821 76.7563 166.643 74.7248 166.645 72.7961C166.665 51.0781 166.639 29.3602 166.687 7.6422C166.692 5.44579 165.812 2.85569 169.316 1.04144Z" fill="#E5951A"/>
</svg>
