<svg width="183" height="171" viewBox="0 0 183 171" fill="none" xmlns="http://www.w3.org/2000/svg">
<path fill-rule="evenodd" clip-rule="evenodd" d="M153.508 134.51C151.634 135.327 148.944 136.72 147.502 137.585C139.623 142.245 130.207 143.207 127.228 139.7C125.402 137.538 123 137.249 123 139.171C123 142.342 127.9 144.696 134.531 144.696H139.095L136.692 148.059C129.822 157.619 129.198 166.508 135.155 169.534C139.719 171.889 146.301 170.592 159.177 164.682C162.828 163.001 163.117 162.904 162.78 163.817C160.378 170.111 174.983 171.072 181.565 165.066C184.304 162.568 181.95 161.799 177.914 163.865C170.515 167.661 167.585 164.586 172.773 158.437C174.743 156.131 172.773 152.719 159.802 158.773C142.554 166.796 139.671 167.613 139.143 164.682C137.701 156.179 146.638 143.302 157.784 137.874C167.489 133.117 160.234 131.532 153.508 134.51Z" fill="#FF9200"/>
<path fill-rule="evenodd" clip-rule="evenodd" d="M90.7019 59.9293C90.2588 59.4862 85.0641 57.9846 82.2575 57.443C76.989 56.4336 71.3757 58.3783 60.6909 64.8532C54.2653 68.743 51.5572 70.0725 48.332 70.8849C34.619 74.3809 26.8147 68.4232 30.4337 57.1722L30.803 56.0151L32.034 57.2212C39.0013 63.9915 51.6556 61.2344 56.2348 51.9036C61.9712 40.2587 43.3097 36.812 32.0831 47.4229L31.2954 48.1861C31.4185 46.8321 30.7045 44.0993 33.4372 36.1473C36.1208 28.3429 36.047 28.6137 36.0716 24.9454C36.0962 20.5386 34.7175 17.9536 31.6647 16.6734C26.6916 14.6054 25.2883 17.9536 29.055 18.0275C33.9051 18.1259 34.5206 23.7635 30.5322 33.7097C27.4794 41.3171 26.79 45.5516 27.9471 49.5892L28.538 51.7067L27.824 52.7897C18.9118 66.158 32.3293 77.7786 50.794 72.7563C55.6932 71.4268 56.6534 70.959 65.7625 65.4197C75.758 59.3633 79.1555 58.4524 85.5811 60.225C90.0372 61.4806 92.2037 61.3572 90.7019 59.9293ZM32.9941 52.4204C35.8746 47.0534 45.8947 41.7602 50.277 43.3112C57.6135 45.8963 50.3754 59.0679 41.6356 59.0433C37.0564 59.0186 31.6647 54.8823 32.9941 52.4204Z" fill="#E5951A"/>
<path fill-rule="evenodd" clip-rule="evenodd" d="M153.738 0.624575C148.753 1.73835 145.246 4.72795 138.723 13.5793C136.876 16.0999 135.03 18.1516 134.599 18.1516C133.307 18.1516 129.738 20.2617 128.323 23.1927C127.584 24.7171 126.169 26.7099 125.184 27.7065C121.738 31.9856 126.415 32.1614 118.538 41.8337C106.6 56.6055 101.799 63.9329 101.369 67.919C100.876 72.8432 92.2613 98.9869 93.9843 103.501C95.1533 106.666 99.092 107.311 104.815 105.669C115.092 102.738 133.492 89.8425 137 86.9704C141.492 83.277 154.107 62.057 155.646 61.9986C157.369 61.9397 160.938 60.2984 161.553 59.7122C164.385 57.0159 172.446 44.0611 173.184 40.7197C173.492 39.3131 173.061 38.0234 173.061 36.3821C173.061 35.3855 174.6 33.0996 177.615 29.5235C183.646 22.4307 183.707 22.255 180.138 15.2206C173.738 2.96927 165.123 -1.83741 153.738 0.624575ZM161.8 3.55551C167.092 4.78653 172.138 9.00709 175.153 14.576C178.046 20.0275 177.492 21.3757 168.077 32.3376C167.831 32.5718 167.092 31.0479 165.984 29.4651C161.738 23.2516 154.723 18.7378 145.307 17.8C141.677 17.4481 140.815 18.7962 147.154 10.5899C149.369 7.71746 150.661 6.13473 151.646 5.1382C153.307 3.55551 156.877 2.44178 161.8 3.55551ZM147.4 21.9619C155.954 24.5997 158.969 26.2994 163.954 35.1508C167.153 40.837 166.846 40.1924 163.215 44.3542C161.799 45.9955 161.677 45.9955 161.246 44.9404C159.769 41.0128 158.538 38.9027 155.03 35.6786C148.569 30.4028 146.785 31.8099 152.015 37.5545C157.984 44.1784 159.215 47.9887 156.938 52.9125C155.585 55.785 154.6 56.7812 154.292 55.5504C150.415 41.8921 141.861 36.089 132.261 35.2682C128.261 34.9166 127.707 34.0373 129.923 31.6925C131.276 30.2855 133.246 30.9306 138.046 31.5168C140.2 31.8099 140.323 28.9962 137.923 28.41C134.784 27.6476 133.738 26.6514 136.138 23.1343C138.354 20.0275 140.446 19.7928 147.4 21.9619ZM141.615 24.7755C140.446 25.479 140.138 26.9445 144.138 28.2927C147.953 29.5824 149.923 28.6442 149.923 27.003C149.923 26.3583 149.431 25.3617 147.769 25.0102C145.554 24.4824 142.292 24.3651 141.615 24.7755ZM135.584 38.9027C136.261 39.3131 136.323 39.3715 134.046 42.5956C128.446 50.5093 126.169 53.5571 124.507 55.3746C123.584 56.3712 121.492 59.3607 119.83 61.9986C114.476 70.6742 109.8 73.4294 107.769 69.0914C107.031 67.5674 107.215 65.8088 108.138 64.4602C110.784 60.5915 125.123 39.0784 128.63 38.1992C131.523 37.4372 134.538 38.258 135.584 38.9027ZM142.784 42.361C147.338 46.8748 147.953 49.7473 144.384 53.9091C137.738 61.7055 127.276 75.1291 123.092 78.0016C120.261 79.936 118.907 74.3082 119.708 70.7915C120.753 66.043 124.938 59.6538 134.169 48.106C139.461 41.3648 140.384 40.0166 142.784 42.361ZM149.123 56.8401C149.307 58.1294 150.046 59.888 148.569 61.8228C147.523 63.2294 144.138 68.5636 141.43 72.8427C136.754 80.346 130.6 85.3286 130.108 84.0394C129.492 82.4566 133 74.9533 136.261 70.6742C144.446 60.1815 148.323 51.6817 149.123 56.8401ZM114.907 75.598C115.092 80.2291 117.984 82.2219 122.784 80.9911C125.861 80.2291 125.861 80.1702 124.63 82.9254C124.077 84.1562 123.769 85.9148 123.892 86.853C124.199 88.7289 123.523 88.9631 118.785 91.8357C118.107 92.2457 117.246 92.0699 116.815 91.4253C114.354 87.8492 110.907 86.0322 107.03 85.446C103.153 84.8598 103.4 85.5049 104.569 79.6429L105.554 74.6602C106.354 74.6602 109.307 75.3049 112.077 74.1325C113.246 73.6636 114.477 73.1947 114.477 73.1947C114.477 73.1947 114.907 74.3082 114.907 75.598Z" fill="#3D4784"/>
<path fill-rule="evenodd" clip-rule="evenodd" d="M170.545 91.4342C164.145 93.7161 148.543 109.221 132.609 129.172C127.142 136.017 129.409 142.921 138.109 132.507L149.277 119.167C172.578 91.3754 183.813 88.0406 178.579 110.683C171.978 139.352 152.477 154.798 119.541 157.606C100.74 159.186 84.9058 154.564 59.2374 139.644C54.9371 137.128 54.9704 137.538 58.604 133.385C64.8044 126.305 72.3383 114.486 75.4051 107.114C81.7056 91.9607 83.139 84.3552 74.0384 100.62C67.2712 112.673 60.9041 121.507 53.2036 129.64L49.6367 133.443L46.2365 131.044C19.2679 112.439 0 112.731 0 131.805C0 153.394 28.2352 160.59 47.9699 144.032L52.1369 140.581C53.4036 141.283 62.3042 147.66 82.6723 156.904C117.408 172.642 158.244 162.638 174.512 134.438C187.413 112.146 184.979 86.2859 170.545 91.4342ZM21.9015 124.491C28.1352 125.954 46.0365 134.788 46.0365 136.426C46.0365 136.953 39.136 142.102 36.5692 143.447C23.7349 150.234 4.367 145.671 4.367 135.783C4.367 126.48 11.3008 122.034 21.9015 124.491Z" fill="#3D4784"/>
</svg>
