<svg width="241" height="257" viewBox="0 0 241 257" fill="none" xmlns="http://www.w3.org/2000/svg">
<path fill-rule="evenodd" clip-rule="evenodd" d="M187.48 159.638C183.382 161.24 178.641 163.645 178.201 168.024C183.768 163.741 190.645 161.185 197.659 160.792C192.813 166.896 186.696 171.986 179.812 175.638C173.629 178.919 165.802 182.418 165.272 189.396C171.912 181.49 182.12 176.704 192.444 176.656C185.839 186.33 175.248 193.192 163.719 195.267C164.115 198.239 176.897 204.607 180.62 205.832C183.272 217.223 184.421 231.996 187.072 243.387C187.724 246.19 188.299 249.411 186.583 251.721C184.88 254.013 181.664 254.408 178.816 254.61C167.591 255.408 152.233 256.206 141.009 257.004C139.665 250.915 138.321 244.827 136.977 238.738C118.043 240.496 36.874 259.096 21.9783 249.339C-35.524 211.669 37.8017 198.838 39.3776 152.976C39.7386 142.46 8.12187 124.078 8.62385 113.333C8.95164 106.316 10.0378 99.4624 13.5093 93.4375C16.9808 87.4129 22.4818 82.7718 28.4605 79.2218C20.2289 77.1061 13.9942 68.9007 14.161 60.4034C14.3278 51.9061 20.88 43.9518 29.188 42.161C25.2709 37.4929 19.103 35.3534 14.5977 31.2504C9.34944 26.4706 6.7121 18.7605 8.62385 11.9242C10.5356 5.08784 17.2667 -0.290863 24.359 0.0122058C30.1844 0.261169 35.311 3.94572 39.3776 8.12466C45.6839 14.6057 50.3743 22.6478 52.9101 31.3282C54.6002 37.1138 60.7946 40.0569 66.0259 43.0512C71.2569 46.0454 76.6897 51.261 75.2157 57.1052C73.2671 49.1077 102.228 58.6337 128.494 60.9659C131.981 61.2755 135.734 61.726 138.312 64.095C142.017 67.4992 147.579 68.741 152.379 67.2354C153.907 71.0217 155.03 75.2747 153.732 79.1456C152.434 83.0164 147.835 85.9708 144.159 84.1951C145.118 89.1319 146.078 94.0691 147.037 99.0059C156.437 99.119 165.835 99.311 175.232 99.5819C180.212 99.7254 185.417 99.952 189.745 102.419C194.073 104.887 199.866 101.391 204.143 92.4106C201.375 107.064 204.655 112.919 210.31 114.511C210.322 114.401 210.762 114.453 210.774 114.343C212.458 99.8618 222.284 87.0045 235.96 81.9181C234.75 84.7046 226.098 90.2087 220.089 97.2376C214.22 104.103 211.411 113.295 211.12 114.946C220.439 112.502 223.546 119.445 239.356 113.333C232.132 122.019 218.21 124.157 208.711 118.04C204.23 123.038 204.481 128.572 201.306 134.486C206.699 127.784 213.859 133.726 208.179 138.07C211.194 138.359 214.454 138.757 216.64 140.852C218.827 142.948 218.882 147.358 216.061 148.461C206.534 152.187 197.007 155.912 187.48 159.638Z" fill="#6E90C5"/>
<path fill-rule="evenodd" clip-rule="evenodd" d="M172.016 126.611C172.361 125.956 172.735 125.268 173.37 124.886C174.004 124.504 174.978 124.583 175.32 125.24C175.684 125.939 175.142 126.783 174.507 127.25C173.872 127.717 173.091 128.046 172.678 128.717C174.909 130.187 177.139 131.657 179.37 133.127C181.117 134.278 183.095 135.923 182.737 137.984C182.527 139.193 181.503 140.133 180.361 140.584C179.221 141.035 177.966 141.082 176.74 141.117C168.498 141.355 160.248 141.313 152.009 140.992C151.437 140.97 150.8 140.916 150.419 140.489C150.124 140.159 150.063 139.687 150.015 139.246C149.541 134.861 149.067 130.476 148.593 126.09C148.575 125.928 148.558 125.759 148.617 125.607C148.86 124.967 149.818 125.361 150.354 125.789C154.147 128.816 160.21 128.46 163.623 125.01C164.447 124.177 165.851 124.285 166.911 124.787C167.97 125.29 168.856 126.107 169.919 126.603C169.806 125.988 170.348 125.34 170.973 125.342C171.597 125.345 172.134 125.998 172.016 126.611Z" fill="white"/>
<path fill-rule="evenodd" clip-rule="evenodd" d="M39.2933 78.2117C39.2933 78.2117 38.3728 67.1839 40.6899 63.6388C43.0075 60.0937 51.8347 59.0266 51.8347 59.0266C51.8347 59.0266 76.0287 58.7102 89.101 59.21C102.173 59.7097 128.316 61.9499 128.316 61.9499C128.316 61.9499 131.713 62.6912 133.24 63.6388C134.768 64.5864 136.897 67.2759 136.897 67.2759C136.897 67.2759 141.533 67.9519 143.838 68.0435C146.144 68.1356 148.257 67.7287 148.257 67.7287C148.257 67.7287 151.195 76.2985 149.118 80.3835C147.04 84.4681 140.065 83.8346 140.065 83.8346L142.534 99.1219C142.534 99.1219 139.599 100.509 137.994 102.248C136.39 103.988 135.746 106.482 135.746 106.482L140.514 152.976C140.514 152.976 141.917 155.393 144.93 156.31C147.943 157.228 154.731 157.306 154.731 157.306C154.731 157.306 154.489 161.994 154.731 164.012C154.973 166.029 155.189 167.135 155.189 167.135L160.3 203.723C160.3 203.723 155.332 204.627 150.417 205.819C145.502 207.012 135.746 209.68 135.746 209.68C135.746 209.68 132.307 211.248 131.862 213.78C131.416 216.311 133.24 223.919 133.24 223.919L78.474 228.093C78.474 228.093 73.1446 228.194 71.3113 227.039C69.4781 225.884 68.9758 222.109 68.9758 222.109L61.5681 155.483C61.5681 155.483 49.7305 155.772 46.2734 153.799C42.8162 151.825 42.398 144.538 42.398 144.538C42.398 144.538 42.9722 140.407 42.398 137.541C42.2064 136.584 39.7029 126.216 38.8616 116.351C38.3855 110.769 44.9542 106.482 44.9542 106.482L39.2933 78.2117Z" fill="white"/>
<path fill-rule="evenodd" clip-rule="evenodd" d="M77.9363 62.8728C77.5102 63.4732 77.8668 64.3686 78.4823 64.7725C79.0977 65.1764 79.8732 65.2219 80.6086 65.2549C88.5982 65.6145 96.5875 65.9741 104.577 66.3337C105.356 66.3686 106.218 66.3765 106.808 65.867C107.397 65.3579 107.319 64.1431 106.55 64.021C97.6655 62.6082 88.6504 62.0217 79.6579 62.2712C79.0267 62.2885 78.3019 62.3576 77.9363 62.8728Z" fill="#E7EAEE"/>
<path fill-rule="evenodd" clip-rule="evenodd" d="M113.483 120.138L111.407 110.395C111.407 110.395 111.31 112.404 110.211 113.221C109.112 114.038 106.938 113.717 106.938 113.717C106.938 113.717 106.594 106.913 108.124 104.841C109.654 102.77 111.161 104.727 114.067 104.064C116.97 103.402 116.369 101.22 119.742 102.192C123.116 103.163 125.609 110.383 125.609 110.383C125.609 110.383 122.964 111.27 121.838 111.042C120.713 110.815 120.987 109.45 120.987 109.45C120.987 109.45 120.189 109.11 120.392 111.504C120.491 112.667 121.372 114.416 121.838 116.703C122.012 117.555 121.838 119.47 121.838 119.47C121.838 119.47 118.836 119.776 116.242 120.331C113.648 120.887 113.483 120.138 113.483 120.138Z" fill="#E7EAEE"/>
<path fill-rule="evenodd" clip-rule="evenodd" d="M39.7722 95.9023C38.7731 95.3646 37.9604 94.5436 37.1639 93.7354C35.1093 91.6501 33.0293 89.5309 31.6041 86.974C31.4681 86.7305 31.3347 86.451 31.4128 86.1835C31.4914 85.9159 31.8998 85.7641 32.0523 85.9971C34.5303 89.7796 37.6591 93.1346 41.2601 95.8696C40.9366 96.3051 40.2498 96.1596 39.7722 95.9023Z" fill="#00160A"/>
<path fill-rule="evenodd" clip-rule="evenodd" d="M42.7654 48.0271C43.3557 47.4187 43.6705 46.6008 43.9422 45.7978C44.7899 43.2947 45.3674 40.7002 45.6619 38.0738C45.7149 37.6007 45.8017 37.0559 46.212 36.8147C46.6738 39.0669 46.1019 41.3878 45.5334 43.6152C45.0337 45.5731 44.4803 47.6292 43.063 49.0697C42.9194 49.2155 42.7361 49.3639 42.5347 49.3305C42.2627 49.285 42.1537 48.9236 42.2506 48.6654C42.3479 48.4077 42.5734 48.2247 42.7654 48.0271Z" fill="#00160A"/>
<path fill-rule="evenodd" clip-rule="evenodd" d="M185.245 67.6695C185.526 67.5943 185.812 67.816 185.934 68.0798C186.057 68.3436 186.066 68.643 186.12 68.929C186.334 70.0449 187.34 70.9609 188.471 71.0684C188.612 71.3964 188.3 71.7244 188.053 71.9826C187.492 72.5695 187.138 73.351 187.066 74.16C187.019 74.6849 186.909 75.4157 186.381 75.4089C185.958 75.4033 185.772 74.8912 185.619 74.4959C185.247 73.5306 184.406 72.7585 183.412 72.4692C183.204 72.4083 183.116 72.1419 183.173 71.9322C183.231 71.7229 183.39 71.5591 183.542 71.4036C184.194 70.7336 184.857 69.9408 184.85 69.0056C184.846 68.4999 184.756 67.8003 185.245 67.6695Z" fill="#FFB61D"/>
<path fill-rule="evenodd" clip-rule="evenodd" d="M205.03 155.517C204.154 156.418 203.843 157.827 204.26 159.013C203.799 159.219 203.453 158.583 203.224 158.131C202.882 157.454 202.233 156.938 201.496 156.757C202.564 156.083 203.229 154.815 203.175 153.554C203.605 153.274 204.085 153.857 204.209 154.355C204.332 154.852 204.518 155.499 205.03 155.517Z" fill="#E7EAEE"/>
<path fill-rule="evenodd" clip-rule="evenodd" d="M197.551 157.206C198.059 158.013 198.782 158.683 199.625 159.129C199.927 159.289 199.653 159.734 199.403 159.968C198.773 160.557 198.374 161.387 198.308 162.247C197.756 161.694 197.206 161.143 196.655 160.59C196.435 160.37 196.203 160.028 196.392 159.781C196.97 159.028 197.37 158.139 197.551 157.206Z" fill="#E7EAEE"/>
<path fill-rule="evenodd" clip-rule="evenodd" d="M160.748 60.0965C161.25 56.9034 162.462 53.7653 164.591 51.3335C166.72 48.9018 169.828 47.2418 173.061 47.2444C176.293 47.247 179.557 49.0776 180.9 52.0174C181.595 53.5387 181.766 55.251 181.718 56.9226C181.628 60.1021 180.774 63.2575 179.249 66.0481C177.872 68.5644 175.894 70.8282 173.326 72.1046C170.757 73.3814 167.556 73.5527 165.06 72.1415C163.082 71.024 161.699 69.0183 161.04 66.8451C160.381 64.6718 160.396 62.34 160.748 60.0965ZM180.503 57.6801C180.561 55.7003 180.235 53.656 179.194 51.9712C178.561 50.9469 177.674 50.0804 176.636 49.471C173.286 47.5067 168.727 48.5621 165.944 51.2712C163.162 53.9802 161.956 57.9837 161.832 61.865C161.766 63.9354 161.988 66.0583 162.869 67.9332C163.749 69.8081 165.359 71.4121 167.366 71.9273C169.991 72.6014 172.761 71.3321 174.819 69.5688C178.254 66.6271 180.37 62.2002 180.503 57.6801Z" fill="#FFB61D"/>
<path fill-rule="evenodd" clip-rule="evenodd" d="M193.823 57.8792C193.288 58.5781 192.729 59.496 193.139 60.2741C193.286 60.5526 192.906 60.8764 192.604 60.7889C192.302 60.701 192.13 60.3816 192.05 60.0772C191.969 59.7729 191.943 59.4468 191.782 59.1766C191.62 58.9065 191.254 58.7186 190.986 58.885C190.607 58.8399 190.568 58.2673 190.788 57.9547C191.009 57.6421 191.372 57.4272 191.508 57.0695C191.615 56.7858 191.558 56.4679 191.609 56.1692C191.66 55.8705 191.914 55.5515 192.207 55.6278C192.197 56.1527 192.258 56.6979 192.525 57.1503C192.791 57.603 193.301 57.9416 193.823 57.8792Z" fill="#FFB61D"/>
<path fill-rule="evenodd" clip-rule="evenodd" d="M146.011 56.8444C146.429 56.3585 146.953 55.9426 147.569 55.7656C148.185 55.5887 148.9 55.6822 149.381 56.1057C149.904 56.5663 150.068 57.3362 149.957 58.0246C149.846 58.7129 149.498 59.3385 149.133 59.9322C148.659 60.7028 148.145 61.4487 147.592 62.1652C147.419 62.3888 147.23 62.6194 146.966 62.7194C146.616 62.8509 146.227 62.7228 145.883 62.5789C144.673 62.0731 143.548 61.3634 142.571 60.489C141.676 59.6883 140.85 58.5149 141.213 57.37C141.444 56.6404 142.149 56.1128 142.906 56.0001C143.663 55.8874 144.447 56.1541 145.049 56.6268C145.337 56.8526 145.772 57.122 146.011 56.8444ZM142.188 57.2682C141.617 58.0542 142.237 59.1559 142.957 59.8086C143.856 60.6232 144.922 61.2247 145.979 61.8195C146.115 61.8962 146.267 61.9751 146.419 61.9424C146.555 61.9131 146.656 61.8018 146.745 61.6955C147.461 60.8471 148.102 59.9359 148.659 58.9756C149.087 58.2372 149.402 57.1517 148.712 56.649C148.166 56.2511 147.37 56.5716 146.907 57.0638C146.444 57.5556 146.153 58.1982 145.647 58.646C145.252 58.0231 144.832 57.3764 144.191 57.0108C143.55 56.6456 142.622 56.6715 142.188 57.2682Z" fill="#FFB61D"/>
<path fill-rule="evenodd" clip-rule="evenodd" d="M137.826 35.3576C139.136 34.3363 140.593 33.5029 142.138 32.8912C143.085 32.5163 144.165 32.2277 145.101 32.6294C146.601 33.2726 146.893 35.4263 146.104 36.8545C145.315 38.2831 143.818 39.1491 142.394 39.945C139.6 41.5054 136.806 43.0658 134.012 44.6263C134.562 43.5284 133.941 42.2392 133.433 41.121C132.288 38.6028 131.689 35.8382 131.688 33.072C131.688 32.198 131.753 31.2981 132.137 30.5128C132.52 29.7275 133.285 29.076 134.159 29.0557C135.557 29.0227 136.486 30.4786 136.958 31.7948C137.371 32.9476 137.662 34.144 137.826 35.3576ZM143.747 33.3557C141.488 33.8148 139.382 35.0036 137.822 36.7012C137.669 36.8684 137.37 36.7948 137.229 36.6163C137.089 36.4378 137.062 36.1981 137.036 35.9727C136.86 34.4795 136.469 33.0115 135.88 31.6276C135.551 30.8566 135.001 30.0048 134.163 29.9913C133.542 29.9812 133.001 30.4786 132.772 31.0562C132.543 31.6337 132.562 32.2765 132.606 32.8965C132.851 36.3529 133.761 39.7616 135.27 42.8806C137.742 41.4956 140.213 40.1107 142.685 38.7257C143.456 38.2932 144.241 37.8506 144.84 37.2009C145.44 36.5513 145.835 35.6488 145.66 34.7823C145.486 33.9155 144.614 33.1798 143.747 33.3557Z" fill="#FFB61D"/>
<path fill-rule="evenodd" clip-rule="evenodd" d="M120.533 206.567C127.746 205.745 135.007 205.331 142.267 205.328C143.599 205.328 144.758 204.293 145.299 203.076C145.84 201.859 145.883 200.487 145.884 199.155C145.887 194.206 145.421 189.271 144.957 184.344C144.768 182.346 144.58 180.348 144.391 178.35C144.276 177.138 144.155 175.898 143.645 174.793C142.759 172.875 140.797 171.627 138.753 171.09C136.71 170.552 134.562 170.626 132.45 170.703C125.439 170.96 118.428 171.217 111.416 171.473C115.458 169.991 119.86 169.922 124.164 169.869C127.464 169.829 130.765 169.789 134.065 169.748C137.438 169.707 141.292 169.876 143.444 172.474C144.834 174.153 145.141 176.451 145.373 178.618C146.105 185.44 146.641 192.284 146.98 199.137C147.093 201.409 147.002 204.078 145.152 205.401C144.118 206.141 142.776 206.252 141.507 206.338C133.781 206.862 126.054 207.385 118.327 207.908C116.513 208.031 114.602 208.136 112.969 207.334C112.402 207.056 111.82 206.426 112.124 205.872C114.636 207.24 117.691 206.891 120.533 206.567Z" fill="#00160A"/>
<path fill-rule="evenodd" clip-rule="evenodd" d="M89.9738 97.122C90.1185 97.3384 90.1515 97.6082 90.1805 97.8667C90.2481 98.4686 90.3157 99.0709 90.3834 99.6733C90.4638 100.388 90.4803 101.252 89.8878 101.659C89.5722 101.877 89.1649 101.894 88.782 101.905C80.7217 102.123 72.6618 102.34 64.6018 102.558C64.0833 102.572 63.4833 102.55 63.1654 102.14C62.9659 101.883 62.9351 101.537 62.9167 101.212C62.8577 100.19 62.8415 99.1671 62.8674 98.1448C62.8716 97.9888 62.8806 97.8216 62.9771 97.6995C63.0929 97.553 63.2969 97.5173 63.4818 97.4921C71.81 96.3638 80.2501 96.0662 88.637 96.6042C89.1322 96.6362 89.698 96.7098 89.9738 97.122ZM89.6428 101.039C88.8241 100.597 89.6488 99.3009 89.3512 98.4194C89.0954 97.6623 88.1237 97.4831 87.3256 97.4376C79.726 97.0048 72.0865 97.2749 64.5361 98.2428C64.258 98.2785 63.9495 98.3319 63.7808 98.5558C63.614 98.7771 63.6441 99.0841 63.682 99.3584C63.741 99.783 63.7996 100.208 63.8582 100.633C63.9048 100.967 63.9755 101.342 64.2565 101.53C64.4606 101.666 64.7232 101.664 64.9678 101.658C73.1927 101.452 81.4179 101.246 89.6428 101.039Z" fill="#00160A"/>
<path fill-rule="evenodd" clip-rule="evenodd" d="M105.136 111.391C105.174 110.497 105.213 109.602 105.251 108.708C105.326 106.963 105.417 105.154 106.228 103.608C107.039 102.061 108.789 100.859 110.488 101.261C111.551 101.512 112.531 102.348 113.6 102.124C114.531 101.928 115.102 101.008 115.888 100.473C117.763 99.1979 120.375 100.383 121.925 102.037C123.596 103.82 124.682 106.142 124.979 108.568C125.005 108.774 125.017 109.005 124.885 109.164C124.775 109.296 124.595 109.342 124.428 109.38C123.783 109.528 123.138 109.676 122.492 109.824C121.943 109.95 121.373 110.076 120.821 109.962C120.269 109.847 119.739 109.422 119.694 108.86C119.529 112 121.881 115 121.226 118.076C120.982 117.943 120.739 117.81 120.495 117.677C121.07 114.592 118.321 111.606 118.895 108.522C118.971 108.113 119.135 107.679 119.5 107.481C119.865 107.283 120.442 107.508 120.427 107.923C120.405 108.588 121.122 109.084 121.787 109.079C122.452 109.073 123.057 108.716 123.626 108.37C123.828 108.247 123.773 107.943 123.688 107.721C123.059 106.072 122.232 104.497 121.231 103.043C120.554 102.06 119.739 101.088 118.614 100.689C117.49 100.29 116.004 100.697 115.59 101.816C115.105 103.127 113.274 103.215 111.929 102.837C110.585 102.459 109.075 101.87 107.876 102.585C106.872 103.183 106.536 104.457 106.348 105.61C106.026 107.588 105.877 109.594 105.904 111.598C105.959 111.904 106.348 112.002 106.659 111.994C108.295 111.952 109.814 110.662 110.12 109.054C110.561 109.561 110.718 110.248 110.861 110.904C111.355 113.178 111.848 115.451 112.342 117.725C112.494 118.425 112.316 119.501 111.612 119.373C111.293 116.894 110.819 114.434 110.196 112.013C109.018 112.281 107.84 112.548 106.662 112.816C106.3 112.898 105.896 112.974 105.579 112.781C105.143 112.514 105.114 111.903 105.136 111.391Z" fill="#00160A"/>
<path fill-rule="evenodd" clip-rule="evenodd" d="M139.603 173.141C140.204 173.792 139.27 174.995 139.82 175.689C140.106 176.05 139.903 176.622 139.524 176.883C139.145 177.144 138.66 177.179 138.201 177.206C130.308 177.664 122.415 178.123 114.522 178.582C113.985 178.613 113.344 178.594 113.051 178.144C112.923 177.947 112.892 177.705 112.865 177.472C112.792 176.866 112.72 176.259 112.648 175.652C112.626 175.462 112.605 175.258 112.695 175.089C112.842 174.809 113.209 174.748 113.524 174.721C121.82 173.988 130.124 173.37 138.437 172.864C138.85 172.839 139.322 172.836 139.603 173.141ZM138.697 174.165C138.671 174.015 138.637 173.852 138.518 173.758C138.399 173.665 138.232 173.672 138.081 173.682C130.721 174.219 123.361 174.756 116.001 175.292C115.406 175.335 114.789 175.385 114.269 175.678C113.75 175.971 113.358 176.582 113.514 177.158C113.562 177.336 113.665 177.505 113.823 177.601C114.017 177.719 114.259 177.71 114.485 177.698C122.256 177.276 130.026 176.855 137.797 176.433C138.72 176.383 138.853 175.077 138.697 174.165Z" fill="#00160A"/>
<path fill-rule="evenodd" clip-rule="evenodd" d="M145.829 166.073C147.226 169.749 147.672 173.706 148.106 177.615C149.114 186.696 150.122 195.777 151.131 204.858C150.381 204.92 150.035 203.957 149.941 203.21C148.414 190.991 147.922 178.615 145.339 166.576C145.502 166.408 145.666 166.24 145.829 166.073Z" fill="#00160A"/>
<path fill-rule="evenodd" clip-rule="evenodd" d="M100.764 102.815C100.547 102.723 100.551 102.383 100.718 102.216C100.885 102.049 101.137 102.008 101.372 101.978C103.127 101.755 104.896 101.646 106.665 101.653C106.571 102.408 105.597 102.629 104.837 102.664C103.56 102.723 102.284 102.782 101.007 102.841C100.925 102.844 100.84 102.848 100.764 102.815Z" fill="#00160A"/>
<path fill-rule="evenodd" clip-rule="evenodd" d="M110.666 195.165C110.521 192.463 110.375 189.76 110.229 187.057C109.837 179.782 109.432 172.433 107.407 165.434C107.148 164.541 106.853 163.634 106.28 162.901C104.846 161.066 102.192 160.855 99.8635 160.855C90.8857 160.856 81.9082 161.709 73.0912 163.401C72.1954 163.574 71.2639 163.771 70.5489 164.337C69.4131 165.238 69.1136 166.821 69.008 168.267C68.8153 170.906 69.0061 173.573 69.5724 176.158C69.2481 176.104 68.9242 176.051 68.6003 175.996C67.4123 173.522 66.8708 170.74 67.0444 168.001C67.1199 166.812 67.3386 165.6 67.9514 164.578C69.4762 162.035 72.8319 161.425 75.7795 161.11C83.2586 160.309 90.7654 159.769 98.282 159.493C101.308 159.381 104.726 159.466 106.803 161.669C107.847 162.778 108.376 164.267 108.791 165.732C110.234 170.822 110.632 176.141 111.023 181.417C111.404 186.572 111.786 191.727 112.168 196.882C112.258 198.094 112.346 199.324 112.101 200.514C111.302 204.391 107.173 206.75 103.242 207.219C99.3112 207.688 95.3539 206.789 91.3955 206.723C86.0725 206.635 80.7179 208.05 75.4681 207.166C73.9561 206.911 72.3483 206.376 71.5172 205.087C70.9404 204.193 70.8364 203.085 70.7484 202.025C70.1255 194.548 69.5029 187.071 68.8803 179.595C68.8386 179.094 69.2109 178.347 69.5957 178.671C70.2821 185.873 70.9686 193.075 71.6551 200.277C71.7479 201.252 71.849 202.255 72.3021 203.123C72.96 204.383 74.2875 205.185 75.6634 205.541C77.0398 205.898 78.4822 205.869 79.904 205.851C85.9184 205.772 91.9359 205.922 97.939 206.3C99.9469 206.426 101.976 206.577 103.959 206.24C105.942 205.903 107.91 205.019 109.141 203.428C110.894 201.163 110.821 198.026 110.666 195.165Z" fill="#00160A"/>
<path fill-rule="evenodd" clip-rule="evenodd" d="M100.46 99.8933C101.019 99.4567 100.549 98.5621 100.659 97.8606C100.815 96.8687 102.05 96.5279 103.048 96.4125C109.456 95.6719 115.91 95.3214 122.361 95.3642C122.897 95.368 123.532 95.4277 123.802 95.8914C124.127 96.4482 123.824 97.4202 124.439 97.6153C124.727 97.7066 125.097 97.5375 125.315 97.7464C125.677 98.0924 125.003 98.5602 124.505 98.6049C116.956 99.2824 109.39 99.778 101.818 100.092C101.354 100.111 100.863 100.123 100.46 99.8933ZM123.01 96.7672C122.834 96.3239 122.244 96.2588 121.766 96.266C115.684 96.3584 109.606 96.6594 103.544 97.1674C102.833 97.2267 101.995 97.3752 101.698 98.0237C101.556 98.3927 101.828 98.8169 102.186 98.9841C102.544 99.1516 102.958 99.1298 103.352 99.105C109.407 98.721 115.463 98.3367 121.518 97.9527C121.89 97.929 122.279 97.9008 122.6 97.7103C122.921 97.5202 123.148 97.114 123.01 96.7672Z" fill="#00160A"/>
<path fill-rule="evenodd" clip-rule="evenodd" d="M131.171 185.618C132.105 186.361 131.705 187.986 132.518 188.86C132.895 189.265 133.461 189.424 133.993 189.58C134.336 189.68 134.759 189.931 134.65 190.27C134.539 190.618 134.032 190.562 133.692 190.429C132.583 189.994 131.331 189.271 131.27 188.081C131.225 187.212 130.967 186.355 130.524 185.606C130.649 185.396 130.979 185.466 131.171 185.618Z" fill="#00160A"/>
<path fill-rule="evenodd" clip-rule="evenodd" d="M135.587 197.928C135.283 194.011 134.979 190.094 134.675 186.177C134.63 185.601 134.579 185.004 134.294 184.502C134.009 184 133.418 183.622 132.86 183.771C130.337 184.448 127.717 184.762 125.105 184.7C122.821 184.646 120.485 184.312 118.288 184.938C118.329 186.026 118.37 187.114 118.411 188.201C118.422 188.519 118.441 188.856 118.621 189.118C119.128 189.851 120.386 189.292 120.671 188.448C120.957 187.604 120.699 186.68 120.748 185.791C120.757 185.633 120.788 185.454 120.922 185.371C121.208 185.193 121.481 185.616 121.554 185.944C121.764 186.883 121.973 187.865 121.726 188.795C121.478 189.724 120.616 190.566 119.663 190.443C118.674 190.316 118.27 191.667 118.246 192.663C118.198 194.652 118.15 196.64 118.102 198.628C118.087 199.254 118.313 200.119 118.935 200.048C120.54 199.866 122.146 199.684 123.752 199.502C124.14 199.458 124.557 199.419 124.899 199.609C125.24 199.799 125.42 200.316 125.141 200.588C123.255 200.754 121.369 200.919 119.483 201.084C118.932 201.132 118.36 201.178 117.841 200.989C117.321 200.801 116.868 200.306 116.916 199.755C117.38 194.346 117.483 188.907 117.226 183.484C117.171 182.33 118.577 181.744 119.712 181.532C123.315 180.856 126.989 180.563 130.654 180.659C131.883 180.692 133.222 180.813 134.113 181.66C135.02 182.521 135.198 183.88 135.323 185.124C135.791 189.791 136.26 194.457 136.729 199.123C136.754 199.374 136.76 199.673 136.559 199.827C136.439 199.918 136.278 199.928 136.127 199.934C134.563 199.999 132.999 200.064 131.435 200.129C130.607 200.164 129.715 200.181 129.025 199.721C128.552 199.405 128.239 198.904 127.964 198.406C127.305 197.211 126.778 195.944 126.396 194.634C125.798 196.131 125.42 197.716 125.276 199.322C124.52 199.404 124.38 198.27 124.555 197.531C124.918 196.004 125.281 194.478 125.643 192.952C125.698 192.72 125.786 192.45 126.014 192.379C126.35 192.273 126.607 192.675 126.729 193.004C127.24 194.377 127.751 195.749 128.262 197.122C128.701 198.303 129.969 199.013 131.221 199.159C132.473 199.304 133.728 198.989 134.949 198.677C135.191 198.615 135.465 198.525 135.559 198.294C135.605 198.18 135.597 198.051 135.587 197.928ZM118.573 183.586C119.705 183.601 120.838 183.615 121.971 183.63C122.821 183.641 123.672 183.652 124.523 183.636C127.595 183.578 130.66 183.166 133.637 182.411C132.973 181.729 131.907 181.691 130.956 181.708C127.55 181.769 124.146 181.967 120.756 182.302C119.849 182.391 118.721 182.687 118.573 183.586Z" fill="#00160A"/>
<path fill-rule="evenodd" clip-rule="evenodd" d="M113.503 180.653C113.439 180.299 113.898 180.105 114.254 180.05C118.363 179.413 122.526 179.132 126.684 179.21C126.743 179.211 126.805 179.213 126.86 179.235C127.055 179.317 127.046 179.624 126.891 179.768C126.736 179.912 126.508 179.936 126.297 179.952C122.338 180.249 118.322 180.096 114.443 180.943C114.083 181.022 113.57 181.015 113.503 180.653Z" fill="#00160A"/>
<path fill-rule="evenodd" clip-rule="evenodd" d="M205.393 172.145C205.62 171.61 205.87 171.045 206.352 170.719C206.758 170.445 207.267 170.384 207.755 170.331C209.201 170.174 210.648 170.017 212.094 169.86C212.81 169.782 213.733 169.481 213.706 168.762C213.618 166.439 213.798 163.765 215.643 162.351C217.331 161.058 219.858 161.413 221.589 162.646C223.321 163.88 224.418 165.801 225.364 167.705C225.783 168.548 226.931 168.702 227.858 168.539C228.786 168.377 229.726 168.012 230.641 168.234C232.049 168.576 232.761 170.114 233.245 171.481C235.675 178.338 237.324 185.487 240.346 192.104C241.476 194.579 241.118 197.668 239.452 199.819C239.247 198.111 239.533 196.346 240.268 194.79C240.614 194.058 239.461 193.576 238.651 193.578C230.39 193.599 222.094 193.622 213.925 194.848C213.675 194.885 213.41 194.931 213.224 195.102C213.043 195.267 212.972 195.518 212.91 195.755C212.657 196.717 212.404 197.679 212.15 198.642C211.991 199.244 212.091 200.18 212.711 200.117C220.796 199.299 228.925 198.908 237.052 198.948C237.906 198.952 239.073 199.292 238.962 200.139C230.305 200.241 221.616 200.346 213.053 201.62C211.689 201.823 210.748 200.134 210.902 198.764C211.057 197.394 211.843 196.166 212.064 194.805C212.255 193.632 212.016 192.436 211.759 191.276C211.351 189.432 210.894 187.598 210.391 185.778C209.899 184.001 209.363 182.237 208.826 180.474C208.015 177.806 207.203 175.138 206.392 172.471C205.276 174.105 204.779 176.151 205.021 178.115C205.189 179.482 205.696 180.78 206.076 182.105C206.619 183.998 206.904 185.953 207.187 187.902C207.746 191.741 208.304 195.579 208.863 199.418C208.945 199.983 208.783 200.815 208.218 200.732C205.707 192.965 206.397 184.378 203.434 176.772C204.087 175.23 204.74 173.687 205.393 172.145ZM224.092 173.554C224.91 173.099 225.334 172.037 225.053 171.144C224.773 170.25 223.818 169.621 222.886 169.715C220.602 169.947 218.318 170.178 216.034 170.409C215.823 170.431 215.587 170.466 215.46 170.636C215.36 170.77 215.358 170.951 215.368 171.118C215.429 172.162 215.791 173.186 216.4 174.036C216.873 174.697 217.527 175.487 217.157 176.211C216.696 177.115 215.179 176.608 214.803 175.665C214.427 174.723 214.694 173.658 214.625 172.646C214.555 171.633 213.827 170.467 212.825 170.636C211.184 170.912 209.542 171.188 207.9 171.465C207.665 171.505 207.357 171.65 207.426 171.879C209.425 178.496 211.424 185.113 213.424 191.731C213.673 192.555 214.235 193.576 215.073 193.38C222.774 191.582 230.892 193.282 238.711 192.101C236.369 184.757 233.946 177.439 231.441 170.148C231.368 169.933 231.284 169.704 231.1 169.57C230.897 169.421 230.623 169.426 230.372 169.436C229.199 169.486 228.026 169.536 226.854 169.585C226.39 169.605 225.757 169.826 225.859 170.279C226.177 171.7 226.496 173.121 226.815 174.542C226.87 174.786 226.924 175.048 226.832 175.281C226.584 175.916 225.649 175.756 225.025 175.481C224.616 175.301 224.186 175.104 223.933 174.735C223.68 174.366 223.701 173.772 224.092 173.554ZM221.069 163.246C220.17 162.586 218.987 162.11 217.949 162.519C217.587 162.661 217.273 162.901 216.964 163.137C216.415 163.558 215.848 163.999 215.523 164.61C215.222 165.18 215.159 165.841 215.103 166.483C215.054 167.044 215.004 167.605 214.955 168.166C214.924 168.514 214.912 168.914 215.164 169.156C215.406 169.387 215.786 169.371 216.12 169.339C218.509 169.112 220.897 168.884 223.287 168.657C223.627 168.625 224.043 168.532 224.133 168.202C224.168 168.072 224.14 167.933 224.108 167.802C223.667 165.992 222.571 164.348 221.069 163.246ZM220.175 169.181C219.934 169.249 220.201 169.7 220.376 169.522C220.6 169.43 220.352 169.01 220.164 169.161L220.175 169.181Z" fill="#FFB61D"/>
<path fill-rule="evenodd" clip-rule="evenodd" d="M144.431 115.475C144.389 115.335 144.472 115.189 144.57 115.081C145.052 114.551 145.858 114.511 146.573 114.509C150.914 114.5 155.255 114.49 159.596 114.479C159.902 114.479 160.229 114.485 160.479 114.661C160.728 114.838 160.825 115.254 160.586 115.444C160.458 115.544 160.283 115.551 160.12 115.553C155.077 115.609 150.034 115.664 144.991 115.72C144.771 115.723 144.494 115.686 144.431 115.475Z" fill="#00160A"/>
<path fill-rule="evenodd" clip-rule="evenodd" d="M146.04 119.957C145.778 119.806 145.814 119.385 146.034 119.178C146.254 118.972 146.575 118.923 146.874 118.887C148.672 118.67 150.479 118.551 152.285 118.432C153.28 118.367 154.275 118.301 155.27 118.236C156.563 118.15 157.857 118.065 159.151 117.98C159.562 117.953 160.02 117.941 160.33 118.213C160.639 118.484 160.564 119.138 160.153 119.163C155.587 119.446 151.021 119.729 146.455 120.012C146.314 120.021 146.163 120.028 146.04 119.957Z" fill="#00160A"/>
<path fill-rule="evenodd" clip-rule="evenodd" d="M170.513 125.86C170.858 125.204 171.232 124.516 171.867 124.134C172.501 123.752 173.475 123.831 173.817 124.489C174.181 125.188 173.64 126.031 173.004 126.498C172.369 126.965 171.588 127.294 171.175 127.966C173.406 129.436 175.637 130.906 177.867 132.376C179.614 133.527 181.592 135.171 181.234 137.233C181.024 138.442 180 139.381 178.859 139.832C177.718 140.283 176.463 140.33 175.237 140.366C166.995 140.603 158.745 140.561 150.506 140.24C149.934 140.218 149.297 140.165 148.916 139.738C148.621 139.407 148.56 138.936 148.513 138.495C148.038 134.11 147.564 129.724 147.09 125.339C147.072 125.177 147.055 125.008 147.114 124.855C147.358 124.215 148.315 124.61 148.851 125.037C152.644 128.065 158.707 127.709 162.12 124.259C162.945 123.425 164.348 123.533 165.408 124.036C166.467 124.538 167.353 125.356 168.416 125.851C168.303 125.237 168.845 124.588 169.47 124.591C170.094 124.593 170.631 125.246 170.513 125.86ZM170.979 128.685C170.709 127.69 169.238 127.481 168.426 128.118C167.615 128.755 167.352 129.864 167.282 130.893C167.255 131.277 166.624 131.315 166.408 130.997C166.192 130.679 166.28 130.25 166.399 129.885C166.716 128.92 167.204 128.012 167.834 127.215C168.145 126.821 167.688 126.287 167.277 125.998C165.826 124.978 163.771 123.971 162.44 125.144C158.792 128.356 152.974 128.784 148.895 126.14C148.944 129.432 149.187 132.721 149.621 135.984C149.665 136.313 149.721 136.664 149.949 136.906C150.249 137.226 150.741 137.248 151.18 137.249C158.265 137.258 165.35 137.267 172.436 137.276C173.125 137.276 174.063 137.03 174.009 136.343C173.883 134.743 174.592 133.101 175.841 132.094C174.858 131.381 173.876 130.667 172.893 129.953C172.593 129.735 172.28 129.511 171.915 129.449C170.812 129.26 170.075 130.524 169.686 131.572C169.088 130.504 169.784 128.95 170.979 128.685ZM152.462 139.608C159.84 139.665 167.219 139.653 174.597 139.571C176.691 139.547 179.137 139.334 180.272 137.574C170.084 138.022 159.881 138.133 149.686 137.907C149.559 139.13 151.231 139.598 152.462 139.608ZM177.712 133.031C177.492 132.892 177.265 132.75 177.009 132.706C176.237 132.573 175.627 133.345 175.292 134.053C175.098 134.463 174.929 134.885 174.787 135.315C174.679 135.643 174.585 135.991 174.653 136.33C174.721 136.669 174.999 136.989 175.344 136.993C176.599 137.007 177.854 136.994 179.108 136.953C179.404 136.943 179.725 136.922 179.947 136.726C180.207 136.495 180.239 136.096 180.174 135.754C179.938 134.516 178.777 133.706 177.712 133.031ZM173.28 125.021C173.266 124.639 172.756 124.445 172.403 124.593C172.051 124.74 171.834 125.091 171.64 125.42C171.406 125.819 171.172 126.217 170.938 126.616C170.815 126.825 170.749 127.18 170.985 127.233C171.608 126.715 172.231 126.197 172.854 125.679C173.062 125.506 173.29 125.292 173.28 125.021ZM169.243 125.644C169.137 126.159 169.402 126.729 169.863 126.981C170.023 126.45 169.93 125.848 169.616 125.392C169.596 125.263 169.421 125.188 169.314 125.263C169.232 125.368 169.203 125.511 169.238 125.639L169.243 125.644Z" fill="#00160A"/>
<path fill-rule="evenodd" clip-rule="evenodd" d="M143.875 110.451C143.688 109.544 143.501 108.638 143.314 107.731C143.241 107.379 143.174 106.988 143.359 106.679C143.61 106.258 144.187 106.202 144.677 106.194C156.721 105.984 168.768 106.03 180.809 106.331C181.631 106.352 182.305 107.061 182.555 107.844C182.805 108.627 182.723 109.472 182.638 110.289C182.592 110.731 182.519 111.224 182.167 111.494C181.879 111.715 181.485 111.721 181.121 111.717C169.027 111.585 156.933 111.453 144.838 111.321C144.639 111.319 144.428 111.313 144.26 111.207C144.014 111.052 143.934 110.736 143.875 110.451ZM145.539 106.989C144.649 106.983 144.017 108.04 144.24 108.902C144.462 109.764 145.295 110.357 146.16 110.567C147.025 110.776 147.931 110.675 148.817 110.592C159.74 109.571 170.784 111.523 181.698 110.421C181.756 109.757 181.81 109.071 181.596 108.44C181.382 107.808 180.825 107.243 180.159 107.238C168.619 107.155 157.079 107.072 145.539 106.989Z" fill="#00160A"/>
<path fill-rule="evenodd" clip-rule="evenodd" d="M71.256 136.708C70.8528 137.473 70.2971 138.249 69.4637 138.476C67.8762 138.909 66.5638 137.147 66.1305 135.559C65.4542 133.081 65.6256 130.38 66.6089 128.007C67.1349 126.738 66.6964 125.238 65.8713 124.139C64.3157 122.066 61.4132 121.158 58.9194 121.863C56.4256 122.568 54.4575 124.787 53.936 127.326C53.8541 127.723 53.912 128.281 54.3136 128.337C56.3182 128.618 57.2384 130.97 57.5435 132.971C57.7764 134.499 57.8775 136.099 57.3593 137.555C56.8412 139.011 55.5731 140.29 54.0322 140.407C52.6495 139.476 51.6083 138.048 51.1439 136.447C50.2801 133.47 51.402 130.313 52.5604 127.437C53.2676 125.682 54.0262 123.885 55.3691 122.552C58.2397 119.702 63.6 120.04 66.0892 123.228C67.047 124.455 67.5967 125.978 68.6577 127.115C69.4577 127.973 70.5154 128.573 71.2451 129.492C72.8303 131.486 72.4448 134.455 71.256 136.708ZM52.022 131.203C51.2953 133.207 51.4978 135.526 52.5608 137.373C52.7352 137.676 52.9429 137.978 53.248 138.15C53.5531 138.321 53.9785 138.324 54.2197 138.07C54.9426 137.31 55.0328 136.161 55.0305 135.112C55.0275 133.872 54.9512 132.632 54.8017 131.4C54.7405 130.897 54.636 130.339 54.2283 130.036C53.8207 129.734 53.0557 129.987 53.1195 130.491C53.3059 131.956 53.4923 133.422 53.6782 134.888C53.7207 135.221 53.7579 135.582 53.5911 135.873C53.4239 136.165 52.9625 136.3 52.7509 136.039C52.2027 134.921 52.0374 133.619 52.2888 132.399C52.3793 131.961 52.4413 131.36 52.022 131.203ZM68.8002 137.015C68.9854 136.871 69.0718 136.636 69.1409 136.412C69.6843 134.647 69.6903 132.721 69.1575 130.953C68.955 130.281 68.406 129.495 67.7413 129.72C67.3569 129.85 67.1623 130.271 67.0402 130.658C66.4841 132.415 66.5581 134.364 67.2454 136.074C67.3772 136.402 67.5399 136.733 67.8191 136.95C68.0979 137.166 68.5217 137.233 68.8002 137.015ZM55.7549 130.674C56.2393 133.128 56.1363 135.696 55.457 138.104C55.3946 138.326 55.646 138.498 55.8564 138.592C56.8754 136.12 57.0043 133.293 56.2149 130.739C56.0837 130.646 55.9067 130.62 55.7549 130.674ZM69.8917 130.011C69.741 130.251 69.5907 130.491 69.44 130.732C69.9364 130.648 70.1633 131.325 70.1896 131.827C70.2512 132.989 70.3125 134.15 70.3741 135.312C70.8363 135.139 70.9197 134.532 70.9283 134.038C70.9479 132.927 70.967 131.816 70.9866 130.705C70.8201 130.685 70.6537 130.665 70.4872 130.646C70.4703 130.331 70.2047 130.048 69.8917 130.011Z" fill="#00160A"/>
<path fill-rule="evenodd" clip-rule="evenodd" d="M124.374 132.119C121.063 131.961 117.738 132.105 114.452 132.548C114.162 132.587 113.836 132.62 113.603 132.442C113.369 132.265 113.395 131.794 113.686 131.762C116.972 131.401 120.271 131.169 123.575 131.066C123.934 131.055 124.336 131.061 124.592 131.314C124.848 131.566 124.733 132.136 124.374 132.119Z" fill="#00160A"/>
<path fill-rule="evenodd" clip-rule="evenodd" d="M47.4606 118.899C48.4007 118.81 49.3407 118.722 50.2805 118.634C50.7543 118.589 51.2277 118.545 51.7011 118.5C54.713 118.217 57.7249 117.934 60.7395 117.683C60.8578 117.673 60.9814 117.664 61.0912 117.709C61.4177 117.845 61.3673 118.372 61.0829 118.581C60.7988 118.791 60.4141 118.779 60.0613 118.767C55.6216 118.62 51.1969 119.954 46.7778 119.503C46.4908 119.473 46.115 119.325 46.1658 119.041C46.5956 118.98 47.0285 118.939 47.4606 118.899Z" fill="#00160A"/>
<path fill-rule="evenodd" clip-rule="evenodd" d="M148.703 216.462C148.555 215.169 148.449 213.762 147.58 212.794C146.913 212.051 147.258 210.67 148.196 210.328C149.134 209.986 150.287 210.821 150.255 211.819C150.244 212.162 150.119 212.489 150.022 212.818C149.359 215.063 149.975 217.479 150.785 219.676C151.606 221.9 152.863 224.268 155.118 224.999C157.728 225.845 160.615 223.973 161.772 221.486C162.928 218.999 162.752 216.111 162.348 213.398C162.308 213.125 162.235 212.811 161.985 212.696C160.97 212.227 160.816 210.581 161.727 209.932C162.637 209.284 164.143 209.967 164.254 211.079C164.292 211.456 164.196 211.832 164.124 212.204C163.625 214.788 164.285 217.497 163.739 220.071C163.396 221.683 162.576 223.19 161.408 224.352C160.17 225.585 158.498 226.435 156.751 226.464C154.399 226.504 152.199 225.045 150.87 223.105C149.541 221.164 148.97 218.799 148.703 216.462Z" fill="#00160A"/>
<path fill-rule="evenodd" clip-rule="evenodd" d="M80.1101 110.311C80.1755 111.197 80.2379 112.109 79.9617 112.953C79.6859 113.797 78.9848 114.566 78.0999 114.642C73.5388 115.034 68.977 115.426 64.4069 115.697C58.1757 116.066 51.9336 116.208 45.693 116.35C45.4702 116.355 45.232 116.356 45.046 116.233C44.7672 116.049 44.715 115.668 44.6894 115.335C44.6218 114.463 44.5541 113.59 44.4869 112.718C44.4662 112.453 44.4508 112.166 44.5936 111.942C44.8033 111.613 45.2515 111.557 45.6408 111.533C57.1188 110.853 68.6126 110.446 80.1101 110.311ZM78.1897 113.371C78.9232 113.322 79.0716 112.168 78.5339 111.667C77.9962 111.166 77.1797 111.155 76.4448 111.173C66.9988 111.408 57.549 111.643 48.1214 112.284C47.4428 112.33 46.7364 112.387 46.1495 112.731C45.5626 113.076 45.1388 113.8 45.3631 114.442C45.6817 115.355 46.913 115.455 47.8775 115.391C57.9815 114.718 68.0858 114.044 78.1897 113.371Z" fill="#00160A"/>
<path fill-rule="evenodd" clip-rule="evenodd" d="M68.3821 132.355C68.3912 132.595 68.4002 132.835 68.4092 133.075C68.4284 133.574 68.4468 134.077 68.3746 134.572C67.7483 134.505 67.5544 133.7 67.5176 133.071C67.5003 132.772 67.4943 132.437 67.6949 132.215C67.8952 131.992 68.3709 132.056 68.3821 132.355Z" fill="#00160A"/>
<path fill-rule="evenodd" clip-rule="evenodd" d="M113.483 134.4C114.098 133.832 115.033 133.85 115.868 133.874C118.513 133.949 121.166 133.744 123.768 133.265C124.075 133.208 124.24 133.686 124.048 133.932C123.857 134.179 123.512 134.23 123.202 134.262C120.269 134.56 117.324 134.737 114.377 134.791C114.026 134.798 113.58 134.737 113.483 134.4Z" fill="#00160A"/>
<path fill-rule="evenodd" clip-rule="evenodd" d="M212.218 144.316C211.928 145.297 210.964 145.903 210.045 146.352C205.446 148.602 200.04 149.152 195.082 147.877C193.417 147.448 191.519 146.457 191.448 144.739C191.396 143.476 192.404 142.417 193.472 141.74C195.109 140.702 197.019 140.178 198.922 139.808C202.594 139.094 206.575 138.947 209.9 140.663C211.292 141.382 212.662 142.813 212.218 144.316ZM192.583 144.548C192.586 145.935 194.134 146.748 195.477 147.1C200.138 148.322 205.236 147.795 209.548 145.644C210.24 145.299 210.97 144.844 211.19 144.102C211.485 143.107 210.714 142.103 209.857 141.515C207.281 139.745 203.873 139.987 200.765 140.32C198.263 140.588 195.598 140.937 193.691 142.578C193.102 143.085 192.582 143.77 192.583 144.548Z" fill="#00160A"/>
<path fill-rule="evenodd" clip-rule="evenodd" d="M76.9005 63.0395C76.7438 62.1475 77.3589 61.2612 78.1517 60.8231C78.9445 60.3849 79.879 60.3004 80.783 60.247C88.844 59.7729 96.8923 61.0677 104.956 61.493C105.994 61.5479 107.088 61.6053 107.962 62.1689C108.835 62.7329 109.347 63.9984 108.743 64.8442C108.451 65.253 107.968 65.4803 107.489 65.6317C106.106 66.0683 104.623 66.0105 103.174 65.9481C95.6359 65.6242 88.0971 65.3 80.5587 64.9761C79.0617 64.9118 77.1601 64.515 76.9005 63.0395ZM77.9353 61.747C77.5092 62.347 77.8658 63.2428 78.4812 63.6467C79.0967 64.0506 79.8722 64.0961 80.6075 64.1292C88.5972 64.4887 96.5865 64.8483 104.576 65.2079C105.355 65.2428 106.217 65.2504 106.807 64.7412C107.396 64.2317 107.319 63.0174 106.549 62.8949C97.6648 61.4825 88.6494 60.8959 79.6569 61.1451C79.0257 61.1627 78.3009 61.2319 77.9353 61.747Z" fill="#00160A"/>
<path fill-rule="evenodd" clip-rule="evenodd" d="M165.299 55.2976C166.525 52.7426 168.514 50.1087 171.339 49.8907C173.222 49.7457 175.219 50.0748 176.709 51.2344C179.411 53.3381 179.599 57.4167 178.633 60.7022C177.495 64.5745 174.955 68.1609 171.312 69.8976C170.443 70.312 169.498 70.6216 168.536 70.5837C165.98 70.4834 164.119 67.9723 163.568 65.474C162.814 62.0503 163.782 58.4583 165.299 55.2976ZM168.478 69.6485C170.367 69.9059 172.147 68.7024 173.48 67.3388C175.978 64.7831 177.656 61.4364 178.208 57.9056C178.368 56.8881 178.434 55.8323 178.157 54.8399C177.612 52.8887 175.763 51.4786 173.778 51.0728C171.869 50.6828 169.772 51.1483 168.3 52.4251C167.593 53.039 167.044 53.8142 166.564 54.6183C165 57.2417 164.111 60.2941 164.22 63.3462C164.269 64.7252 164.531 66.1267 165.229 67.317C165.927 68.507 167.11 69.4625 168.478 69.6485Z" fill="#FFB61D"/>
<path fill-rule="evenodd" clip-rule="evenodd" d="M103.336 163.742C103.587 163.728 103.856 163.719 104.069 163.854C104.332 164.02 104.428 164.351 104.504 164.652C104.669 165.312 104.836 165.999 104.703 166.667C104.569 167.334 104.043 167.976 103.363 168.005C101.627 168.081 99.8927 168.157 98.1579 168.233C97.4775 168.262 96.6805 168.36 96.3424 168.951C96.1132 169.351 96.1816 169.849 96.2567 170.304C96.4694 171.595 97.0705 173.226 98.3777 173.179C99.2472 173.147 100.022 173.807 100.397 174.593C100.771 175.378 100.827 176.272 100.876 177.141C100.923 177.959 100.714 179.076 99.8957 179.096C99.2355 179.113 99.0533 180.005 99.0744 180.665C99.2201 185.257 99.3659 189.849 99.5117 194.44C99.5354 195.18 98.5874 195.491 97.8509 195.566C91.6791 196.189 85.4434 196.172 79.2749 195.517C79.054 195.493 78.7714 195.407 78.7665 195.184C78.6523 189.996 78.5381 184.808 78.4239 179.62C78.4175 179.317 78.269 178.899 77.9771 178.979C77.0581 179.23 76.1337 178.377 75.9432 177.444C75.7531 176.509 76.0796 175.557 76.4013 174.659C76.5501 174.245 76.7169 173.805 77.0727 173.545C77.8325 172.991 79.2366 173.386 79.577 172.509C79.6334 172.364 79.6443 172.205 79.6386 172.049C79.5913 170.694 78.3295 169.625 77.0006 169.357C75.6716 169.089 74.3016 169.442 73.0072 169.845C72.7108 168.726 72.6349 167.549 72.7848 166.401C72.8205 166.13 72.8754 165.845 73.0576 165.642C73.3172 165.351 73.7497 165.311 74.1386 165.29C83.8709 164.774 93.6032 164.258 103.336 163.742ZM77.3872 174.253C77.2001 174.47 77.1588 174.774 77.1249 175.058C77.037 175.8 76.9491 176.543 76.8615 177.285C76.8428 177.441 76.8255 177.606 76.8886 177.75C77.0231 178.059 77.4308 178.112 77.7674 178.12C79.5541 178.165 81.3407 178.209 83.1273 178.254C83.4287 178.261 83.7447 178.265 84.0122 178.127C84.4424 177.903 84.6194 177.297 84.3767 176.878C84.595 176.855 84.8136 176.833 85.0323 176.811C84.9361 177.458 85.5955 178 86.2433 178.095C86.8907 178.19 87.5415 177.993 88.1938 177.941C89.5618 177.833 90.928 178.37 92.2904 178.209C92.434 178.192 92.5869 178.162 92.6876 178.058C92.8187 177.922 92.8161 177.71 92.8052 177.521C92.7537 176.617 92.7022 175.712 92.6504 174.807C92.6342 174.523 92.6098 174.216 92.4268 173.997C92.1653 173.685 91.6968 173.675 91.2898 173.691C89.3228 173.767 87.3559 173.843 85.3889 173.919C85.2517 173.924 85.0996 173.936 85.0045 174.035C84.8978 174.146 84.9053 174.321 84.9196 174.474C84.9857 175.178 85.0519 175.882 85.118 176.586C84.8568 176.611 84.601 176.688 84.3688 176.809C84.3105 176.255 84.2527 175.7 84.1944 175.145C84.1414 174.639 83.9434 173.992 83.4351 173.985C81.8115 173.963 80.1883 173.942 78.5648 173.92C78.1428 173.914 77.6626 173.933 77.3872 174.253ZM86.7404 179.71C86.7134 179.337 86.5514 178.842 86.1791 178.883C83.8641 179.131 81.5211 179.117 79.2095 178.84C79.2666 183.877 79.3606 188.914 79.491 193.95C79.5079 194.598 80.3258 194.857 80.971 194.924C82.8869 195.12 84.8159 195.187 86.7408 195.124C86.8986 195.119 87.0696 195.108 87.1898 195.006C87.348 194.871 87.3581 194.635 87.3559 194.428C87.3006 189.517 87.0955 184.608 86.7404 179.71ZM98.3169 179.433C98.2537 179.324 98.1095 179.302 97.9843 179.291C95.9929 179.122 93.991 179.075 91.994 179.149C91.8129 179.156 91.6194 179.168 91.4758 179.279C91.2583 179.447 91.2448 179.765 91.2508 180.041C91.3609 185.068 91.4709 190.095 91.581 195.123C93.7798 195.335 96.0185 195.128 98.1406 194.514C98.2725 194.476 98.4127 194.431 98.498 194.323C98.59 194.207 98.596 194.047 98.5979 193.899C98.6396 190.664 98.5562 187.429 98.4728 184.196C98.4333 182.672 98.3939 181.149 98.3544 179.625C98.3529 179.559 98.3503 179.49 98.3169 179.433ZM73.6246 166.688C73.2428 167.288 73.6531 168.136 74.2806 168.471C74.9081 168.806 75.6603 168.774 76.3705 168.733C80.6678 168.484 84.9651 168.235 89.2624 167.986C93.3609 167.748 97.4594 167.511 101.551 167.178C102.15 167.129 102.78 167.068 103.275 166.726C103.77 166.385 104.058 165.665 103.726 165.163C103.393 164.661 102.676 164.637 102.074 164.668C93.1445 165.129 84.2151 165.59 75.2857 166.05C74.6687 166.082 73.956 166.167 73.6246 166.688ZM90.801 195.006C90.4989 190.098 90.4392 185.175 90.6218 180.262C90.6323 179.98 90.6417 179.686 90.529 179.427C90.2002 178.671 89.1421 178.673 88.3272 178.799C87.9544 178.857 87.4784 179.035 87.5065 179.411C87.856 184.111 88.2058 188.819 88.1273 193.531C88.1167 194.155 88.4741 194.771 89.0204 195.073C89.5667 195.374 90.2787 195.347 90.801 195.006ZM100.023 176.888C99.9171 176.239 99.8063 175.576 99.4899 175C99.1739 174.424 98.6073 173.942 97.9513 173.909C96.7042 173.847 95.4571 173.785 94.2104 173.723C93.8858 173.707 93.4372 173.804 93.453 174.129C93.5003 175.116 93.548 176.103 93.5954 177.09C93.616 177.52 93.6964 178.04 94.0955 178.204C94.2243 178.256 94.3667 178.26 94.5058 178.263C96.1316 178.301 97.7574 178.338 99.3832 178.375C99.6936 178.382 99.9536 178.109 100.038 177.811C100.123 177.512 100.073 177.194 100.023 176.888ZM92.1518 172.025C91.9891 171.34 91.8196 170.639 91.43 170.052C91.0403 169.465 90.3794 169.007 89.6772 169.059C88.5947 169.138 87.5122 169.218 86.4297 169.297C85.7552 169.347 84.9914 169.444 84.5961 169.992C84.1182 170.656 84.4462 171.582 84.3169 172.389C84.2715 172.673 84.4931 172.945 84.7584 173.055C85.0237 173.165 85.322 173.152 85.6087 173.138C87.5467 173.038 89.4844 172.938 91.4221 172.838C91.7065 172.824 92.0481 172.772 92.1615 172.51C92.2269 172.359 92.1901 172.185 92.1518 172.025ZM95.5477 170.784C95.1791 170.279 95.1881 169.531 95.5691 169.035C94.8898 168.613 93.9384 168.691 93.3372 169.218C92.7357 169.745 92.5332 170.678 92.8619 171.406C92.9776 171.663 92.9111 171.968 92.9931 172.237C93.1088 172.621 93.5097 172.861 93.9072 172.911C94.3044 172.96 94.703 172.855 95.09 172.752C95.5973 172.616 96.215 172.345 96.2101 171.82C96.206 171.401 95.7949 171.122 95.5477 170.784ZM83.4381 172.582C83.6631 171.846 83.3603 171.007 82.7824 170.498C82.2049 169.99 81.3956 169.791 80.6287 169.86C80.321 169.888 79.9997 169.964 79.7765 170.179C79.5537 170.393 79.474 170.779 79.6747 171.014C79.8231 171.188 80.0771 171.239 80.2327 171.406C80.4697 171.662 80.3897 172.07 80.4983 172.402C80.7437 173.15 81.76 173.221 82.5442 173.149C82.8128 173.125 83.1089 173.087 83.2859 172.883C83.3599 172.798 83.405 172.69 83.4381 172.582ZM83.5651 170.106C83.7469 169.93 83.78 169.621 83.6391 169.41C83.3261 169.317 82.9759 169.503 82.811 169.786C82.9335 170.066 83.2776 170.228 83.5718 170.144M92.5016 169.324C92.5474 169.201 92.5204 169.054 92.4343 168.956C92.1371 168.862 91.7911 168.946 91.5701 169.166C91.7975 169.423 92.2108 169.493 92.5095 169.324L92.5016 169.324Z" fill="#00160A"/>
<path fill-rule="evenodd" clip-rule="evenodd" d="M212.303 148.461C202.776 152.187 193.249 155.912 183.722 159.638C179.624 161.24 174.883 163.645 174.443 168.024C180.011 163.741 186.887 161.185 193.901 160.792C189.055 166.896 182.938 171.986 176.054 175.638C169.871 178.919 162.045 182.418 161.514 189.396C168.154 181.49 178.362 176.704 188.686 176.656C182.081 186.33 171.49 193.192 159.961 195.267C160.357 198.239 160.752 201.212 161.148 204.185C165.065 204.046 169.006 204.607 172.729 205.832C175.381 217.223 178.032 228.614 180.684 240.005C181.336 242.809 181.911 246.029 180.194 248.34C178.492 250.631 175.276 251.026 172.428 251.228C161.203 252.026 149.979 252.824 138.754 253.622C137.41 247.533 136.066 241.445 134.722 235.356C115.789 237.114 96.855 238.872 77.9216 240.63C73.9343 241.001 69.7174 241.333 66.1096 239.596C53.023 233.295 37.1549 245.49 23.3327 241.029C35.4769 240.8 47.5835 238.681 59.084 234.773C63.2547 233.356 68.2486 229.474 66.0694 225.646C55.4044 233.087 41.7201 236.058 28.9293 233.709C29.68 221.287 29.1972 208.791 27.4895 196.464C36.5906 195.163 45.5601 192.94 54.2164 189.843C56.6241 188.982 59.1013 187.99 60.8158 186.093C62.5307 184.195 63.2239 181.13 61.7172 179.063C48.551 186.079 33.3494 189.219 18.4813 187.994C19.2571 204.817 20.033 221.641 20.8089 238.464C18.6111 221.653 17.4456 204.707 17.321 187.753C24.9747 187.074 32.628 186.395 40.2814 185.717C39.0509 180.254 37.8124 174.666 38.4448 169.101C39.0768 163.537 41.9407 157.903 46.9744 155.449C43.1663 147.326 37.4108 140.125 30.3278 134.62C22.0244 128.166 11.3491 123.301 7.5573 113.492C5.0502 107.006 6.27995 99.4624 9.75142 93.4375C13.2229 87.4129 18.7238 82.7718 24.7026 79.2218C16.4712 77.1061 10.2363 68.9007 10.4032 60.4034C10.57 51.9061 17.1221 43.9518 25.43 42.161C21.513 37.4929 15.3451 35.3534 10.8399 31.2504C5.59156 26.4706 2.95426 18.7605 4.86601 11.9242C6.77776 5.08784 13.5088 -0.290863 20.6011 0.0122058C26.4265 0.261169 31.553 3.94572 35.6196 8.12466C41.926 14.6057 46.6163 22.6478 49.1522 31.3282C50.8422 37.1138 57.0366 40.0569 62.268 43.0512C67.4994 46.0454 72.9318 51.261 71.4578 57.1052C69.5092 49.1077 62.9661 42.4041 55.0182 40.2621C50.8768 39.1461 49.3675 34.218 48.0351 30.1408C45.4429 22.2069 41.0175 14.8783 35.2033 8.89004C30.8335 4.38976 25.1208 0.462789 18.8572 0.800877C12.4094 1.14892 6.72538 6.39391 5.25125 12.6807C3.77713 18.9674 6.24872 25.8559 10.9535 30.2787C15.7456 34.7838 22.6011 36.9905 26.4648 42.3132C18.0854 44.016 11.4608 52.0801 11.4168 60.6304C11.3728 69.181 17.9141 77.3127 26.2755 79.1016C20.3831 82.5509 14.8694 86.9323 11.234 92.7115C7.59856 98.4911 6.04019 105.826 8.2154 112.298C13.2466 127.267 34.217 130.84 41.6175 144.791C43.6217 138.208 40.6838 131.286 39.1737 124.572C37.6637 117.858 38.517 109.237 44.7767 106.378C42.9473 97.5604 41.1178 88.7434 39.2883 79.926C37.9252 73.3558 37.2413 65.0318 42.8935 61.4149C38.9111 60.1799 35.3765 57.549 33.0504 54.0888C35.5625 57.9337 40.4005 60.1152 44.9454 59.4524C39.2023 47.0028 32.8343 34.8409 25.8734 23.0289C33.3739 34.3382 40.0116 46.2194 45.7108 58.5349C72.0702 57.8217 98.4703 58.6337 124.736 60.9659C128.223 61.2755 131.977 61.726 134.554 64.095C138.259 67.4992 143.821 68.741 148.621 67.2354C150.149 71.0217 151.273 75.2747 149.974 79.1456C148.676 83.0164 144.077 85.9708 140.401 84.1951C141.36 89.1319 142.32 94.0691 143.279 99.0059C152.679 99.119 162.077 99.311 171.474 99.5819C176.454 99.7254 181.659 99.952 185.987 102.419C190.315 104.887 193.37 110.352 191.442 114.946C192.672 111.149 193.901 107.352 195.131 103.556C199.465 110.436 201.594 118.682 201.131 126.8C202.632 124.515 204.134 122.231 205.635 119.946C200.301 111.551 199.622 100.392 203.899 91.4118C208.093 98.3585 210.456 106.4 210.686 114.511C212.25 99.8926 222.607 86.5656 236.387 81.4402C233.996 86.9489 231.606 92.4579 229.215 97.9666C227.168 102.683 224.568 107.915 219.649 109.413C216.405 110.401 211.707 110.341 211.119 113.682C220.437 111.238 230.356 111.117 239.731 113.333C232.507 122.019 218.585 124.157 209.086 118.04C204.605 123.038 200.723 128.572 197.548 134.486C202.941 127.784 211.333 123.593 219.93 123.309C215.311 128.768 210.101 133.726 204.421 138.07C207.436 138.36 210.696 138.757 212.882 140.852C215.07 142.948 215.124 147.358 212.303 148.461ZM86.5474 93.4465C89.046 93.4175 91.8445 93.5066 93.5887 95.2958C94.9195 96.6609 95.2761 98.6745 95.5662 100.558C96.8929 109.175 98.1347 117.804 99.292 126.444C99.5824 128.612 97.7654 130.612 95.6894 131.299C93.6135 131.986 91.3568 131.684 89.1918 131.376C90.9969 129.818 94.0441 130.934 95.9866 129.552C97.7289 128.313 97.7188 125.767 97.5102 123.639C96.728 115.66 95.6631 107.709 94.3176 99.8054C94.0798 98.4084 93.7886 96.922 92.7989 95.9079C91.4812 94.5568 89.3752 94.467 87.4882 94.4647C79.7417 94.4549 71.9951 94.4455 64.2485 94.4358C62.9135 94.4343 61.5087 94.4501 60.3495 95.1125C57.0141 97.019 58.2439 102.054 59.9016 105.52C64.5991 104.568 69.3988 104.121 74.1909 104.191C78.4363 104.253 83.7305 105.631 84.4466 109.816C86.0195 119.011 87.5919 128.205 89.1648 137.399C89.9895 142.22 90.4441 148.077 86.5913 151.09C84.6664 152.596 82.1114 152.955 79.6868 153.261C73.7254 154.015 67.7635 154.769 61.8021 155.523C64.285 177.263 66.7678 199.004 69.2511 220.745C69.528 223.17 70.0349 225.957 72.1672 227.145C73.4285 227.847 74.9585 227.79 76.4002 227.711C95.3956 226.676 114.373 225.304 133.319 223.597C132.562 221.87 132.547 219.832 133.279 218.094C135.198 229.329 137.117 240.564 139.036 251.798C142.396 249.482 141.879 244.455 140.987 240.473C138.729 230.391 136.471 220.309 134.212 210.227C133.298 211.904 132.383 213.581 131.469 215.258C131.02 213.164 132.277 210.998 134.02 209.753C135.763 208.508 137.911 207.997 140.005 207.548C146.444 206.167 152.952 205.113 159.497 204.39C157.595 190.973 155.693 177.555 153.791 164.138C142.097 167.35 129.714 166.339 117.631 165.303C114.052 164.997 109.505 163.792 109.163 160.216C108.305 151.228 107.447 142.24 106.59 133.251C106.478 132.079 105.799 130.501 104.681 130.87C101.934 131.777 100.3 127.864 100.076 124.98C99.3705 115.935 98.6653 106.889 97.96 97.8437C97.8676 96.6575 97.8435 95.2883 98.728 94.4925C99.3476 93.9353 100.24 93.8331 101.069 93.7576C106.988 93.2161 112.906 92.6751 118.825 92.134C122.205 91.8248 126.044 91.6651 128.504 94.0041C130.24 95.6547 130.822 98.1578 131.188 100.525C131.863 104.888 132.087 109.321 131.854 113.729C131.385 109.42 130.916 105.11 130.447 100.801C130.236 98.862 129.978 96.8059 128.754 95.2883C126.663 92.6976 122.773 92.7412 119.456 93.014C113.529 93.5017 107.602 93.9894 101.675 94.4771C100.877 94.5429 100.012 94.6372 99.4321 95.1891C98.6773 95.9075 98.6987 97.0964 98.7742 98.1353C99.4092 106.877 100.044 115.619 100.679 124.361C100.799 126.01 100.962 127.774 102.005 129.058C103.048 130.342 105.311 130.745 106.286 129.409C104.951 126.473 106.798 122.879 109.532 121.168C112.265 119.458 115.62 119.157 118.835 118.9C124.379 118.458 129.923 118.016 135.468 117.573C135.088 106.098 133.85 94.6515 131.769 83.3602C129.851 82.824 128.105 81.6904 126.835 80.1574C125.884 82.6065 123.052 84.1631 120.475 83.6529C117.897 83.1426 115.872 80.6245 115.926 77.9977C115.62 81.0205 112.987 83.6424 109.963 83.9347C106.939 84.2274 103.852 82.1586 102.973 79.2504C101.525 80.8653 99.6456 82.257 97.4851 82.4539C95.325 82.6504 92.9353 81.2861 92.584 79.1456C89.7468 82.8263 83.153 82.4528 80.7494 78.4752C78.2774 82.555 71.2395 82.4547 68.8847 78.3062C67.8274 82.1417 61.9246 82.4483 59.0915 79.6554C56.2581 76.8626 55.7065 72.5604 55.3124 68.6016C50.6356 73.1078 49.7917 80.3468 50.6796 86.7801C51.567 93.2139 53.8801 99.4113 54.4414 105.881C55.7227 106.203 57.1279 106 58.2653 105.328C57.0366 101.615 56.2288 96.6275 59.5638 94.5853C60.9015 93.7662 62.557 93.7245 64.1253 93.7061C71.5994 93.6197 79.0732 93.5333 86.5474 93.4465ZM160.587 155.926C170.391 155.439 180.505 156.717 189.822 153.627C191.264 153.149 192.741 152.519 193.67 151.317C191.29 150.223 188.762 148.337 188.82 145.719C188.859 143.999 190.05 142.512 191.393 141.437C192.802 140.308 194.443 139.47 196.184 138.989C196.325 138.558 195.567 138.465 195.192 138.719C194.817 138.974 194.247 139.289 193.998 138.911C193.931 138.809 193.917 138.682 193.905 138.561C192.97 129.045 191.584 119.573 189.754 110.187C189.204 107.365 188.386 104.221 185.899 102.779C184.556 102 182.946 101.87 181.398 101.763C169.739 100.956 158.059 100.462 146.374 100.281C143.613 100.239 140.523 100.341 138.587 102.311C137.119 103.805 136.698 106.024 136.543 108.114C136.061 114.583 137.447 121.023 138.348 127.448C139.427 135.144 139.816 142.917 140.528 150.656C140.623 151.686 140.738 152.759 141.295 153.63C142.25 155.124 144.189 155.593 145.945 155.839C148.538 156.202 151.161 156.356 153.78 156.298C156.052 156.248 158.317 156.039 160.587 155.926ZM80.1257 106.006C76.8068 104.547 73.0055 104.938 69.404 105.356C63.9566 105.988 58.5092 106.621 53.0617 107.253C50.4436 107.557 47.8228 107.861 45.2325 108.35C44.608 108.468 43.9817 108.597 43.3925 108.835C41.0836 109.768 39.7073 112.258 39.3872 114.727C39.0667 117.197 39.6156 119.686 40.142 122.12C41.7772 129.685 43.2276 137.32 43.621 145.049C43.6987 146.579 43.7378 148.129 44.1586 149.603C44.5791 151.076 45.4376 152.493 46.7805 153.231C47.8131 153.799 49.0267 153.916 50.2027 153.994C60.9819 154.702 71.7554 152.964 82.418 151.231C83.9353 150.985 85.5314 150.703 86.7138 149.722C88.5403 148.206 88.8134 145.539 88.8003 143.165C88.7759 138.781 88.2453 134.4 87.2218 130.137C86.0251 125.151 84.1457 120.247 84.0961 115.12C84.0739 112.859 84.3707 110.422 83.1909 108.492C82.4939 107.352 81.3491 106.544 80.1257 106.006ZM28.8323 200.945C30.2812 211.356 30.7681 221.901 30.2846 232.402C30.259 232.956 30.9316 233.238 31.476 233.342C38.4463 234.674 45.6251 232.967 52.3892 230.819C56.2341 229.598 60.082 228.207 63.4076 225.923C64.9286 224.878 66.468 223.304 66.1836 221.48C64.356 209.766 63.3509 197.923 63.1781 186.068C57.0235 190.877 49.2134 192.918 41.6442 194.843C38.0563 195.756 34.4203 196.674 30.7185 196.644C29.8235 196.636 29.0807 197.422 28.8305 198.282C28.5806 199.141 28.7091 200.058 28.8323 200.945ZM170.299 206.208C158.771 205.085 147.011 206.403 136.017 210.051C136.677 215.072 137.579 220.062 138.718 224.997C139.175 226.973 139.669 228.94 140.164 230.907C141.126 234.737 142.089 238.568 143.051 242.398C143.186 242.931 143.354 243.514 143.813 243.816C144.223 244.085 144.754 244.054 145.243 244.014C156.626 243.064 168.004 242.036 179.373 240.928C176.888 229.849 174.402 218.769 171.917 207.69C171.821 207.265 171.706 206.806 171.368 206.531C171.074 206.293 170.675 206.245 170.299 206.208ZM153.305 157.572C150.796 157.7 148.25 157.825 145.801 157.268C143.352 156.712 140.968 155.377 139.71 153.203C138.988 154.034 137.553 154.096 136.762 153.331C135.97 152.565 135.985 151.129 136.791 150.379C133.604 150.408 130.418 150.437 127.231 150.466C128.687 151.323 128.568 153.853 127.062 154.621C125.556 155.39 123.473 154.092 123.438 152.402C123.422 151.644 123.887 150.792 124.643 150.724C124.33 150.187 123.516 150.505 122.897 150.446C121.965 150.358 121.455 149.342 121.128 148.464C119.801 144.904 118.594 141.301 117.387 137.7C118.232 139.083 120.136 139.705 121.635 139.088C122.164 138.87 122.18 138.109 121.955 137.582C121.561 136.663 120.664 135.955 119.667 135.877C118.67 135.798 117.633 136.407 117.296 137.349C116.796 136.975 117.009 136.111 117.533 135.773C118.057 135.435 118.729 135.464 119.351 135.502C125.229 135.857 131.129 135.851 137.005 135.485C137.273 135.468 137.568 135.438 137.75 135.242C137.956 135.02 137.937 134.678 137.904 134.376C137.679 132.309 137.454 130.242 137.23 128.174C137.205 127.945 137.17 127.694 136.998 127.54C136.81 127.37 136.525 127.378 136.272 127.396C128.905 127.921 121.557 128.714 114.248 129.773C113.47 129.885 112.746 129.232 112.501 128.485C112.255 127.739 112.368 126.927 112.484 126.149C112.525 125.877 112.577 125.581 112.779 125.393C112.965 125.221 113.235 125.18 113.487 125.148C121.091 124.177 128.746 123.595 136.41 123.404C136.224 124.161 135.236 124.324 134.456 124.338C127.344 124.464 120.239 125.034 113.197 126.044C112.635 127.005 113.405 128.301 114.443 128.705C115.481 129.109 116.644 128.893 117.739 128.687C123.772 127.552 129.893 126.883 136.03 126.688C136.905 126.66 137.01 125.399 136.826 124.542C136.399 122.552 135.971 120.562 135.543 118.572C131.294 119.376 126.953 119.697 122.632 119.527C120.074 119.426 117.531 119.872 115.011 120.318C112.869 120.696 110.586 121.144 109.039 122.672C107.229 124.458 106.905 127.251 107.015 129.791C107.195 133.958 108.253 138.034 108.774 142.172C109.412 147.228 109.248 152.353 109.738 157.426C109.87 158.792 110.058 160.184 110.671 161.413C111.283 162.642 112.397 163.696 113.755 163.899C124.913 165.563 136.291 165.752 147.499 164.46C148.534 164.34 149.578 164.206 150.556 163.844C152.098 163.273 153.421 162.129 154.208 160.685C154.523 160.106 154.759 159.443 154.644 158.793C154.529 158.143 153.964 157.539 153.305 157.572ZM64.0979 186.078C65.2653 198.926 66.4331 211.773 67.6009 224.621C67.8109 226.93 68.013 229.315 67.2912 231.519C66.5695 233.723 64.6709 235.714 62.3533 235.79C63.7139 237.78 66.0618 238.918 68.4365 239.335C70.8108 239.752 73.2455 239.531 75.6458 239.309C95.4253 237.482 115.204 235.654 134.984 233.827C134.559 231.355 134.134 228.883 133.71 226.412C133.615 225.857 133.342 225.153 132.781 225.196C119.182 226.209 105.582 227.222 91.9828 228.236C86.3986 228.652 80.7866 229.068 75.2054 228.612C72.381 228.381 68.893 227.258 68.6146 224.438C66.385 201.877 63.804 179.349 60.8725 156.868C60.8274 156.522 60.7715 156.152 60.5347 155.896C60.2191 155.553 59.6969 155.528 59.2313 155.525C56.4505 155.511 53.6697 155.497 50.8888 155.482C51.7008 160.09 52.7551 164.654 54.0458 169.151C54.2844 169.982 54.6811 170.952 55.5326 171.102C58.5903 171.639 61.0037 174.154 62.2616 176.992C63.5196 179.831 63.8168 182.986 64.0979 186.078ZM53.4134 106.107C51.0264 94.0011 49.0071 81.8227 47.3584 69.5939C47.2652 68.9022 47.1751 68.1853 47.3787 67.5176C47.798 66.1417 49.3029 65.421 50.7025 65.0889C53.4386 64.44 56.2961 64.6564 59.1006 64.863C84.7408 66.7538 110.465 67.5101 136.172 67.1299C135.15 65.0558 133.093 63.6415 130.906 62.8916C128.719 62.1416 126.382 61.9748 124.076 61.8154C101.446 60.2516 78.7832 58.7863 56.1014 59.0594C53.3266 59.0929 50.5191 59.1567 47.8397 59.8793C45.1604 60.6018 42.582 62.057 41.0363 64.3618C38.6004 67.9937 39.1895 72.7915 39.9436 77.0989C41.7092 87.1867 43.8573 97.2076 46.3815 107.132C48.7257 106.791 51.0696 106.449 53.4134 106.107ZM108.622 82.446C109.847 82.4588 111.121 82.39 112.205 81.8193C114.114 80.8142 114.962 78.4982 115.088 76.3441C115.215 74.1896 114.789 72.0306 114.926 69.8769C114.958 69.3862 115.231 68.7354 115.708 68.8586C116.053 71.3381 116.397 73.8172 116.742 76.2963C116.933 77.6651 117.131 79.0595 117.731 80.3047C118.33 81.5495 119.408 82.644 120.765 82.9048C121.545 83.0543 122.359 82.9202 123.102 82.641C124.88 81.9722 126.371 80.2701 126.303 78.3712C126.21 75.7493 126.117 73.127 126.023 70.5051C125.987 69.4681 125.601 68.0857 124.564 68.1402C117.653 68.5021 110.722 68.4701 103.815 68.0444C103.312 68.0132 103.179 68.7267 103.232 69.2287C103.509 71.8292 103.785 74.4301 104.062 77.0305C104.27 78.9941 104.716 81.3019 106.518 82.1101C107.17 82.4028 107.906 82.4385 108.622 82.446ZM144.066 245.636C143.735 245.868 143.516 246.225 143.314 246.575C142.266 248.4 141.424 250.342 140.809 252.355C152.905 251.51 164.993 250.527 177.067 249.409C177.521 249.367 178.013 249.307 178.339 248.988C178.55 248.781 178.659 248.494 178.761 248.216C179.213 246.988 179.665 245.761 180.117 244.533C180.337 243.935 180.532 243.192 180.102 242.723C179.745 242.333 179.137 242.345 178.61 242.387C167.57 243.271 156.536 244.224 145.508 245.244C145.006 245.291 144.478 245.346 144.066 245.636ZM165.39 171.107C165.063 167.29 164.396 163.007 161.282 160.777C160.066 164.124 158.839 167.521 158.561 171.071C158.283 174.621 159.068 178.404 161.449 181.052C161.784 181.424 162.156 181.785 162.333 182.253C162.51 182.72 162.421 183.338 161.986 183.586C158.749 180.77 157.41 176.253 157.485 171.963C157.561 167.674 158.876 163.515 160.179 159.427C160.465 158.529 159.646 157.584 158.727 157.375C157.808 157.165 156.859 157.472 155.967 157.776C155.793 157.835 155.716 158.033 155.662 158.208C155.044 160.175 154.422 162.26 154.9 164.264C156.959 172.902 156.693 181.967 158.789 190.596C158.867 190.915 158.95 191.24 159.136 191.51C160.526 188.792 161.916 186.074 163.307 183.355C163.96 182.078 164.617 180.792 165.025 179.416C165.818 176.742 165.628 173.886 165.39 171.107ZM214.57 108.409C214.838 108.631 215.199 108.701 215.545 108.739C219.476 109.179 223.186 106.503 225.363 103.2C227.54 99.8971 228.568 95.9947 229.996 92.3054C231.335 88.8426 233.048 85.5248 235.096 82.4276C230.996 86.2744 225.949 88.9681 221.67 92.6142C217.391 96.2604 213.749 101.374 214.051 106.988C214.079 107.507 214.169 108.078 214.57 108.409ZM57.1163 71.2085C57.675 73.6583 57.4439 76.3805 58.8011 78.4952C60.1169 80.5448 62.8925 81.5217 65.2021 80.7481C67.5118 79.9744 69.1387 77.5224 68.9539 75.0936C68.9118 74.5416 68.7874 73.9998 68.6631 73.4603C68.1765 71.3468 67.6899 69.2332 67.2033 67.1197C67.1549 66.9093 67.1007 66.688 66.9516 66.5321C66.7378 66.3085 66.3955 66.2826 66.0863 66.2706C63.1134 66.1571 60.1406 66.0432 57.1674 65.9294C56.8815 65.9185 56.5677 65.9162 56.3453 66.0962C56.0639 66.3247 56.0477 66.7436 56.0845 67.1039C56.2269 68.5092 56.8022 69.831 57.1163 71.2085ZM137.592 73.4933C137.663 76.8772 139.867 79.8196 142.192 82.2792C142.419 82.5193 142.652 82.7605 142.936 82.9303C143.395 83.2046 143.953 83.2693 144.486 83.2238C146.282 83.0694 147.818 81.7111 148.576 80.0755C149.334 78.4399 149.42 76.5691 149.256 74.7739C149.093 72.9786 148.696 71.2104 148.536 69.4151C148.503 69.0548 148.371 68.5847 148.01 68.5862C144.831 68.5982 141.653 68.6103 138.475 68.6227C138.068 68.6242 137.637 68.6324 137.294 68.85C136.95 69.0675 136.759 69.5759 137.013 69.8927C137.791 70.8609 137.566 72.2515 137.592 73.4933ZM185.925 178.164C177.217 178.011 169.234 183.173 163.144 189.398C162.117 190.448 161.115 191.549 160.431 192.848C160.31 193.078 160.215 193.398 160.413 193.566C160.518 193.655 160.669 193.661 160.808 193.66C165.874 193.642 170.746 191.502 174.862 188.549C178.978 185.595 182.446 181.847 185.925 178.164ZM78.1745 80.1337C79.4185 79.4176 80.2192 77.9917 80.1828 76.5567C80.1644 75.8289 79.9494 75.1229 79.7766 74.4158C79.3314 72.5961 79.1585 70.7103 79.2648 68.8402C79.2878 68.4419 79.3216 68.0328 79.2021 67.6521C79.0822 67.2715 78.7647 66.9217 78.3661 66.8999C75.0758 66.7203 71.7851 66.5403 68.4944 66.3607C68.376 66.3543 68.2467 66.351 68.1513 66.4208C68.0029 66.5298 68.0115 66.75 68.039 66.9315C68.4436 69.6094 69.7395 72.1317 69.8226 74.8389C69.8534 75.8346 69.72 76.8554 69.9992 77.8121C70.3561 79.0373 71.3766 80.0045 72.5606 80.4809C73.7442 80.9577 75.0724 80.9848 76.3285 80.7582C76.971 80.6425 77.6086 80.4591 78.1745 80.1337ZM209.846 116.794C212.229 117.466 214.336 118.872 216.648 119.759C221.774 121.724 227.874 120.904 232.298 117.653C234.198 116.257 236.097 114.862 237.996 113.466C235.681 114.014 233.286 114.224 230.911 114.087C226.941 113.858 223.022 112.669 219.057 112.967C215.685 113.22 212.405 114.583 209.846 116.794ZM141.791 98.4543C141.323 95.8594 140.854 93.2646 140.386 90.6698C139.758 87.192 139.13 83.7145 138.502 80.2367C138.458 79.9898 138.404 79.7253 138.221 79.5536C138.038 79.3819 137.682 79.3815 137.582 79.6115C136.955 81.0588 135.671 82.2059 134.163 82.667C133.248 82.9465 133.17 84.1951 133.276 85.1461C134.026 91.856 134.915 98.5501 135.94 105.224C136.239 102.494 138.578 100.124 141.303 99.7893C141.833 99.7243 141.886 98.9799 141.791 98.4543ZM91.7224 77.3488C91.4312 74.5514 91.0641 71.762 90.6211 68.9845C90.5298 68.4119 90.286 67.698 89.7066 67.6724C86.7116 67.5409 83.7162 67.4098 80.7212 67.2783C80.6145 67.2738 80.5018 67.27 80.4071 67.3204C80.1655 67.4485 80.2049 67.8009 80.2763 68.0651C80.9669 70.6299 81.3337 73.2814 81.3645 75.9371C81.372 76.5905 81.3645 77.2691 81.638 77.8628C82.0408 78.7364 82.9572 79.2376 83.8282 79.6457C85.3458 80.3566 87.0054 80.9818 88.6616 80.7236C90.3179 80.4655 91.896 79.0159 91.7224 77.3488ZM93.0176 77.3646C93.3197 78.8281 93.8735 80.5305 95.3073 80.9513C96.5176 81.3064 97.8259 81.4045 99.0399 81.0622C100.254 80.7199 101.36 79.9049 101.904 78.7668C102.29 77.9567 102.378 77.0395 102.428 76.1434C102.566 73.6884 102.471 71.2198 102.145 68.7824C102.127 68.652 102.108 68.5178 102.042 68.4036C101.867 68.1011 101.455 68.0587 101.106 68.0512C98.0562 67.9847 95.0063 67.9182 91.9565 67.8517C91.7074 67.8464 91.3594 68.1053 91.5702 68.2383C91.9114 71.3005 92.3946 74.347 93.0176 77.3646ZM195.498 107.654C193.115 113.041 192.414 119.156 193.514 124.942C193.954 127.254 194.819 129.707 196.819 130.945C197.408 131.309 198.39 131.417 198.607 130.759C201.138 123.123 199.957 114.349 195.498 107.654ZM41.0727 175.283C42.0834 175.976 43.2227 176.482 44.4149 176.766C45.922 177.125 47.4865 177.129 49.0349 177.166C52.6537 177.253 56.2675 177.531 59.8569 177.997C60.3574 178.061 60.7715 177.519 60.7583 177.015C60.7452 176.51 60.4378 176.064 60.1196 175.672C58.2052 173.314 55.4097 171.688 52.4132 171.191C50.2903 170.839 48.12 171.036 45.9689 170.975C43.8182 170.913 41.5732 170.549 39.858 169.249C39.767 170.485 39.7599 171.727 39.8362 172.963C39.867 173.464 39.9177 173.983 40.1728 174.414C40.3866 174.776 40.7263 175.045 41.0727 175.283ZM128.128 79.312C128.465 79.9245 129.008 80.3968 129.563 80.8221C130.164 81.2831 130.814 81.7148 131.553 81.8839C133.373 82.3006 135.233 80.9525 136 79.2508C136.767 77.5487 136.689 75.5978 136.512 73.7398C136.378 72.3349 136.195 70.9346 135.964 69.5421C135.926 69.3103 135.881 69.0675 135.735 68.8827C135.479 68.5588 135.01 68.5212 134.597 68.5103C132.379 68.4513 130.161 68.3923 127.943 68.3334C127.452 68.3206 126.754 68.5554 126.9 69.0243C127.553 71.1247 127.837 73.3389 127.737 75.5358C127.679 76.8182 127.508 78.1878 128.128 79.312ZM206.63 118.308C208.985 114.507 209.69 109.722 208.531 105.404C207.506 101.586 205.125 98.2037 204.369 94.3234C202.609 99.6642 200.837 105.413 202.429 110.806C203.245 113.57 204.894 116.008 206.63 118.308ZM167.614 178.101C174.619 176.297 181.084 172.451 186.012 167.156C187.487 165.572 188.996 164.021 190.539 162.503C186.759 163.021 183.069 164.19 179.681 165.943C174.511 168.617 169.975 172.781 167.614 178.101ZM210.289 131.609C212.865 129.188 215.441 126.766 218.018 124.345C209.305 125.456 201.169 130.49 196.287 137.791C197.546 138.76 199.351 138.189 200.819 137.582C202.86 136.738 204.919 135.884 206.737 134.628C208.017 133.744 209.156 132.674 210.289 131.609ZM40.8503 184.523C40.8717 184.746 40.8984 184.983 41.0336 185.162C41.3305 185.555 41.935 185.458 42.407 185.32C47.8131 183.741 53.1436 181.901 58.3731 179.811C58.7504 179.66 59.19 179.421 59.1975 179.016C55.1858 178.737 51.1736 178.459 47.1615 178.181C46.1801 178.113 45.1949 178.044 44.233 177.839C42.7857 177.53 41.406 176.91 40.2145 176.032C40.3017 178.869 40.576 181.697 40.8503 184.523ZM167.589 157.377C167.265 157.611 167.135 158.023 167.023 158.406C166.641 159.723 166.258 161.119 166.612 162.443C166.793 163.117 167.156 163.726 167.514 164.325C168.506 165.983 169.498 167.641 170.489 169.298C170.582 169.452 170.682 169.614 170.841 169.698C171.314 169.946 171.782 169.363 172.002 168.875C173.429 165.709 174.888 162.362 174.565 158.905C174.515 158.373 174.371 157.77 173.896 157.526C173.677 157.414 173.424 157.4 173.179 157.387C171.709 157.315 170.239 157.242 168.769 157.168C168.362 157.148 167.919 157.138 167.589 157.377ZM190.06 145.657C190.022 147.885 191.966 149.748 194.098 150.397C196.23 151.045 198.518 150.766 200.733 150.528C204.629 150.11 208.749 149.765 211.952 147.508C212.663 147.007 213.334 146.389 213.652 145.58C214.147 144.317 213.649 142.826 212.718 141.839C211.787 140.852 210.497 140.288 209.205 139.875C204.589 138.397 199.464 138.568 194.956 140.348C192.578 141.288 190.103 143.101 190.06 145.657ZM40.4832 168.417C40.9029 168.808 41.7536 168.908 41.917 168.358C42.4776 166.474 43.7382 164.857 45.2227 163.568C46.7076 162.278 48.4191 161.283 50.1197 160.295C50.5785 160.029 50.5495 159.368 50.4609 158.845C50.2892 157.832 50.1175 156.819 49.9457 155.806C49.9022 155.549 49.8165 155.243 49.5651 155.174C49.3596 155.118 49.1567 155.257 48.9887 155.388C47.7687 156.341 46.5491 157.294 45.3291 158.246C42.8849 160.155 40.2656 162.345 39.7355 165.4C39.551 166.465 39.6934 167.68 40.4832 168.417ZM49.9987 161.598C47.2592 163.309 44.3593 165.203 43.1145 168.183C43.0367 168.369 42.9653 168.564 42.9713 168.765C42.9833 169.161 43.3031 169.496 43.6694 169.648C44.0354 169.8 44.4435 169.807 44.8402 169.812C47.1856 169.839 49.5309 169.867 51.8759 169.895C51.9901 169.896 52.1137 169.894 52.2039 169.824C52.3459 169.713 52.3317 169.497 52.3035 169.319C51.9293 166.955 51.555 164.591 51.1812 162.227C51.1278 161.89 51.0192 161.488 50.6912 161.397C50.4522 161.33 50.2091 161.466 49.9987 161.598ZM166.517 157.522C164.79 157.077 162.928 157.174 161.257 157.796C161.58 158.858 162.153 159.843 162.917 160.648C165.492 163.363 166.253 167.304 166.545 171.033C166.701 173.025 166.756 175.025 166.71 177.023C167.841 175.278 168.972 173.534 170.103 171.789C170.215 171.616 170.331 171.432 170.343 171.226C170.355 171.019 170.262 170.823 170.167 170.639C169.051 168.484 167.411 166.626 166.376 164.431C165.34 162.237 165.023 159.434 166.517 157.522ZM50.8287 66.2059C49.8762 66.3574 48.79 66.5993 48.3376 67.4507C48.025 68.0395 48.1174 68.7519 48.2177 69.411C48.6318 72.1253 49.0455 74.84 49.4595 77.5543C51.5779 73.7451 53.5615 69.863 55.5442 65.982C55.1771 65.5668 54.5267 65.6194 53.9796 65.7062C52.9295 65.873 51.8789 66.0395 50.8287 66.2059ZM181.209 158.372C181.502 158.76 182.268 158.33 182.088 157.877C184.917 158.689 188.001 158.111 190.673 156.877C193.345 155.643 195.678 153.794 197.974 151.952C197.01 151.818 196.046 151.683 195.082 151.548C194.885 151.521 194.63 151.524 194.554 151.708C194.035 152.979 192.917 153.931 191.683 154.533C190.448 155.134 189.09 155.425 187.747 155.711C186.815 155.91 185.883 156.108 184.951 156.307C183.508 156.614 181.88 157.057 181.209 158.372ZM130.028 138.688C130.209 138.642 130.404 138.588 130.519 138.441C130.699 138.214 130.609 137.886 130.562 137.6C130.515 137.314 130.587 136.933 130.873 136.883C131.134 136.935 131.254 137.244 131.26 137.509C131.267 137.775 131.208 138.052 131.304 138.3C131.518 138.851 132.279 138.873 132.866 138.798C133.213 138.754 133.56 138.71 133.907 138.666C134.016 138.652 134.132 138.634 134.213 138.56C134.47 138.325 134.113 137.941 134.033 137.602C133.972 137.34 134.094 137.057 134.014 136.8C133.877 136.363 133.295 136.295 132.837 136.311C129.333 136.427 125.83 136.543 122.325 136.66C122.386 137.323 122.567 137.975 122.858 138.573C122.921 138.702 122.995 138.835 123.119 138.907C123.246 138.979 123.4 138.974 123.545 138.968C124.416 138.928 125.287 138.887 126.158 138.846C126.233 138.843 126.31 138.838 126.372 138.798C126.531 138.692 126.476 138.45 126.403 138.274C126.277 137.971 126.152 137.668 126.026 137.365C125.916 137.101 126.394 136.945 126.595 137.148C126.795 137.351 126.803 137.669 126.897 137.938C127.094 138.497 127.688 138.837 128.276 138.909C128.864 138.981 129.454 138.834 130.028 138.688ZM180.915 157.237C181.106 157.034 180.685 156.821 180.408 156.855C178.83 157.049 177.252 157.242 175.675 157.436C175.464 157.461 175.185 157.577 175.236 157.783C175.754 159.906 175.559 162.197 174.69 164.202C174.525 164.584 174.416 165.167 174.812 165.296C176.458 162.342 178.518 159.621 180.915 157.237ZM127.155 140.29C127.106 140.118 127.05 139.938 126.92 139.817C126.771 139.678 126.557 139.643 126.356 139.621C125.322 139.508 124.269 139.579 123.259 139.83C123.575 140.854 123.891 141.878 124.206 142.902C124.266 143.096 124.347 143.314 124.535 143.39C124.632 143.429 124.74 143.422 124.843 143.415C125.864 143.343 126.885 143.272 127.905 143.2C127.683 142.223 127.434 141.252 127.155 140.29ZM120.51 143.87C120.624 143.932 120.762 143.914 120.89 143.892C121.814 143.742 122.738 143.592 123.662 143.441C123.329 142.372 122.995 141.304 122.662 140.235C122.613 140.078 122.552 139.906 122.407 139.828C122.293 139.767 122.154 139.78 122.025 139.795C121.202 139.891 120.378 139.986 119.554 140.082C119.399 140.1 119.215 140.139 119.158 140.284C119.119 140.382 119.156 140.493 119.193 140.592C119.555 141.572 119.918 142.551 120.281 143.531C120.33 143.661 120.387 143.803 120.51 143.87ZM130.892 139.602C130.697 139.432 130.407 139.443 130.15 139.465C129.336 139.532 128.522 139.599 127.708 139.665C127.952 140.708 128.258 141.737 128.625 142.742C128.673 142.874 128.728 143.013 128.84 143.098C128.979 143.203 129.171 143.197 129.346 143.187C129.901 143.153 130.457 143.12 131.012 143.087C131.268 143.071 131.579 143.016 131.665 142.775C131.706 142.659 131.68 142.531 131.653 142.411C131.484 141.658 131.315 140.905 131.146 140.153C131.101 139.952 131.048 139.737 130.892 139.602ZM126.037 147.093C125.957 147.106 125.871 147.121 125.813 147.178C125.698 147.288 125.751 147.477 125.811 147.624C126.025 148.147 126.238 148.671 126.452 149.194C126.531 149.388 126.621 149.594 126.798 149.707C126.962 149.81 127.168 149.813 127.361 149.811C128.1 149.807 128.838 149.802 129.576 149.798C129.685 149.798 129.802 149.794 129.885 149.725C130.036 149.6 129.98 149.36 129.91 149.177C129.626 148.428 129.342 147.68 129.058 146.931C128.967 146.69 128.633 146.687 128.379 146.727C127.598 146.849 126.818 146.971 126.037 147.093ZM132.25 139.454C132.095 139.454 131.921 139.463 131.816 139.578C131.69 139.716 131.73 139.932 131.777 140.113C131.987 140.907 132.198 141.701 132.407 142.494C132.444 142.634 132.487 142.783 132.599 142.874C132.748 142.996 132.963 142.973 133.153 142.944C133.853 142.837 134.553 142.73 135.253 142.623C135.177 141.811 135.049 141.003 134.867 140.208C134.81 139.959 134.731 139.688 134.516 139.551C134.355 139.449 134.152 139.446 133.961 139.447C133.391 139.449 132.82 139.451 132.25 139.454ZM133.675 149.705C133.448 148.881 133.221 148.057 132.994 147.233C132.908 146.919 132.785 146.562 132.481 146.443C132.331 146.385 132.164 146.398 132.004 146.412C131.257 146.477 130.51 146.542 129.763 146.607C129.96 147.345 130.193 148.073 130.461 148.788C130.596 149.148 130.801 149.556 131.181 149.617C132.004 149.751 132.845 149.78 133.675 149.705ZM134.975 149.648C135.652 149.703 136.396 149.74 136.943 149.338C136.706 148.415 136.469 147.492 136.231 146.57C136.178 146.362 136.106 146.13 135.916 146.032C135.776 145.959 135.608 145.979 135.452 146C134.781 146.094 134.11 146.187 133.439 146.281C133.599 147.258 133.87 148.216 134.245 149.132C134.302 149.273 134.367 149.419 134.487 149.511C134.623 149.616 134.805 149.634 134.975 149.648ZM195.314 136.51C195.831 135.449 196.349 134.387 196.866 133.326C196.92 133.214 196.976 133.094 196.956 132.971C196.937 132.852 196.85 132.757 196.767 132.669C196.031 131.891 195.295 131.112 194.558 130.334C194.252 130.751 194.288 131.319 194.336 131.835C194.497 133.527 194.657 135.219 194.817 136.912C195.042 136.962 195.213 136.718 195.314 136.51ZM135.719 139.331C135.623 139.324 135.513 139.322 135.445 139.392C135.369 139.47 135.386 139.596 135.408 139.702C135.554 140.405 135.699 141.107 135.845 141.81C135.899 142.07 135.963 142.349 136.16 142.528C136.795 143.108 138.02 142.11 138.611 142.736C138.715 141.738 138.641 140.722 138.392 139.75C138.374 139.682 138.354 139.61 138.301 139.563C138.241 139.508 138.153 139.5 138.072 139.495C137.288 139.44 136.503 139.386 135.719 139.331ZM121.091 144.542C121.006 144.553 120.918 144.566 120.848 144.616C120.694 144.725 120.7 144.953 120.722 145.141C120.781 145.644 120.846 146.164 121.109 146.596C121.372 147.029 121.891 147.349 122.38 147.218C123.08 147.03 123.78 146.842 124.481 146.655C124.45 145.985 124.315 145.321 124.08 144.693C124.022 144.537 123.949 144.372 123.805 144.287C123.655 144.199 123.468 144.219 123.296 144.243C122.561 144.342 121.826 144.442 121.091 144.542ZM137.424 138.669C137.634 138.637 137.859 138.599 138.016 138.454C138.482 138.023 137.949 137.148 138.327 136.638C138.475 136.439 138.113 136.26 137.865 136.271C136.759 136.317 135.653 136.364 134.547 136.411C134.59 136.868 134.669 137.323 134.784 137.768C134.913 138.264 135.397 138.603 135.897 138.713C136.397 138.823 136.917 138.746 137.424 138.669ZM128.483 144.627C128.341 143.943 127.425 143.783 126.738 143.911C126.051 144.039 125.283 144.287 124.699 143.903C124.737 144.626 124.905 145.341 125.195 146.004C125.256 146.143 125.329 146.289 125.462 146.363C125.611 146.448 125.795 146.421 125.964 146.392C126.641 146.275 127.319 146.158 127.996 146.041C128.332 145.983 128.775 145.717 128.598 145.425C128.457 145.193 128.539 144.893 128.483 144.627ZM124.299 147.436C123.746 147.53 123.192 147.624 122.639 147.717C122.339 147.768 121.97 147.888 121.938 148.191C121.857 148.955 122.618 149.571 123.371 149.723C124.124 149.875 124.906 149.726 125.671 149.802C125.639 149.152 125.503 148.508 125.27 147.901C125.214 147.757 125.148 147.608 125.025 147.513C124.827 147.36 124.546 147.394 124.299 147.436ZM138.883 145.954C138.149 145.876 137.403 145.915 136.68 146.069C137.079 147.02 137.363 148.019 137.522 149.037C137.596 149.504 138.262 149.514 138.72 149.397C138.891 149.353 139.078 149.299 139.175 149.152C139.259 149.026 139.255 148.862 139.248 148.711C139.209 147.872 139.17 147.033 139.13 146.194C139.128 146.141 139.124 146.085 139.094 146.042C139.049 145.977 138.962 145.962 138.883 145.954ZM126.892 153.469C127.584 152.778 127.229 151.383 126.291 151.107C125.352 150.83 124.298 151.811 124.506 152.767C124.72 153.755 126.176 154.184 126.892 153.469ZM132.335 145.367C132.775 144.792 132.116 143.943 131.402 143.818C130.689 143.693 129.966 143.967 129.241 143.956C128.974 143.952 128.963 144.354 129.05 144.606C129.162 144.932 129.274 145.259 129.387 145.585C129.432 145.719 129.516 145.879 129.656 145.87C130.173 145.838 130.689 145.806 131.206 145.773C131.618 145.748 132.083 145.695 132.335 145.367ZM139.473 150.918C139.42 150.774 139.341 150.633 139.217 150.542C139.105 150.461 138.966 150.426 138.829 150.41C137.745 150.279 136.692 151.36 136.853 152.44C137.314 152.989 138.183 153.14 138.802 152.78C139.422 152.42 139.721 151.591 139.473 150.918ZM132.782 144.389C132.758 144.864 133.176 145.269 133.634 145.397C134.092 145.525 134.579 145.443 135.047 145.359C135.287 145.317 135.556 145.255 135.681 145.046C135.949 144.601 135.418 143.785 135.908 143.615C135.579 143.569 135.25 143.524 134.921 143.479C134.486 143.419 134.037 143.36 133.615 143.481C133.194 143.601 132.804 143.951 132.782 144.389ZM136.716 144.997C137.214 145.43 138.049 145.37 138.512 144.899C138.975 144.428 139.036 143.63 138.686 143.069C137.814 143.231 136.941 143.393 136.068 143.555C136.178 144.08 136.311 144.644 136.716 144.997ZM204.143 136.656C203.463 136.908 202.784 137.16 202.104 137.411C201.767 137.537 201.424 137.664 201.132 137.874C202.243 138.308 203.645 137.741 204.143 136.656ZM140.985 82.7271C140.967 82.4269 140.65 82.1815 140.355 82.2401C140.374 82.5456 140.678 82.8022 140.983 82.7695L140.985 82.7271Z" fill="#00160A"/>
</svg>
