<svg width="224" height="40" viewBox="0 0 224 40" fill="none" xmlns="http://www.w3.org/2000/svg">
<path d="M223.49 29.1842C224.245 30.3868 224.272 30.9146 222.814 31.373C215.606 33.64 208.261 35.8077 201.369 38.3291C197.088 39.8954 193.972 39.691 189.829 38.1849C182.932 35.6783 175.534 33.5674 167.877 31.1406C158.798 34.0269 149.487 36.9875 140.011 40C134.964 38.4241 130.135 36.9464 125.364 35.4168C121.54 34.1914 117.764 32.9217 114.014 31.6317C112.663 31.167 111.519 31.1666 110.153 31.6229C103.536 33.8329 96.8941 36.0209 90.2258 38.1853C88.4352 38.7663 86.5201 39.2362 84.4174 39.8259C74.5296 37.5421 66.0474 33.777 56.1283 31.1686C51.3638 32.6934 46.6032 34.219 41.8379 35.7414C38.0094 36.9644 34.1524 38.1634 30.3544 39.4135C28.8348 39.9134 27.4752 39.8243 26.0516 39.358C18.3275 36.8266 10.5907 34.3056 2.87701 31.7647C1.84055 31.4233 0.911349 30.9873 0 30.6224C0.625435 29.4697 1.60452 29.308 3.1964 29.831C7.94301 31.3914 12.7261 32.9202 17.4891 34.4673C21.1717 35.6635 24.8447 36.8689 28.5623 38.0835C35.8776 35.6544 42.8125 33.1466 50.1078 30.9893C56.8305 29.0013 55.5112 28.6703 62.4595 30.9937C69.5492 33.3646 76.7656 35.6276 84.2842 38.0532C93.4081 35.0858 102.663 32.0761 112.076 29.0145C121.287 31.9907 130.563 34.9884 140.004 38.0392C149.318 35.0339 158.616 32.0338 167.973 29.0145C177.169 32.0122 186.206 34.9576 195.519 37.9933C204.941 35.4128 213.624 31.9028 223.49 29.1842Z" fill="#E5951A"/>
<path d="M195.735 25.4443C193.505 24.7687 191.067 24.0703 188.704 23.3053C182.627 21.3369 176.589 19.3346 170.525 17.3542C168.743 16.7721 167.211 16.6787 165.16 17.3818C158.004 19.8341 150.65 22.1191 143.354 24.4525C142.282 24.795 141.117 25.0541 139.833 25.3947C135.648 24.1043 131.404 22.8278 127.22 21.4971C122.789 20.088 118.386 18.6531 114.033 17.177C112.481 16.6507 111.33 16.8021 109.833 17.2908C101.864 19.8912 93.8162 22.423 85.7912 24.9735C85.3192 25.1232 84.8002 25.2306 84.1063 25.4083C79.3306 23.9258 74.5027 22.4449 69.7085 20.9329C66.1107 19.7978 62.5145 18.6579 58.9986 17.4525C56.9913 16.7641 55.2662 16.7749 53.2239 17.4605C45.7916 19.9567 38.2826 22.3871 30.7819 24.8242C29.9688 25.0885 29.0225 25.235 28.1052 25.4439C19.5338 22.6933 11.0539 19.9798 2.59714 17.2456C1.77661 16.9802 0.921864 16.6459 0.425246 16.2271C0.0924101 15.9456 0.361896 15.4585 0.361896 14.6943C10.6578 17.2532 19.0178 20.9289 28.6607 23.5417C37.9126 20.5272 47.1653 17.5124 56.4388 14.4907C65.7697 17.5339 74.9146 20.5168 84.3646 23.5988C93.5057 20.5911 102.733 17.5547 112.128 14.4631C121.345 17.484 130.479 20.4777 139.999 23.5984C149.069 20.6298 158.309 17.6058 167.891 14.4695C176.917 17.4353 186.044 20.4338 195.515 23.5457C204.85 20.9237 213.69 17.5663 223.241 14.7294C224.007 16.2343 223.829 16.5154 221.929 17.163C219.698 17.924 217.476 18.6942 215.194 19.4089C208.828 21.4024 202.433 23.3692 195.735 25.4443Z" fill="#E5951A"/>
<path d="M84.2789 9.07021C93.5503 6.04733 102.704 3.06319 112.096 0.00122152C121.369 3.03166 130.619 6.05454 139.988 9.11693C149.175 6.10684 158.313 3.11191 167.81 0C176.997 2.98053 186.277 5.99103 195.701 9.04864C200.423 7.54699 205.033 6.02895 209.736 4.59998C214.268 3.22252 218.279 1.31719 223.418 0.401681C224.779 1.75601 223.141 2.26904 221.813 2.72943C219.36 3.57987 216.784 4.32889 214.264 5.12343C208.858 6.82832 203.459 8.53959 198.046 10.2373C197.214 10.4984 196.321 10.7044 195.53 10.916C187.002 8.18501 178.637 5.50432 170.268 2.82802C168.585 2.2898 167.151 2.26187 165.264 2.88632C156.967 5.63209 148.515 8.2433 139.93 10.9627C131.726 8.31519 123.495 5.67082 115.292 3.00251C113.198 2.32136 111.544 2.25149 109.202 3.05003C101.566 5.65527 93.6664 8.03929 85.8619 10.5028C85.3876 10.6525 84.8613 10.7547 84.2448 10.9073C80.0469 9.62121 75.7931 8.35231 71.6042 7.02476C67.1696 5.61891 62.7513 4.19513 58.4202 2.70028C56.6459 2.08778 55.2015 2.41877 53.7414 2.87316C51.2128 3.66051 48.769 4.52531 46.2546 5.32667C40.5036 7.15969 34.7318 8.97317 28.6844 10.8845C27.5646 10.5958 26.1417 10.2956 24.8425 9.88351C17.5264 7.56135 10.2266 5.22444 2.95819 2.85956C1.91878 2.52141 1.00962 2.03948 0.195064 1.54997C-0.0156404 1.42301 0.246436 0.980215 0.504815 0.751849C0.658189 0.615674 1.30378 0.509882 1.5964 0.571366C2.89118 0.842865 4.21276 1.11517 5.39067 1.50367C11.6815 3.57707 17.9262 5.69119 24.2007 7.77817C25.5037 8.21138 26.8685 8.59067 28.3881 9.05064C32.5532 7.7159 36.7443 6.38552 40.9116 5.034C45.2018 3.64294 49.5129 2.26826 53.7272 0.813309C55.7643 0.1102 57.3643 0.2252 59.3851 0.915536C67.136 3.56427 75.0106 6.10923 82.8449 8.68771C83.3087 8.84023 83.8218 8.94924 84.2789 9.07021Z" fill="#E5951A"/>
</svg>
